<svg viewBox="82.8 147.412 268.831 80.259" xmlns="http://www.w3.org/2000/svg" xmlns:xlink="http://www.w3.org/1999/xlink"><defs><clipPath id="a"><path class="a" style="fill:none" d="M-17.15-3.79H91.48v76.81H-17.15z"/></clipPath><clipPath id="b"><path class="a" d="M19 34.06a18.16 18.16 0 1 0 18.2-18.15A18.16 18.16 0 0 0 19 34.06" style="fill:none"/></clipPath><clipPath id="d"><path class="a" d="M37.44 34.91a.28.28 0 0 1-.15.11.25.25 0 0 0-.24.21.32.32 0 0 0 .2.27 2.33 2.33 0 0 0 1.07.24h.07a.31.31 0 0 0 .34-.14.34.34 0 0 0-.14-.37 1.89 1.89 0 0 0-.59-.44.54.54 0 0 0-.27-.08.43.43 0 0 0-.34.21M35 32.79a.25.25 0 0 0-.25.23c0 .14.16.12.26.13a.35.35 0 0 1 .32.17.86.86 0 0 0 .38.34 1.24 1.24 0 0 1 .57.64.72.72 0 0 0 .74.44c.21 0 .29-.21.15-.36-.41-.42-.74-.92-1.19-1.3a1.19 1.19 0 0 0-.76-.32 1 1 0 0 0-.2 0m18.41-3.85a.29.29 0 0 0-.09.36.17.17 0 0 0 .25.13c.07 0 .14-.08.19 0a.16.16 0 0 0 .24.11.27.27 0 0 0 .14-.27c0-.26-.12-.34-.34-.2s-.11 0-.15-.05a.22.22 0 0 0-.16-.13h-.08m-5.77-5.79c-.11 0-.22.07-.34.09a.19.19 0 0 0-.11.35.9.9 0 0 0 .68.32.35.35 0 0 0 .36-.36.44.44 0 0 0-.46-.41h-.13M32.88 50.65c0-.12.08-.12.15-.17a7 7 0 0 1 1.42-.48 1.64 1.64 0 0 1 .43-.08.17.17 0 0 1 .17.06.15.15 0 0 1-.05.18 2.18 2.18 0 0 1-1.38.82h-.32a.35.35 0 0 1-.36-.34m-1.08 0a7.68 7.68 0 0 1-2.07-.91 2.17 2.17 0 0 1-.86-1.55 6.39 6.39 0 0 1 .07-1.81c0-.25.1-.28.33-.17q1.67.77 3.4 1.38l.16.06c.24.1.26.17.06.34a4.82 4.82 0 0 0-.95 1.21.27.27 0 0 0 0 .21.13.13 0 0 1-.09.15c-.36.2-.39.33-.22.68a2.61 2.61 0 0 0 .26.38h-.06m-3.51-1.55A15 15 0 0 1 26.62 48a8.89 8.89 0 0 1-3.36-5 .22.22 0 0 1 0-.23c.08-.06.15 0 .21.08a33.23 33.23 0 0 0 3.68 2.3c.34.19.69.34 1 .49a.51.51 0 0 1 .35.46c-.07.57-.12 1.14-.14 1.7a5.76 5.76 0 0 0 .11 1.11.18.18 0 0 1 0 .19.1.1 0 0 1-.07 0 .33.33 0 0 1-.14-.06m15.43-6c0-.3 0-.3.31-.26 1 .12 1.92.15 2.88.21.26 0 .31.07.21.31a17.22 17.22 0 0 1-2.92 5c-.2.23-.41.43-.61.66a.71.71 0 0 1-.7.28 1.17 1.17 0 0 0-.2 0 27.19 27.19 0 0 1-3.07-.31.18.18 0 0 1-.17-.08c0-.09.07-.12.12-.17a1.86 1.86 0 0 1 1.15-.41 3.27 3.27 0 0 0 2.82-1.62 1.63 1.63 0 0 1 .75-.65 3.25 3.25 0 0 0 1.26-1.07.77.77 0 0 0-.09-1.14 1.76 1.76 0 0 0-1.43-.54h-.09a.16.16 0 0 1-.2-.25M31.5 38.91c.07-.13-.06-.19-.14-.26-.36-.28-.36-.28-.19-.65.3-.89.66-1.76 1-2.63.11-.27.18-.28.37-.05a1.18 1.18 0 0 1 .22.57.88.88 0 0 0 .39.79.36.36 0 0 1 .11.29.52.52 0 0 0 .25.38 1.62 1.62 0 0 1 .4.34.26.26 0 0 0 .44 0 .44.44 0 0 1 .12-.09c.18-.1.29-.06.28.15a6.69 6.69 0 0 1-.09 1.16.35.35 0 0 1-.16.24 2.38 2.38 0 0 1-1.09.33.35.35 0 0 0-.32.06c-.09.11 0 .2.07.29a.19.19 0 0 1 0 .21.45.45 0 0 0-.09.46c0 .12-.11.15-.18.2a.5.5 0 0 0-.24.74 5.06 5.06 0 0 1 .51 1.94 2.07 2.07 0 0 0 .72 1.41l.12.1a1 1 0 0 1 .13 1.45c-.17.25-.37.49-.55.74a.44.44 0 0 1-.51.16 6 6 0 0 1-.64-.24c-.79-.32-1.6-.61-2.41-.89-.16-.05-.3-.14-.45-.2a.74.74 0 0 1-.5-.83 3.27 3.27 0 0 1 .16-1c.5-1.61.92-3.25 1.49-4.84.11-.31.09-.4.49-.28h.14a.16.16 0 0 0 .15-.08m-3.15 6.34a43 43 0 0 1-4.23-2.5 2.56 2.56 0 0 1-1.24-2.27 19 19 0 0 1 .91-5.58c.08-.23.13-.25.33-.09A29.39 29.39 0 0 0 28 37.35c.7.39 1.41.74 2.13 1.1a.39.39 0 0 1 .27.59 18.93 18.93 0 0 1-.64 2 24.16 24.16 0 0 0-1 4c0 .18-.07.26-.16.26a.43.43 0 0 1-.18-.06M52 33.67a.18.18 0 0 1 .21 0 .19.19 0 0 1 0 .21l-.58 1.3a3 3 0 0 0-.19 1.71 2.28 2.28 0 0 1-.11 1c-.11.35 0 .71-.09 1.06a9.65 9.65 0 0 1 .58 1.45c.26.45.43.51.88.25.1-.06.2-.22.31-.13a.39.39 0 0 1-.05.35.86.86 0 0 1-.56.65 10.3 10.3 0 0 1-3.28.88l-.89.08c-.27 0-.33 0-.24-.28a24.11 24.11 0 0 0 .78-3.2 26.13 26.13 0 0 0 .36-3.09c0-.27-.06-.55 0-.78a3.29 3.29 0 0 1 .05-.83.34.34 0 0 1 .36-.3h.26a7.81 7.81 0 0 0 2.2-.33m-4.92 8.9a32.78 32.78 0 0 1-4.31-.44c-.2 0-.31-.08-.21-.32a.65.65 0 0 0-.06-.55 2.17 2.17 0 0 0-1.07-1l-.3-.13a.88.88 0 0 1-.54-1.21c.34-1 .61-1.94.86-2.92s.41-1.68.61-2.52c.07-.28.13-.32.4-.26a31.43 31.43 0 0 0 3.7.67A9.1 9.1 0 0 0 48 34c.62 0 .73.1.73.71v.25a26.66 26.66 0 0 1-1.25 7.3.41.41 0 0 1-.43.33m-24.81-1.33c-.38-.37-.75-.75-1.1-1.16a5.72 5.72 0 0 1-1.16-3 11.47 11.47 0 0 1-.16-2.27 14.16 14.16 0 0 1 .48-3.91c0-.08 0-.19.11-.2s.11.11.15.18a9.79 9.79 0 0 0 2.18 2.7l.54.52a.48.48 0 0 1 .13.54 18.76 18.76 0 0 0-.84 3.61 11.33 11.33 0 0 0-.08 2.73.82.82 0 0 1 0 .12.16.16 0 0 1-.08.19.21.21 0 0 1-.13-.09m13-3.75a.67.67 0 0 0-.48-.32 2 2 0 0 1-.65-.26.5.5 0 0 1-.26-.71c.07-.2.18-.39.26-.59a.72.72 0 0 0-.38-1.07l-.38-.18c-.31-.15-.34-.42 0-.6a1.58 1.58 0 0 0 .53-.58.35.35 0 0 0-.19-.59c-.2-.07-.22-.16-.14-.33.24-.48.47-1 .71-1.46a.47.47 0 0 1 .7-.24c.15.07.29.16.44.24a.65.65 0 0 1 .41.84 1.05 1.05 0 0 0 .2.78c.1.18.23.08.3-.05a2.59 2.59 0 0 0 .27-.7c.05-.22.15-.25.36-.17a27.3 27.3 0 0 0 3.65 1.2l.66.15a.46.46 0 0 1 .39.57 3.62 3.62 0 0 1-.14.65l-1.21 4.37v.1a.25.25 0 0 1-.13.22.24.24 0 0 1-.23-.17.57.57 0 0 0-.39-.28 4.79 4.79 0 0 1-1.78-.82.25.25 0 0 0-.19-.06.28.28 0 0 1-.32-.13.14.14 0 0 0-.1-.06 1.84 1.84 0 0 0-1.51.27.26.26 0 0 1-.17.09.2.2 0 0 1-.17-.13m-3.51-4.86a1.65 1.65 0 0 1-.23-.91 1.49 1.49 0 0 1 .45-1.1 1.73 1.73 0 0 0 .3-.4.68.68 0 0 1 .66-.36 1.85 1.85 0 0 1 .49.07.56.56 0 0 1 .42.89c-.2.48-.32 1-.57 1.46a3.14 3.14 0 0 1-.24.38.76.76 0 0 1-1.29 0m6.68-2.54a.66.66 0 0 0 .26-.47.45.45 0 0 1 .23-.36 3.57 3.57 0 0 1 1.2-.53.27.27 0 0 0 .23-.14.93.93 0 0 1 .76-.4.18.18 0 0 1 .24.16.23.23 0 0 0 .33.19 1.64 1.64 0 0 1 .25-.02c.43 0 .43 0 .41.6s-.23 1.37-.36 2.14c-.06.37-.16.73-.19 1.1s-.17.25-.34.2c-.42-.11-.84-.22-1.25-.36l-2.72-.9a2.84 2.84 0 0 1-.41-.18c-.14-.05-.32-.11-.28-.28a.5.5 0 0 1 .37-.41.63.63 0 0 1 .25 0h.15a1.34 1.34 0 0 0 .79-.31m3.92-2.21-.25-.24a.26.26 0 0 1-.09-.35c.08-.12.17-.26.36-.13a.23.23 0 0 0 .17 0c.18-.05.2.05.21.2a1.58 1.58 0 0 1-.18.52.09.09 0 0 1-.08.06.23.23 0 0 1-.13-.07M30.31 38a26.67 26.67 0 0 1-5.54-3.29 3.85 3.85 0 0 1-.37-.3.65.65 0 0 1-.19-.68 10.13 10.13 0 0 1 .69-1.66 26.56 26.56 0 0 1 3.19-5 .41.41 0 0 1 .58-.16.53.53 0 0 1 .17.7 1.27 1.27 0 0 0-.09.83v.75c0 .25 0 .35.19.35a.28.28 0 0 0 .22-.36 2.91 2.91 0 0 1 .19-1.07q0 .7.09 1.41a2.54 2.54 0 0 0 0 .3 1.08 1.08 0 0 1-.14.81.81.81 0 0 0 0 .88 4.63 4.63 0 0 0 1.7 2.06 2.39 2.39 0 0 1 .84 1.09.44.44 0 0 1 0 .29 2.42 2.42 0 0 1-.23.68 18 18 0 0 0-.9 2.19c-.07.2-.12.28-.21.28a.8.8 0 0 1-.19-.1M29 26.54a.22.22 0 0 1-.13-.29.87.87 0 0 1 .25-.36.12.12 0 0 1 .13-.06.18.18 0 0 1 .07.19c0 .09-.06.23-.11.36a.2.2 0 0 1-.13.17h-.07m13.99.74c-.06 0 0-.12 0-.18a.4.4 0 0 1 .27-.24.79.79 0 0 0 .38-.31.35.35 0 0 0 0-.44c-.14-.17-.2-.38-.34-.54a1.36 1.36 0 0 1 0-.81.26.26 0 0 1 .3 0l1.32.23a7 7 0 0 0 1.49.11.73.73 0 0 1 .91.63 24.24 24.24 0 0 1 1.13 4.64 23.91 23.91 0 0 1 .25 2.62c0 .55 0 .55-.54.52a30 30 0 0 1-5.17-.64l-.36-.09a.46.46 0 0 1-.36-.64 26.48 26.48 0 0 0 .64-3.6v-.35c0-.27.06-.32.33-.28a4.7 4.7 0 0 1 .69.26c.22.06.34 0 .3-.25a1.13 1.13 0 0 0-.24-.63.77.77 0 0 1-.17-.21c-.09-.23-.22-.19-.36-.08l-.22.2a.29.29 0 0 1-.13.1m6.1 5.7a25 25 0 0 0-1.4-7.5c-.1-.28-.08-.31.22-.35a4.61 4.61 0 0 0 1.6-.45c.21-.12.28 0 .26.21a.88.88 0 0 0 .26.68.33.33 0 0 1 .09.33 1.61 1.61 0 0 0 .08.81c.01.26.17.26.37.1s.26-.15.31.11.1.23.26.18a.14.14 0 0 1 .2 0 .21.21 0 0 1 0 .21c-.13.3-.12.37.17.53a.87.87 0 0 1 .45.6.32.32 0 0 1-.17.4.52.52 0 0 0-.35.72 5.7 5.7 0 0 0 .43 1.25.57.57 0 0 0 .41.36.16.16 0 0 1 .14.24 6.27 6.27 0 0 0-.1 1.06.88.88 0 0 1-.79.87 9.78 9.78 0 0 1-1.63.24c-.86 0-.84 0-.86-.62m1.33-8.22c0-.08-.08-.19 0-.24a.23.23 0 0 1 .28 0 2.07 2.07 0 0 1 .64 1.47.48.48 0 0 1-.06.1 7.79 7.79 0 0 1-.89-1.35M24.93 24a1.07 1.07 0 0 0 .49-.37c.13-.18.21-.16.31 0a7.7 7.7 0 0 0 1.64 2 7.27 7.27 0 0 1 .53.52.33.33 0 0 1 0 .5c-.28.34-.58.66-.84 1a25.29 25.29 0 0 0-3.22 5.7c-.14.34-.17.36-.43.12A12.73 12.73 0 0 1 21.17 31a2.12 2.12 0 0 1-.17-2.1 18.1 18.1 0 0 1 3-4.69l.22-.27.1-.09a.12.12 0 0 1 .12.09.28.28 0 0 0 .24.15.47.47 0 0 0 .17 0m14.48 1.2c-.13 0-.1-.15-.08-.25a1.15 1.15 0 0 0-.42-1.22.66.66 0 0 1-.17-.21.27.27 0 0 1 .28-.4 3.38 3.38 0 0 1 1.22.49.38.38 0 0 1 .09.37.43.43 0 0 1-.31.52.73.73 0 0 0-.43.52.21.21 0 0 1-.14.19m7.3-.6a4.65 4.65 0 0 0-.83-.14.17.17 0 0 1-.18-.2V24a.79.79 0 0 1 .4-.78.14.14 0 0 1 .23 0 1.27 1.27 0 0 1 .3.48c.07.27.16.54.24.81 0 .12 0 .18-.09.18h-.03M42.59 24l-.49-.16a.12.12 0 0 1-.1-.1c0-.07.07-.05.11-.07s.23-.1.35-.13a.31.31 0 0 0 .24-.28c0-.11 0-.2.17-.18a.18.18 0 0 1 .15.22v.37c0 .27 0 .37-.19.37a.94.94 0 0 1-.24 0m2 .54-.61-.13a.57.57 0 0 1-.53-.68v-.17a14 14 0 0 0 .01-1.6c0-.08 0-.19.1-.19a.17.17 0 0 1 .16.19.35.35 0 0 0 .22.4.17.17 0 0 1 .07.24.85.85 0 0 0 0 .61 3 3 0 0 0 .6 1s.13.08.09.16a.08.08 0 0 1-.08 0h-.1m-3.92-1.83a.25.25 0 0 0 0-.32c-.12-.16-.22-.3.11-.32a.48.48 0 0 0 .29-.3.19.19 0 0 1 .24-.12.2.2 0 0 1 .11.27c-.06.19-.08.33.19.32a.09.09 0 0 1 .1.09.11.11 0 0 1-.09.1l-.34.07a.23.23 0 0 0-.2.16.22.22 0 0 0 .12.23.88.88 0 0 1 .44.47c-.15-.08-.27-.2-.42-.27a.29.29 0 0 0-.43.14.21.21 0 0 1-.32.12l-1-.41c-.18-.07-.21-.18-.06-.32l.18-.17c.05 0 .12-.1.17 0a1 1 0 0 0 .6.31h.13a.21.21 0 0 0 .17-.08m7.88-.33a19 19 0 0 0-1.79-1.66.87.87 0 0 1-.12-.09c-.06-.07-.22-.12-.14-.25a.26.26 0 0 1 .34-.07A3.6 3.6 0 0 1 48 21a10 10 0 0 1 1.32 1.68 1 1 0 0 1 .17.62l-1-1m-1.11 2.2a9.14 9.14 0 0 0-.52-1 1.43 1.43 0 0 1-.14-.9.43.43 0 0 0-.13-.4 1.27 1.27 0 0 1-.38-.68 1.53 1.53 0 0 0-.55-.75 1.45 1.45 0 0 1-.47-.63 3.58 3.58 0 0 1 .83.54A20.37 20.37 0 0 1 49.38 24c.2.25.19.32-.1.43a5.73 5.73 0 0 1-1.51.33h-.05a.35.35 0 0 1-.34-.23m-4.61-2.29a.38.38 0 0 1-.2-.24 1.5 1.5 0 0 0-.56-.9.54.54 0 0 1 .25-1c.1-.05.11 0 .12.09a.57.57 0 0 0 .46.57.29.29 0 0 1 .2.33v1a.18.18 0 0 1-.06.18h-.07a.29.29 0 0 1-.14-.09M28.24 26a1.34 1.34 0 0 1-.63-.43A17.2 17.2 0 0 1 26 23.16a.68.68 0 0 1 .11-.88 5.26 5.26 0 0 1 1.19-.9 24.83 24.83 0 0 1 5.7-2.55.48.48 0 0 1 .72.51 1.09 1.09 0 0 1-.44.69.33.33 0 0 0-.2.33.8.8 0 0 1-.27.46.85.85 0 0 1-.54.45.22.22 0 0 0-.19.21 1.31 1.31 0 0 1-.8 1.05c-.38.28-.79.52-1.15.83a1.34 1.34 0 0 0-.48.84 3.18 3.18 0 0 1-1 1.7.32.32 0 0 1-.23.1h-.16m11.47-6.15a.18.18 0 0 1 .08-.24h.07c.32-.12.36-.24.16-.49a7.57 7.57 0 0 1 1.79-.36.17.17 0 0 1 .2 0c0 .09-.07.11-.13.15a4.93 4.93 0 0 0-.64.42.15.15 0 0 1-.26-.04c-.07-.12-.18-.17-.28-.06s0 .21.08.27a.14.14 0 0 1 .06.22c-.09.11-.13 0-.18-.06a.24.24 0 0 0-.4 0 .57.57 0 0 1-.36.2h-.1a.1.1 0 0 1-.1-.09M37.58 19a.75.75 0 0 0-.41-.35.25.25 0 0 1 .08-.48 9.17 9.17 0 0 1 2.8.13 1.26 1.26 0 0 1 .5.14.23.23 0 0 1-.06.06 14.18 14.18 0 0 1-1.82.38 1.21 1.21 0 0 0-.65.21.34.34 0 0 1-.2.08.3.3 0 0 1-.24-.17m-2.64-2a.26.26 0 0 1 .25.05.09.09 0 0 1 0 .13c-.09.08-.17.24-.3.17a1.45 1.45 0 0 0-.79-.06.78.78 0 0 1 .59-.29h.25m.9.25a1.21 1.21 0 0 1 1-.28 22.09 22.09 0 0 1 3.49.68.17.17 0 0 1 .14.09.26.26 0 0 1-.23 0 15.38 15.38 0 0 0-1.92-.05h-.8a.58.58 0 0 1-.52-.15.88.88 0 0 0-.86-.29.9.9 0 0 1-.21 0h-.14m2.08-.6a3.75 3.75 0 0 1 2.4.49c-.8-.17-1.6-.31-2.4-.49m-2.37-.45a3.61 3.61 0 0 0-.83.17 10.73 10.73 0 0 1-2.13.51 13.91 13.91 0 0 0-4.79 2 .86.86 0 0 0-.38.37 2.81 2.81 0 0 0 .84-.32 20.9 20.9 0 0 1 2.62-1.17 16.46 16.46 0 0 1 2.58-.58c.2 0 .24 0 .16.21a1.81 1.81 0 0 1-.39.44.73.73 0 0 1-.74.19c-.05 0-.1-.08-.15 0a.12.12 0 0 0 0 .16.58.58 0 0 0 .09.12c.19.15.09.22-.08.27a20.9 20.9 0 0 0-5.2 2.68l-1.24.89c-.19.13-.26.09-.27-.14a1.89 1.89 0 0 1 .41-1.47 3.06 3.06 0 0 0 .26-.39c0-.05.08-.13 0-.18a.14.14 0 0 0-.16 0 2 2 0 0 0-.94 1.86 1.4 1.4 0 0 1 0 .69 2.39 2.39 0 0 1-.89 1.11 6.6 6.6 0 0 0-.69.57 12.47 12.47 0 0 0-2.2 3l-.63 1.2a.11.11 0 0 1-.09-.11c0-.15 0-.33-.22-.33a.31.31 0 0 0-.26.32 3.18 3.18 0 0 0-.08 1.33 1 1 0 0 1 0 .47 15.88 15.88 0 0 0-.73 3.66 14.63 14.63 0 0 0 .12 3.33 7.64 7.64 0 0 0 .89 2.68 9.54 9.54 0 0 0 1.76 2.07 2.25 2.25 0 0 1 .67 1.2 9.19 9.19 0 0 0 3.19 5.2 14.92 14.92 0 0 0 5.48 2.94 18.39 18.39 0 0 0 4.46.78 3.6 3.6 0 0 0 .69-.06.1.1 0 0 0 .11-.08c0-.06-.06-.07-.11-.08l-.56-.11-1.6-.26c-.22 0-.24-.1-.09-.27l.62-.68a1.22 1.22 0 0 1 .66-.39 2.54 2.54 0 0 1 1.34-.38.3.3 0 0 0 .17 0l.65-.26a.51.51 0 0 1 .41-.07.62.62 0 0 0 .41 0 1.07 1.07 0 0 1 .42 0c.9.13 1.81.27 2.72.33.23 0 .46.05.7 0a.12.12 0 0 1 .14.07.14.14 0 0 1-.08.12l-.1.08A9.82 9.82 0 0 1 39 51.45l-.73.16c-.08 0-.18 0-.17.15a.17.17 0 0 0 .2.11h.12A8.56 8.56 0 0 0 42.89 50a1.66 1.66 0 0 1 .85-.38 15.73 15.73 0 0 0 1.66-.14 5.36 5.36 0 0 0 1.72-.65c.08-.05.22-.11.17-.21s-.18 0-.27 0l-.83.26a9.56 9.56 0 0 1-1.94.32.23.23 0 0 1-.25-.06c-.05-.11.07-.15.12-.22.2-.23.41-.46.61-.69a17.67 17.67 0 0 0 2.8-4.84c.18-.45.18-.45.65-.45a9.34 9.34 0 0 0 4.05-.81.15.15 0 0 1 .18 0 .17.17 0 0 1 0 .19.74.74 0 0 1-.05.11 17.91 17.91 0 0 1-2.08 3.43c-.1.13-.18.26-.27.39a.13.13 0 0 0 .12 0A10.07 10.07 0 0 0 52 43.9c.57-.9.84-2 1.49-2.82a.41.41 0 0 0 .1-.08v-.16c0-.03-.11-.22-.08-.34a1.12 1.12 0 0 1 .49-.92.15.15 0 0 0 0-.08 12.25 12.25 0 0 0 .6-1.5 16.72 16.72 0 0 0 .4-2.68 19.08 19.08 0 0 0-.17-4.25.35.35 0 0 0-.3-.34.38.38 0 0 1-.34-.42 1.53 1.53 0 0 0 0-.3.24.24 0 0 0-.19-.18.23.23 0 0 0-.23.12 2.83 2.83 0 0 1-.2.26c-.15.16-.22.15-.29-.06a6.71 6.71 0 0 1-.28-1.31 1.4 1.4 0 0 1 0-.52.12.12 0 0 1 .1-.1s.08 0 .08 0c-.08.27.08.23.25.2a.26.26 0 0 1 .14.1c.18.18.33.08.47-.06a.26.26 0 0 0 0-.43.54.54 0 0 1-.13-.24c-.09-.25-.17-.5-.28-.75a19 19 0 0 0-2.88-4.68 9.66 9.66 0 0 0-2.36-2.23.18.18 0 0 0-.18-.06c-.07 0 0 .1 0 .16 0 .27 0 .28-.26.16a1.46 1.46 0 0 1-.22-.12 11.32 11.32 0 0 0-2-1.19.18.18 0 0 1 0-.05.24.24 0 0 1 .22 0 5.4 5.4 0 0 1 1.19.5 1.52 1.52 0 0 0 .4.2.13.13 0 1 0 .14-.23 2.13 2.13 0 0 0-1-.56.48.48 0 0 1-.25-.1.85.85 0 0 0-.65-.32l-1.22-.24a1.71 1.71 0 0 1-.66-.12 1.46 1.46 0 0 1 .72-.07c.11 0 .24 0 .28-.09s-.08-.18-.17-.24l-.18-.09-1.55-.51a.4.4 0 0 0-.29 0 .32.32 0 0 1-.36-.08 1.42 1.42 0 0 0-.79-.33.15.15 0 0 0-.19.08.16.16 0 0 0 .12.15 1.72 1.72 0 0 1 .51.44c-.31-.15-.6-.31-.9-.48a.59.59 0 0 0-.26-.22.74.74 0 0 1-.58-.28.45.45 0 0 0-.28-.1l-1-.13H35.5Z" style="fill:none"/></clipPath><radialGradient id="c" cx="-2.52" cy="-7.57" r=".13" gradientTransform="matrix(140.71 0 0 -140.71 386.93 -1027.28)" gradientUnits="userSpaceOnUse"><stop offset="0" stop-color="#b6e0f8"/><stop offset="1" stop-color="#06478c"/></radialGradient><radialGradient id="e" cx="-2.36" cy="-7.8" r=".13" gradientTransform="matrix(138.45 0 0 -138.45 354.93 -1045.92)" gradientUnits="userSpaceOnUse"><stop offset="0" stop-color="#fff"/><stop offset="1" stop-color="#6bc7f0"/></radialGradient><path id="f" style="fill:none" d="m62.126 21.941 4.98 24.298"/><path id="g" d="M60.464 27.826q13.252-6.665 26.504 0"/></defs><path class="b" style="fill:#2d388b" transform="translate(84.294 151.47)" d="M74.32 6.08h2.86v28.57h-2.86z"/><path class="c" style="fill:#feca08" transform="translate(84.294 151.47)" d="M74.32 34.65h2.86v28.57h-2.86z"/><path class="d" style="fill:none;stroke:#706f6f;stroke-miterlimit:10" transform="translate(84.294 151.47)" d="M87.83 53.66H260"/><text class="e" transform="translate(172.124 214.69)" style="white-space:pre;fill:#706f6f;font-family:FuturaLightC;font-size:6.93px;line-height:11.088px;perspective-origin:30.5312px 0">KYIV MEDICAL COLEGE</text><g class="f" style="clip-path:url(#a)" transform="translate(84.294 151.47)"><g class="f" style="clip-path:url(#a)"><path class="g" d="M69 34.63A31.8 31.8 0 1 1 37.2 2.82 31.8 31.8 0 0 1 69 34.63" style="fill:#fff"/><circle class="h" cx="37.2" cy="34.63" r="31.8" style="fill:none;stroke:#1d1d1b;stroke-miterlimit:10"/></g><g class="i" style="clip-path:url(#b)"><path class="j" style="fill:url(#c)" d="M19.04 15.91h36.31v36.31H19.04z"/></g><g class="k" style="clip-path:url(#d)"><path class="l" style="fill:url(#e)" d="M19.3 16.2h35.8v35.74H19.3z"/></g><g class="f" style="clip-path:url(#a)"><path class="m" d="M39 41.39c.11.15.26.26.36.42s.08.35-.17.35h-4.13a.34.34 0 0 1-.33-.16.32.32 0 0 1 .13-.35.9.9 0 0 0 .22-.27.22.22 0 0 0-.18 0H22.73c-.17 0-.24 0-.19-.22.59-2.36 1.16-4.71 1.73-7.07.47-1.92.94-3.85 1.4-5.77a.46.46 0 0 1 .27-.32 2 2 0 0 0 .7-.73 4.3 4.3 0 0 0 .43-1 .15.15 0 0 1 .23-.08c.2.07.22 0 .24-.19a2.19 2.19 0 0 1 .1-.47 7.7 7.7 0 0 0 1.54.66 4.76 4.76 0 0 0 1.33.22 10 10 0 0 0 1.72-.13 10.34 10.34 0 0 1 2.4-.23 3 3 0 0 1 2.29 1.28c.26.35.27.35.56 0a7.42 7.42 0 0 1 1.39-1.27 2.69 2.69 0 0 1 1.35-.45A5 5 0 0 1 42 26a7.35 7.35 0 0 0 2.75.29 8.37 8.37 0 0 0 2-.45c.13 0 .18 0 .23.12a6.17 6.17 0 0 0 1 2 .58.58 0 0 0 .25.22.39.39 0 0 1 .26.33q.74 2.8 1.49 5.59l1.89 7.09c0 .16 0 .22-.16.22h-12.5a.23.23 0 0 0-.17 0" style="fill:#fff17b"/><path class="n" d="M39 41.39c.11.15.26.26.36.42s.08.35-.17.35h-4.13a.34.34 0 0 1-.33-.16.32.32 0 0 1 .13-.35.9.9 0 0 0 .22-.27.22.22 0 0 0-.18 0H22.73c-.17 0-.24 0-.19-.22.59-2.36 1.16-4.71 1.73-7.07.47-1.92.94-3.85 1.4-5.77a.46.46 0 0 1 .27-.32 2 2 0 0 0 .7-.73 4.3 4.3 0 0 0 .43-1 .15.15 0 0 1 .23-.08c.2.07.22 0 .24-.19a2.19 2.19 0 0 1 .1-.47 7.7 7.7 0 0 0 1.54.66 4.76 4.76 0 0 0 1.33.22 10 10 0 0 0 1.72-.13 10.34 10.34 0 0 1 2.4-.23 3 3 0 0 1 2.29 1.28c.26.35.27.35.56 0a7.42 7.42 0 0 1 1.39-1.27 2.69 2.69 0 0 1 1.35-.45A5 5 0 0 1 42 26a7.36 7.36 0 0 0 2.75.29 8.37 8.37 0 0 0 2-.45c.13 0 .18 0 .23.12a6.17 6.17 0 0 0 1 2 .58.58 0 0 0 .25.22.39.39 0 0 1 .26.33q.74 2.8 1.49 5.59l1.89 7.09c0 .16 0 .22-.16.22h-12.5a.23.23 0 0 0-.17 0m8.14-14.23v-.06a.08.08 0 0 0 0 .09l.71 3.68.72 3.76c.19 1 .38 2 .59 3.06a2.39 2.39 0 0 0 .35 1.13c.29.36.55.76.85 1.12a4.12 4.12 0 0 0 1 .93v-.2l-1.45-5.46-1.58-5.9a2.63 2.63 0 0 0-.23-.76c-.3-.46-.61-.92-.91-1.39m-10 9.91v1.92c0 .04.11-.06.15-.11a5.26 5.26 0 0 1 2.22-1.47 5.94 5.94 0 0 1 2.82-.16c.73.12 1.44.33 2.16.52s1.34.45 2 .61a7.34 7.34 0 0 0 1.26.24 2.68 2.68 0 0 0 1.15-.1.15.15 0 0 0 .11-.2c-.21-1.06-.41-2.12-.61-3.18l-.66-3.5-.5-2.66-.49-2.58c0-.12-.06-.17-.19-.11a5.52 5.52 0 0 1-.95.29 6.51 6.51 0 0 1-2.31.12 12.17 12.17 0 0 1-2.45-.5 2.13 2.13 0 0 0-.61-.09 2.55 2.55 0 0 0-1.58.61 9.62 9.62 0 0 0-1.48 1.47.26.26 0 0 0-.06.26.8.8 0 0 1 0 .24v8.41M37 38.84V28.72a2.16 2.16 0 0 1 0-.29.66.66 0 0 0 0-.43 3 3 0 0 0-2.61-1.52 21.16 21.16 0 0 0-2.79.26 7.38 7.38 0 0 1-2 0 4.26 4.26 0 0 1-1.63-.6c-.11-.07-.14-.06-.15.08-.15 1-.38 2.09-.45 3.15a6.54 6.54 0 0 0 .34 2.86 2.2 2.2 0 0 0 .93 1.14 3 3 0 0 0 1.86.48.22.22 0 0 1 .28.23 5.21 5.21 0 0 0 .49 1.69 2.29 2.29 0 0 0 1.06 1 7 7 0 0 0 1.58.44 5.24 5.24 0 0 1 2.4 1.05c.23.19.43.42.71.63m10.39 2h3.22a.28.28 0 0 0 .26 0c0-.1-.13-.08-.16-.16a11.6 11.6 0 0 1-1-1.16.23.23 0 0 0-.32-.08 3.2 3.2 0 0 1-1.54.29 9.86 9.86 0 0 1-1.93-.39 21.58 21.58 0 0 0-2.94-.76 6.45 6.45 0 0 0-3.23.3 10.9 10.9 0 0 0-1.39.75 4.57 4.57 0 0 0-.7.6c-.15.13-.14.2 0 .3a2.38 2.38 0 0 1 .57.44c.11.11.15.12.25 0a2.9 2.9 0 0 1 1.5-.83 5.4 5.4 0 0 1 2.47-.07 2.39 2.39 0 0 1 1.32.62.4.4 0 0 0 .32.12h3.29m-10.69-.49c.32 0 .37-.06.32-.3v-.1a2.42 2.42 0 0 0-1.47-1.9 4.47 4.47 0 0 0-2-.36 7.47 7.47 0 0 0-1.1.13c-.37.06-.73.11-1.1.19a22.23 22.23 0 0 0-2.19.78A4.51 4.51 0 0 1 27 39a10.29 10.29 0 0 1-1.88-.56.22.22 0 0 0-.33.09 7.86 7.86 0 0 1-.46.71c-.11.15-.08.22.09.26l1.1.25a12.91 12.91 0 0 0 3.53.39 5 5 0 0 0 1.79-.31 12.58 12.58 0 0 1 1.53-.55 4.54 4.54 0 0 1 2.7 0 3.47 3.47 0 0 1 1.41.9.66.66 0 0 0 .25.22m-9.66-10.23v.11c-.18.94-.36 1.88-.54 2.81s-.33 1.68-.5 2.51a1.28 1.28 0 0 0-.08.55 2 2 0 0 0 1.31 1.41 5.08 5.08 0 0 0 2.38.06 15.3 15.3 0 0 0 1.67-.4c.27-.07.54-.12.81-.18a12.64 12.64 0 0 1-1.87-.52 4.55 4.55 0 0 1-2.29-1.88 6.33 6.33 0 0 1-.82-2.83v-1.64m-3.9 9.9a.44.44 0 0 0 .25-.17 10.07 10.07 0 0 0 1.11-1.42 1.68 1.68 0 0 0 .24-.61l1-5.23c.29-1.44.57-2.88.85-4.32a1.39 1.39 0 0 0 .06-.67 2.77 2.77 0 0 1-.67.76.25.25 0 0 0 0 .13l-.66 2.71-1.68 6.82-.49 2m10.68-2.65a7 7 0 0 0-.93-.21 1.85 1.85 0 0 0-.85 0c-.67.21-1.34.39-2 .57a6.38 6.38 0 0 1-2.25.22 2.34 2.34 0 0 1-2-1.3 1.12 1.12 0 0 1-.19-.77c.17-.78.31-1.57.46-2.35l.71-3.68c.21-1.08.41-2.16.63-3.23 0-.18-.06-.18-.16-.21s-.11.1-.13.17c-.16.8-.31 1.6-.46 2.4l-.84 4.35-.71 3.67A9 9 0 0 0 25 38a.18.18 0 0 0 .13.21 4.14 4.14 0 0 1 .72.28 4.52 4.52 0 0 0 2.65.25 17.57 17.57 0 0 0 2.1-.74 9.36 9.36 0 0 1 2.21-.52 8.62 8.62 0 0 0 1-.08M23 40.74v.06h8.36a.6.6 0 0 0 .27-.08 4.06 4.06 0 0 1 2-.45 2.75 2.75 0 0 1 2 .74.11.11 0 0 0 .16 0l.68-.49c.08-.06.09-.13 0-.19a6.91 6.91 0 0 0-1.47-.67 4 4 0 0 0-2.43 0 14.8 14.8 0 0 1-3.33.81 10.73 10.73 0 0 1-2.61-.12 24.06 24.06 0 0 1-2.42-.6.19.19 0 0 0-.22 0 8.83 8.83 0 0 1-1 1m18.41-3.27a5.08 5.08 0 0 0-.82 0 4.26 4.26 0 0 0-1.86.6 4.84 4.84 0 0 0-1.35 1.24.29.29 0 0 0-.07.2v.66a.12.12 0 0 0 .11-.07 9.44 9.44 0 0 1 1.21-1 6.34 6.34 0 0 1 2.22-.9 8 8 0 0 1 3.62.31 23 23 0 0 0 2.91.78 3.09 3.09 0 0 0 1.7-.11c.32-.14.32-.13.14-.44a.18.18 0 0 0-.21.02 1.73 1.73 0 0 1-.4.13 4 4 0 0 1-1.51-.11c-1-.21-2-.58-2.93-.86a12.8 12.8 0 0 0-2.77-.45m-13.9-4.94A4.33 4.33 0 0 0 29 35.43a5.19 5.19 0 0 0 2.56 1.18l-.07-.1a3.43 3.43 0 0 1-1-2.17.19.19 0 0 0-.24-.22 3.12 3.12 0 0 1-2.54-1.19c-.1-.12-.18-.26-.27-.4" style="fill:#192325"/><path class="g" d="m33.46 37.38.24-.54a.47.47 0 0 1 .3-.26l.23-.12 1.51-.76h-.26a4.06 4.06 0 0 1-1.57-.26 2.13 2.13 0 0 1-.78-.44 1 1 0 0 1-.28-.63 1.44 1.44 0 0 1 .69-1.37 4.26 4.26 0 0 1 .78-.4 9.69 9.69 0 0 1 1.42-.5h.18l-.25-1.35a5.25 5.25 0 0 1-1.74-.7 3.19 3.19 0 0 1-1.2-1.29 2.6 2.6 0 0 1-.25-1 .47.47 0 0 1 .12-.37.48.48 0 0 1 .4-.2h4v-.07h-.21a.46.46 0 0 1-.46-.12.6.6 0 0 1-.13-.48.45.45 0 0 1 .32-.42.51.51 0 0 0 .19-.1 9.48 9.48 0 0 0 .79-.9l.08-.1a.53.53 0 0 1 .42-.2h.41c.35-.06.69-.15 1-.24l.59-.2a4 4 0 0 1 .9-.1h.2a4.45 4.45 0 0 1 2.56.92 3.74 3.74 0 0 1 1.2 1.55 3.59 3.59 0 0 1 .25 1.11 5.27 5.27 0 0 1 0 .72 3.09 3.09 0 0 1-.38 1.44l-.11.18a4.92 4.92 0 0 1-.38.59 4.42 4.42 0 0 1-1.09 1 8.74 8.74 0 0 1-2.81 1.2c-.48.11-.92.2-1.32.26l-.71.1-.15.78c.23 0 .47-.09.71-.11a5.44 5.44 0 0 1 .62 0 2.59 2.59 0 0 1 .67.08 1.9 1.9 0 0 1 .76.39 1 1 0 0 1 .34.7 1.11 1.11 0 0 1-.23.83 1.32 1.32 0 0 1-.41.35 1.08 1.08 0 0 0-.28.22l.21.1a.52.52 0 0 1 .21.16l.47.62h-7.77Zm5.43-1.6.44.22.1-.21a.79.79 0 0 0 .1-.29.36.36 0 0 0-.17-.1h-.52l-.41.06h-.16l.62.3m-2.69-2.24a5.54 5.54 0 0 0-1.07.35h-.1a.73.73 0 0 0-.24.14.32.32 0 0 0 .15.09 5.1 5.1 0 0 0 1.28.18h.13l-.15-.8m2.64-2.85-.17.9c.26 0 .52-.1.76-.16a9.53 9.53 0 0 0 2.45-1 2.78 2.78 0 0 0 .84-.75 2 2 0 0 0 .38-.85 1.57 1.57 0 0 0 0-.21v-.17a2.35 2.35 0 0 0-.2-1.08 1.79 1.79 0 0 0-.59-.8 2.89 2.89 0 0 0-1.1-.51 1.57 1.57 0 0 0-.36 0h-.3a4 4 0 0 0-.81.15 3 3 0 0 0-.9.48l-.07.05c-.26.19-.52.38-.81.54h3.55a.48.48 0 0 1 .36.14.48.48 0 0 1 .13.36 2.45 2.45 0 0 1-.51 1.43 3.68 3.68 0 0 1-1.43 1.11 5.75 5.75 0 0 1-1.23.41" style="fill:#fff"/><path class="o" d="m37.82 26.3-.3.15a6.32 6.32 0 0 1-.67.3c-.22 0-.23 0-.22-.2a.07.07 0 0 1 .06-.06.88.88 0 0 0 .31-.21 9.76 9.76 0 0 0 .82-.93l.1-.12a.15.15 0 0 1 .15-.06 1.64 1.64 0 0 0 .45 0c.55-.1 1.09-.26 1.63-.39a3.62 3.62 0 0 1 1-.09 4.05 4.05 0 0 1 2.34.84 3.34 3.34 0 0 1 1.08 1.39 3.21 3.21 0 0 1 .22 1 4.89 4.89 0 0 1 0 .67 2.7 2.7 0 0 1-.37 1.25 6.87 6.87 0 0 1-.46.73 4 4 0 0 1-1 .89 8.31 8.31 0 0 1-2.68 1.14c-.43.1-.86.19-1.29.26s-.57.09-.86.12A.12.12 0 0 0 38 33c-.08.44-.17.88-.25 1.33v.08c0 .13 0 .13.11.11.37-.07.73-.15 1.1-.19a3.06 3.06 0 0 1 1.14 0 1.52 1.52 0 0 1 .61.31.59.59 0 0 1 .21.43.73.73 0 0 1-.14.55 1 1 0 0 1-.29.25 1.68 1.68 0 0 0-.48.4l-.19.23c-.06.06 0 .08 0 .11l.57.28a.16.16 0 0 1 .07.05H34a.12.12 0 0 1 .08-.05l2.75-1.38a.1.1 0 0 0 .07-.14c0-.15 0-.16-.19-.15-.37 0-.73 0-1.1.05a3.91 3.91 0 0 1-1.6-.23 1.78 1.78 0 0 1-.65-.39.65.65 0 0 1-.17-.4 1.06 1.06 0 0 1 .52-1 3.92 3.92 0 0 1 .71-.37 9.27 9.27 0 0 1 1.36-.48l.46-.11c.06 0 .07 0 .06-.1q-.17-.9-.33-1.79a.13.13 0 0 0-.12-.12 5 5 0 0 1-1.76-.67 2.83 2.83 0 0 1-1.06-1.13 2.2 2.2 0 0 1-.21-.83c0-.08 0-.1.1-.1h8.56c.08 0 .1 0 .1.1a2.06 2.06 0 0 1-.44 1.21 3.32 3.32 0 0 1-1.29 1 5.4 5.4 0 0 1-1.32.41.11.11 0 0 0-.1.1c-.09.49-.19 1-.28 1.47 0 .12 0 .12.1.11a9.38 9.38 0 0 0 1.21-.23 10 10 0 0 0 2.55-1 3.15 3.15 0 0 0 1-.85 2.43 2.43 0 0 0 .45-1v-.41a2.74 2.74 0 0 0-.23-1.26 2.17 2.17 0 0 0-.72-1 3.31 3.31 0 0 0-1.27-.65 2.53 2.53 0 0 0-.77 0 4.42 4.42 0 0 0-.88.17 3.33 3.33 0 0 0-1 .53c-.28.2-.56.41-.86.58l-.19.17h-.07c-.05 0-.12.07-.16 0s0-.09.07-.12a1.63 1.63 0 0 0 .44-.67m-1.57 8.42h.49c.16 0 .06 0 .05-.06-.06-.3-.11-.59-.17-.89s-.07-.38-.1-.57 0-.1-.11-.08h-.21a6.12 6.12 0 0 0-1.24.4 1.29 1.29 0 0 0-.47.28.39.39 0 0 0 0 .53.74.74 0 0 0 .33.19 5.43 5.43 0 0 0 1.41.19m3.66.79a.3.3 0 0 0-.06-.22.81.81 0 0 0-.4-.19 2.08 2.08 0 0 0-.63 0l-.62.09-.54.08a.09.09 0 0 0-.09.09.56.56 0 0 1 0 .17.09.09 0 0 0 .06.13l1.14.56.79.4h.07a.41.41 0 0 1 0-.18c0-.12.1-.23.15-.34a1.11 1.11 0 0 0 .14-.46" style="fill:#009a4d"/><path class="o" d="M56.4 24.78a18.68 18.68 0 0 0-1-1.84l-.42-.65a.12.12 0 0 0-.18 0 4.86 4.86 0 0 1-2.37.43 2.26 2.26 0 0 1-.84-.24 3.87 3.87 0 0 1-1.11-.82c-.05-.05-.08-.09 0-.14a4.55 4.55 0 0 1 2-.58 2.46 2.46 0 0 1 1.25.36c.29.16.55.36.82.54a16.56 16.56 0 0 0-1.67-2l-.36-.36a.14.14 0 0 0-.22 0 4.61 4.61 0 0 1-2.25.81 2.73 2.73 0 0 1-1.49-.36 4.08 4.08 0 0 1-.56-.39c-.06 0-.09-.08 0-.14a4.27 4.27 0 0 1 2-.9 2.56 2.56 0 0 1 1.37.22L52 19a19.93 19.93 0 0 0-1.65-1.37l-.76-.56a.12.12 0 0 0-.2 0 4.43 4.43 0 0 1-2.08 1.16 2.72 2.72 0 0 1-1.51-.13 3.84 3.84 0 0 1-.54-.23c-.06 0-.09-.06 0-.12a3.84 3.84 0 0 1 2-1.26 2.69 2.69 0 0 1 1.11 0c.26.05.51.13.77.2-.42-.3-.88-.56-1.33-.82s-.89-.48-1.34-.7a.14.14 0 0 0-.21.05 4.34 4.34 0 0 1-1.71 1.44 2.58 2.58 0 0 1-1.48.18 4.07 4.07 0 0 1-.68-.14c-.06 0-.1 0-.05-.11a4 4 0 0 1 1.44-1.44 2.53 2.53 0 0 1 1.36-.15 7.76 7.76 0 0 1 .89.09.1.1 0 0 0-.09-.09c-.56-.25-1.13-.47-1.7-.67a.3.3 0 0 0-.24 0 2.32 2.32 0 0 1-1.48.21 3.33 3.33 0 0 1-1.67-1s-.08-.08 0-.11a4.25 4.25 0 0 1 1.52-.28 2 2 0 0 1 1.09.46 3.55 3.55 0 0 1 .55.5.27.27 0 0 0 .13.09c.43.13.85.28 1.27.43l-.41-.35a2.38 2.38 0 0 1-1-2.14 5.06 5.06 0 0 1 .12-.92.22.22 0 0 0 0-.12h.13c0 .06 0 .06.08.08a4.19 4.19 0 0 1 .52.32 2.45 2.45 0 0 1 1 1.22 4.22 4.22 0 0 1 .16 2 .15.15 0 0 0 .11.19l.88.42c.58.27 1.13.58 1.69.9-.14-.17-.3-.33-.43-.51a2.18 2.18 0 0 1-.47-.91 3.68 3.68 0 0 1 .33-2.19c0-.07.07-.06.13 0a3.5 3.5 0 0 1 .41.34 2.55 2.55 0 0 1 .85 1.41 4.21 4.21 0 0 1-.18 2.16.15.15 0 0 0 .08.21c.59.38 1.16.79 1.72 1.22l.56.44c-.08-.15-.17-.29-.25-.44a2.37 2.37 0 0 1-.34-1 3.76 3.76 0 0 1 .73-2.15c.05-.08.09 0 .14 0a3.48 3.48 0 0 1 .84 1.19 2.05 2.05 0 0 1 .12.78 4.45 4.45 0 0 1-.55 2 .15.15 0 0 0 0 .22c.33.28.64.58.95.89s.59.64.88 1l-.08-.24a2.42 2.42 0 0 1-.13-1.27 3.93 3.93 0 0 1 1.12-2c.05-.06.09-.05.13 0a4.06 4.06 0 0 1 .42.8 2.39 2.39 0 0 1 .18 1.28 4.44 4.44 0 0 1-.85 2.07.15.15 0 0 0 0 .22q.53.71 1 1.47l.43.78c0-.11 0-.22-.05-.32a2.5 2.5 0 0 1 .1-1.34 4.26 4.26 0 0 1 1.52-1.7c.07-.05.09 0 .12 0a3.84 3.84 0 0 1 .23.66 2.58 2.58 0 0 1 0 1.65A4.67 4.67 0 0 1 57 24.81a.14.14 0 0 0 0 .21 20.91 20.91 0 0 1 .93 2.2l.07.33a2.7 2.7 0 0 0 0-.4 2.49 2.49 0 0 1 .35-1.34 4.43 4.43 0 0 1 1.78-1.46c.08 0 .1 0 .12.07a3.87 3.87 0 0 1 .11.73 2.61 2.61 0 0 1-.36 1.59 4.83 4.83 0 0 1-1.66 1.62.14.14 0 0 0-.08.19c.17.58.32 1.17.43 1.76l.15.78a1.24 1.24 0 0 0 .07-.25 2.59 2.59 0 0 1 .68-1.39 4.74 4.74 0 0 1 2-1.08c.1 0 .11 0 .11.1a4 4 0 0 1 0 .73 2.72 2.72 0 0 1-.7 1.6 5.08 5.08 0 0 1-1.88 1.29.16.16 0 0 0-.12.19 17.89 17.89 0 0 1 .1 2.32.14.14 0 0 0 0 .12l.13-.29A2.56 2.56 0 0 1 60.62 33a5.6 5.6 0 0 1 1.79-.47v.37c-.05 0 0 .05-.05.08s0 .21-.08.32a2.86 2.86 0 0 1-1 1.57 5.23 5.23 0 0 1-2.14 1A.15.15 0 0 0 59 36a19 19 0 0 1-.35 2.32l.08-.11a3.67 3.67 0 0 1 .59-.74 3.13 3.13 0 0 1 1.6-.69 7.18 7.18 0 0 1 1.43-.07v.12a.1.1 0 0 0-.07.1 4.39 4.39 0 0 1-.31.71 2.86 2.86 0 0 1-1.19 1.24 5.44 5.44 0 0 1-2.29.61.17.17 0 0 0-.2.14 16.9 16.9 0 0 1-.66 2.06.16.16 0 0 0 0 .13l.08-.09a2.89 2.89 0 0 1 1.29-.85 5.07 5.07 0 0 1 2.51 0c.09 0 .07.06 0 .12a4.34 4.34 0 0 1-.45.71 3 3 0 0 1-1.47 1.09 5.67 5.67 0 0 1-2.41.22.15.15 0 0 0-.18.1c-.11.23-.23.47-.36.7-.24.45-.51.89-.77 1.33l.39-.15a2.74 2.74 0 0 1 1.32-.54 5.2 5.2 0 0 1 2.49.43c.08 0 .07.06 0 .12a4.56 4.56 0 0 1-.72.76 3 3 0 0 1-1.47.72 5.76 5.76 0 0 1-2.56-.18.14.14 0 0 0-.19 0 23.48 23.48 0 0 1-1.53 1.86l.19-.09a3.19 3.19 0 0 1 1.32-.4 4.89 4.89 0 0 1 2.7.86c.06 0 .06.07 0 .12a5.48 5.48 0 0 1-.43.36 3.44 3.44 0 0 1-2.67.72 6.38 6.38 0 0 1-1.95-.59.13.13 0 0 0-.18 0 23.6 23.6 0 0 1-1.83 1.59l.4-.12a3 3 0 0 1 1.49-.09A5.27 5.27 0 0 1 55 51.84c.07.06 0 .09 0 .13a4.86 4.86 0 0 1-1.05.52 3.13 3.13 0 0 1-1.6.18 5.81 5.81 0 0 1-2.48-1.07.15.15 0 0 0-.21 0c-.58.4-1.18.77-1.8 1.12 0 0-.08 0-.07.07a.46.46 0 0 0 .19 0 3 3 0 0 1 1.9.31 5.77 5.77 0 0 1 1.74 1.53c.05.07 0 .09 0 .12a5.07 5.07 0 0 1-1 .3 3.36 3.36 0 0 1-2-.09 5.9 5.9 0 0 1-2.14-1.42.16.16 0 0 0-.22 0 18.07 18.07 0 0 1-1.87.73.44.44 0 0 0-.17.07.56.56 0 0 0 .24 0 3 3 0 0 1 2 .76 5.91 5.91 0 0 1 1.29 1.67c.07.12.06.13-.08.17a5.32 5.32 0 0 1-1.15.14 3.28 3.28 0 0 1-1.71-.39 5.85 5.85 0 0 1-2-1.88.18.18 0 0 0-.21-.09 20.09 20.09 0 0 0-4.24 1.25.14.14 0 0 0-.11.08l.12.07c.29.15.58.31.86.48a10.87 10.87 0 0 1 2 1.51c.07.07.08.11 0 .18l-.57.49a.12.12 0 0 0-.08.11h-.1a.49.49 0 0 0-.18-.22 12.91 12.91 0 0 0-3-2.13.15.15 0 0 0-.16 0l-.71.4a12.07 12.07 0 0 0-2.23 1.65.79.79 0 0 0-.25.29h-.11a.19.19 0 0 0 0-.05l-.64-.55c-.08-.07-.07-.11 0-.17s.34-.32.52-.46a13.84 13.84 0 0 1 2.39-1.55.11.11 0 0 0 .05-.1s-.05 0-.08-.06a19.93 19.93 0 0 0-4.28-1.26.15.15 0 0 0-.18.08 5.58 5.58 0 0 1-1.19 1.33 4.08 4.08 0 0 1-1.31.79 4.51 4.51 0 0 1-2.4 0c-.1 0-.09-.07-.06-.14a6.58 6.58 0 0 1 .85-1.24A3.21 3.21 0 0 1 30 54.31a.12.12 0 0 0 .11 0 18 18 0 0 1-2-.79.12.12 0 0 0-.16 0 5.56 5.56 0 0 1-1.14.92 4.56 4.56 0 0 1-1.45.64 4.23 4.23 0 0 1-2.5-.34c-.1 0 0-.09 0-.14a6.54 6.54 0 0 1 .93-1 3.25 3.25 0 0 1 2.77-.84.14.14 0 0 0 .13 0l-.07-.05c-.63-.35-1.24-.72-1.82-1.13a.13.13 0 0 0-.19 0 5.48 5.48 0 0 1-1.31.74 4.4 4.4 0 0 1-1.54.37A4.13 4.13 0 0 1 19.4 52c-.09-.06 0-.09 0-.14a5.84 5.84 0 0 1 1.6-1.09 2.87 2.87 0 0 1 1.64-.23 9.26 9.26 0 0 1 .9.23 23.43 23.43 0 0 1-1.83-1.58.13.13 0 0 0-.17 0 5.34 5.34 0 0 1-1.22.46 4.79 4.79 0 0 1-1.62.17 3.87 3.87 0 0 1-2.21-1.09c-.08-.08 0-.11 0-.15a6 6 0 0 1 1.68-.73 2.89 2.89 0 0 1 2.06.18l.44.21a23.83 23.83 0 0 1-1.53-1.86.13.13 0 0 0-.17 0 5.47 5.47 0 0 1-1.56.25 3.88 3.88 0 0 1-1.58-.23A4.06 4.06 0 0 1 14.3 45c-.06-.08 0-.1 0-.13a5.8 5.8 0 0 1 1.74-.43 2.89 2.89 0 0 1 1.47.21 5.06 5.06 0 0 1 .87.55 22.4 22.4 0 0 1-1.15-2.07.1.1 0 0 0-.07-.13 5.42 5.42 0 0 1-1.54 0 3.76 3.76 0 0 1-1.49-.48A3.93 3.93 0 0 1 12.8 41c-.05-.1 0-.11.08-.12a6.56 6.56 0 0 1 1.12-.16 3 3 0 0 1 2.59 1 .1.1 0 0 0 .08.05.1.1 0 0 0 0-.09 17.45 17.45 0 0 1-.67-2.02.15.15 0 0 0-.18-.12 5 5 0 0 1-1.43-.25 3.73 3.73 0 0 1-1.36-.69 3.68 3.68 0 0 1-1-1.58.13.13 0 0 0-.03-.15v-.12h.2a5.81 5.81 0 0 1 1.46.13 2.75 2.75 0 0 1 1.57.86c.17.2.31.42.45.63a18.64 18.64 0 0 1-.32-2.37.15.15 0 0 0-.14-.17 5.28 5.28 0 0 1-1.73-.7 2.82 2.82 0 0 1-1.08-1.11A4.22 4.22 0 0 1 12 33s0-.09-.06-.11v-.33a5.47 5.47 0 0 1 .77.13 4.88 4.88 0 0 1 1.32.5 2.61 2.61 0 0 1 1.12 1.37l.07.17a.34.34 0 0 0 0-.06 19.85 19.85 0 0 1 .11-2.43.12.12 0 0 0-.1-.14 5.4 5.4 0 0 1-1.64-1 3 3 0 0 1-1-2.6c0-.08 0-.11.12-.08l.26.08a6.08 6.08 0 0 1 .95.43 2.65 2.65 0 0 1 1.43 2c0 .08 0 .17.05.25a.1.1 0 0 0 0-.06 21.49 21.49 0 0 1 .57-2.52.11.11 0 0 0-.07-.14 4.51 4.51 0 0 1-1-.74 3.74 3.74 0 0 1-.89-1.23 3.27 3.27 0 0 1-.06-2c0-.1.08-.08.15 0a6 6 0 0 1 1 .66 2.57 2.57 0 0 1 1.3 2.05v.34A22 22 0 0 1 17.49 25a.1.1 0 0 0 0-.14 4 4 0 0 1-.52-.51 4.15 4.15 0 0 1-.88-1.55 3.07 3.07 0 0 1 .26-2.1c0-.09.08 0 .13 0a4.86 4.86 0 0 1 1.14 1.14 2.23 2.23 0 0 1 .38 1.22 6.08 6.08 0 0 1-.09 1 21 21 0 0 1 1.5-2.32.09.09 0 0 0 0-.14 4.26 4.26 0 0 1-.57-.9 3.69 3.69 0 0 1-.4-1.34 3.1 3.1 0 0 1 .62-1.92c.06-.09.1 0 .15 0a4.61 4.61 0 0 1 .92 1.34 2.23 2.23 0 0 1 .21 1 4 4 0 0 1-.25 1A18 18 0 0 1 22 18.93a.1.1 0 0 0 0-.15 4.07 4.07 0 0 1-.3-.78 3.85 3.85 0 0 1-.22-1.53 3 3 0 0 1 .94-1.8c.07-.08.11 0 .15 0a4.59 4.59 0 0 1 .6 1.28 2.22 2.22 0 0 1 0 1.38 5.44 5.44 0 0 1-.49 1l.12-.09a23.48 23.48 0 0 1 2.11-1.54c.16-.11.16-.11.1-.28a4.13 4.13 0 0 1-.16-2.14 2.83 2.83 0 0 1 1.22-1.7c.11-.08.12-.08.18 0a4.55 4.55 0 0 1 .35 1.3 2.21 2.21 0 0 1-.44 1.67c-.16.2-.33.4-.5.59a21.54 21.54 0 0 1 2.57-1.29.1.1 0 0 0 .07-.13 3.88 3.88 0 0 1 0-1.22 3 3 0 0 1 .46-1.39 3.28 3.28 0 0 1 1.18-1s.1 0 .1-.09h.13a5.41 5.41 0 0 0 .09.54 4.11 4.11 0 0 1 0 1.26 2.21 2.21 0 0 1-.83 1.32l-.51.41c.42-.15.84-.3 1.27-.43a.3.3 0 0 0 .14-.1 3.72 3.72 0 0 1 .75-.64 1.88 1.88 0 0 1 1.37-.29 6.8 6.8 0 0 1 1 .25c.06 0 .11 0 0 .11a3.13 3.13 0 0 1-2 1 2.44 2.44 0 0 1-1.23-.25.22.22 0 0 0-.18 0q-.9.31-1.76.69a.11.11 0 0 0-.06.06l.5-.06a4.89 4.89 0 0 1 1 0 2.25 2.25 0 0 1 1.2.55 4.43 4.43 0 0 1 1.08 1.2s.08.09 0 .12a3 3 0 0 1-2.16 0 4.21 4.21 0 0 1-1.71-1.43.15.15 0 0 0-.23-.06 23.07 23.07 0 0 0-2.6 1.46h-.06a7.76 7.76 0 0 1 1.15-.26 2.32 2.32 0 0 1 1.44.28 4.67 4.67 0 0 1 1.23 1s.08.09 0 .13a3.22 3.22 0 0 1-2 .38 3.92 3.92 0 0 1-1.39-.56 4 4 0 0 1-.81-.64.1.1 0 0 0-.15 0A23.69 23.69 0 0 0 22.36 19l.78-.34a2.57 2.57 0 0 1 2.09 0 5.31 5.31 0 0 1 1.13.67c.06 0 .09.08 0 .14a3.38 3.38 0 0 1-1.77.71 3.8 3.8 0 0 1-1.51-.18 4.26 4.26 0 0 1-1-.54.1.1 0 0 0-.16 0 16.55 16.55 0 0 0-2.07 2.37l.59-.4a2.76 2.76 0 0 1 1.33-.5 3.66 3.66 0 0 1 1.38.22 5.23 5.23 0 0 1 .8.35c.06 0 .11.06 0 .12a3.18 3.18 0 0 1-1.87 1.06 4.53 4.53 0 0 1-1.91-.2 3.54 3.54 0 0 1-.57-.22.11.11 0 0 0-.16 0A20.53 20.53 0 0 0 18 24.78l.58-.52a2.59 2.59 0 0 1 1.94-.6 5.63 5.63 0 0 1 1.36.26c.12.08.12.08.07.18a4.3 4.3 0 0 1-.81.89 2.78 2.78 0 0 1-1.57.6 5.13 5.13 0 0 1-1.8-.12.1.1 0 0 0-.14.07 22 22 0 0 0-.94 2.5.18.18 0 0 0 0 .11l.43-.54a2.5 2.5 0 0 1 1.61-.89 5.6 5.6 0 0 1 1.63 0c.12 0 .14.05.09.16a4.2 4.2 0 0 1-.77 1.12 3 3 0 0 1-1.53.8 5.16 5.16 0 0 1-1.59.14.14.14 0 0 0-.17.12 21.94 21.94 0 0 0-.49 2.63.08.08 0 0 0 0 .09l.1-.13a5.57 5.57 0 0 1 .43-.73 2.67 2.67 0 0 1 1.59-1 5.76 5.76 0 0 1 1.37-.18c.12 0 .1.06.08.13a3.12 3.12 0 0 1-1.87 2.34 5.52 5.52 0 0 1-1.65.44.14.14 0 0 0-.15.16 20.06 20.06 0 0 0 0 2.35v.32a.13.13 0 0 0 0-.1q.1-.36.24-.72a2.45 2.45 0 0 1 1-1.23 5.29 5.29 0 0 1 1.78-.66c.07 0 .12 0 .11.07a3.15 3.15 0 0 1-.87 2.24A5 5 0 0 1 16 36.31a.14.14 0 0 0-.13.19 18.6 18.6 0 0 0 .44 2.27.36.36 0 0 0 .06.17l.1-.65a2.58 2.58 0 0 1 1.09-1.71 5.84 5.84 0 0 1 1.44-.77c.08 0 .12 0 .13.07a3.56 3.56 0 0 1-.26 2.05A3.67 3.67 0 0 1 18 39a5 5 0 0 1-1.22.81.1.1 0 0 0-.07.14 18.42 18.42 0 0 0 .88 2.33v.05a.33.33 0 0 0 0-.15 3.38 3.38 0 0 1 .16-1.56 3.66 3.66 0 0 1 1.1-1.36 6 6 0 0 1 .8-.55c.06 0 .1-.05.13 0a3.42 3.42 0 0 1 0 2.33 4.47 4.47 0 0 1-1 1.44 4.87 4.87 0 0 1-.73.63.1.1 0 0 0 0 .15 17.91 17.91 0 0 0 1.26 2 5.09 5.09 0 0 1-.16-1.08 2.55 2.55 0 0 1 .39-1.32 5.45 5.45 0 0 1 1.21-1.4c.05 0 .1-.08.14 0a3.64 3.64 0 0 1 .49 2.2 3.89 3.89 0 0 1-.49 1.32 5.13 5.13 0 0 1-.85 1.15s-.08.09 0 .15a20.51 20.51 0 0 0 1.55 1.74 6.21 6.21 0 0 1-.31-.91 2.56 2.56 0 0 1 .14-1.45 5.47 5.47 0 0 1 1-1.63c.05-.06.09-.08.15 0a4 4 0 0 1 .88 1.9 3.35 3.35 0 0 1-.15 1.36 5.31 5.31 0 0 1-.7 1.54c0 .05-.07.1 0 .16a20.35 20.35 0 0 0 1.77 1.43c-.12-.2-.25-.41-.35-.62a2.76 2.76 0 0 1-.15-2 5.89 5.89 0 0 1 .6-1.48c.05-.1.09-.11.18 0a3.91 3.91 0 0 1 1.26 1.93 4 4 0 0 1 0 1.55 5 5 0 0 1-.39 1.34.11.11 0 0 0 .05.16 22.22 22.22 0 0 0 2 1.12.15.15 0 0 0 .12 0l-.39-.43a2.76 2.76 0 0 1-.72-2 5.72 5.72 0 0 1 .34-1.78c0-.14.06-.14.18-.06a4.26 4.26 0 0 1 1.53 1.54 3.6 3.6 0 0 1 .37 1.55 5.27 5.27 0 0 1-.14 1.68.11.11 0 0 0 .07.15 17.82 17.82 0 0 0 2.08.7.19.19 0 0 0 .11 0c-.21-.17-.42-.33-.61-.5a2.88 2.88 0 0 1-.9-1.82 5.89 5.89 0 0 1 0-1.73c0-.16 0-.16.18-.1a4.17 4.17 0 0 1 1.93 1.44 4.24 4.24 0 0 1 .59 1.57 5 5 0 0 1 .11 1.31.12.12 0 0 0 .12.15 21.45 21.45 0 0 1 4.56 1.4.25.25 0 0 0 .22 0 21.41 21.41 0 0 1 4.55-1.4.13.13 0 0 0 .13-.17 5.65 5.65 0 0 1 .41-2.32 2.88 2.88 0 0 1 .79-1.11 4.87 4.87 0 0 1 1.46-.88c.07 0 .11 0 .13.06a5.16 5.16 0 0 1-.16 2.59 3.06 3.06 0 0 1-1.14 1.39l-.17.14a.25.25 0 0 0 .14 0 18.16 18.16 0 0 0 2-.68.14.14 0 0 0 .1-.19 5.48 5.48 0 0 1 0-2.56 3.18 3.18 0 0 1 1.09-1.64 4.89 4.89 0 0 1 .69-.51h.13a5 5 0 0 1 .29 2.55 2.63 2.63 0 0 1-.62 1.24l-.39.43a.12.12 0 0 0 .12 0c.66-.33 1.3-.7 1.92-1.09a.13.13 0 0 0 .06-.2 5.18 5.18 0 0 1-.42-2.63 3 3 0 0 1 .73-1.51 4.71 4.71 0 0 1 .61-.63c.06 0 .09-.05.13 0a5.15 5.15 0 0 1 .73 2.27 2.76 2.76 0 0 1-.51 1.65l-.12.17v.06a21 21 0 0 0 1.76-1.42c.07-.06 0-.11 0-.17a5.43 5.43 0 0 1-.76-2.25 2.89 2.89 0 0 1 .27-1.68 4.65 4.65 0 0 1 .55-.87c0-.06.08-.08.13 0a5 5 0 0 1 1.13 2.18 2.58 2.58 0 0 1-.17 1.46l-.15.37a19.14 19.14 0 0 0 1.38-1.53.69.69 0 0 0 .2-.27.49.49 0 0 0-.18-.34 5.38 5.38 0 0 1-1.1-1.94 2.81 2.81 0 0 1 0-1.64 4.41 4.41 0 0 1 .38-.91c0-.06.06-.09.13 0A5 5 0 0 1 55 43.38a2.73 2.73 0 0 1 .07 1.71l-.06.25a17.56 17.56 0 0 0 1.15-1.83c.15-.28.15-.28-.11-.48a5.3 5.3 0 0 1-1.47-1.74 2.77 2.77 0 0 1-.25-1.58 4.16 4.16 0 0 1 .2-.93c0-.06 0-.12.13-.07a5 5 0 0 1 1.74 1.59 2.7 2.7 0 0 1 .34 1.62v.43a.86.86 0 0 0 .13-.24 18.82 18.82 0 0 0 .84-2.11.13.13 0 0 0-.09-.19 5.17 5.17 0 0 1-1.9-1.53 2.83 2.83 0 0 1-.52-1.69 4.05 4.05 0 0 1 0-.73c0-.07 0-.1.11-.07A5 5 0 0 1 57.28 37a2.61 2.61 0 0 1 .64 1.48c0 .14 0 .29.06.44a.15.15 0 0 0 .02-.11 18.84 18.84 0 0 0 .46-2.34c0-.11 0-.13-.12-.15a5.1 5.1 0 0 1-2.19-1.23 2.81 2.81 0 0 1-.76-1.51 3.46 3.46 0 0 1-.08-.68c0-.06 0-.11.09-.1a4.83 4.83 0 0 1 2.15.91 2.7 2.7 0 0 1 .84 1.36c0 .14.09.29.13.43a.1.1 0 0 0 0-.11 21.17 21.17 0 0 0 0-2.58.16.16 0 0 0-.18-.18 5.08 5.08 0 0 1-2.32-.83 2.4 2.4 0 0 1-.63-.8 4 4 0 0 1-.47-1.16c0-.05-.06-.14.07-.14a5.34 5.34 0 0 1 1.92.37 2.53 2.53 0 0 1 1.29 1.2 5.43 5.43 0 0 0 .3.52c0-.16 0-.33-.06-.49a22 22 0 0 0-.44-2.14c0-.16 0-.16-.22-.16a5.36 5.36 0 0 1-2.15-.34 2.76 2.76 0 0 1-1.31-1.09 4 4 0 0 1-.39-.71c0-.06 0-.1.05-.11a4.54 4.54 0 0 1 2.38.19 2.32 2.32 0 0 1 .89.68c.16.18.3.37.45.55a19.74 19.74 0 0 0-.83-2.28c0-.09-.09-.19-.12-.28a.13.13 0 0 0-.19-.1 5 5 0 0 1-2.27 0 2.75 2.75 0 0 1-1.43-.86 4.12 4.12 0 0 1-.45-.57v-.13a4.49 4.49 0 0 1 2.29-.21 2.46 2.46 0 0 1 1.09.58c.18.15.35.32.52.47m-29.69 28Zm21 0Z" style="fill:#009a4d"/><path class="m" d="M33.5 13.8V9.63c0-.26-.12-.47.23-.47h6.8c.4 0 .38 0 .38.33v6.7a3.27 3.27 0 0 1-.53.59 11.38 11.38 0 0 1-1.92.77 4.22 4.22 0 0 1-1.31.45 2 2 0 0 0-.66-.28l-.74-.28c-.69-.26-1.75-.44-2.1-1.09a2.41 2.41 0 0 1-.12-1.25v-.65a1.61 1.61 0 0 0 0-.67c0-1.52 0 0 0 0m7.13-1V9.62c0-.12 0-.12-.14-.12h-6.59c-.05 0-.11 0-.11.07v6.33a.68.68 0 0 0 .22.5 2 2 0 0 0 .65.38l.91.35 1.4.51a.51.51 0 0 0 .41 0c.67-.26 1.35-.51 2-.76a4.72 4.72 0 0 0 .72-.29.89.89 0 0 0 .53-.81v-3" style="fill:#fff17b"/><path class="p" d="M40.64 12.77v3a.89.89 0 0 1-.53.81 4.72 4.72 0 0 1-.72.29c-.68.25-1.36.5-2 .76a.51.51 0 0 1-.41 0l-1.36-.54-.91-.35a2 2 0 0 1-.71-.36.68.68 0 0 1-.22-.5V9.55c0-.08.05-.07.11-.07h6.56c.14 0 .14 0 .14.12v3.16Zm-3.81-1.84a.09.09 0 0 0 .11.08s0 .07-.07.07a1 1 0 0 0-.45.12.14.14 0 0 1-.22-.09.46.46 0 0 1 .13-.41.65.65 0 0 0 .17-.3.28.28 0 0 0-.21-.3.88.88 0 0 0-.29 0 .79.79 0 0 0-.59.29 1.7 1.7 0 0 0-.36 1v.59A.07.07 0 0 1 35 12s0 0-.05-.06a1.33 1.33 0 0 1 0-.29c.05-.25.05-.52.05-.8a1.17 1.17 0 0 0 0-.6v.07s-.05 0-.06-.07a.86.86 0 0 1 0-.33.35.35 0 0 0 0-.21.75.75 0 0 0-.24.48 1.38 1.38 0 0 0 .08.38.08.08 0 0 1 0 .11c-.1 0-.06.08 0 .13a.73.73 0 0 1 .07.48 2.94 2.94 0 0 0 0 .61c0 .08 0 .15-.12.15a.16.16 0 0 0-.13.09s0 .06.06.08a.41.41 0 0 1 .1.21.43.43 0 0 0 .47.36.09.09 0 0 1 .09.09 1.93 1.93 0 0 1 0 .23v.72c0 .24 0 .78.06 1.17v.62a.71.71 0 0 1 0 .32 3.42 3.42 0 0 1-.21.44s0 0 0 .05h.05a1.51 1.51 0 0 0 .45-.29.93.93 0 0 0 .27-.63c0-.4-.07-.79-.08-1.18a1.64 1.64 0 0 0 0-.32.29.29 0 0 1 0-.2l.17 1.42a.25.25 0 0 0 .11-.15 1.58 1.58 0 0 0 .19-.67 3.31 3.31 0 0 0-.33-.71 3.44 3.44 0 0 1-.09-.42c.1.23.14.45.21.66v.1-.1a.33.33 0 0 0 0-.23v-.1a.09.09 0 0 1 .07.07 3.27 3.27 0 0 1 .12.72 4.12 4.12 0 0 1-.07.67c0 .32-.08.65-.1 1a.45.45 0 0 1-.18.39.41.41 0 0 0-.15.16c0 .06 0 .09.06.09a.88.88 0 0 0 .35 0 2.54 2.54 0 0 0 .34-.13.23.23 0 0 1 .25 0 .23.23 0 0 0 .1 0 3 3 0 0 0 .44 0s.07 0 .06.06 0 .13.15.15a.48.48 0 0 1 .24.1.54.54 0 0 0 .45.1c.09 0 .11 0 .06-.12a.69.69 0 0 0-.29-.22c-.1 0-.11-.13 0-.18a.37.37 0 0 0 .13-.12 1.59 1.59 0 0 0 .19-.58v-1.92.13c.09-.17.12-.35.22-.53v.06c0 .24-.1.47-.13.71a1.28 1.28 0 0 0 .24.91c0-.2 0-.4.07-.6a6.44 6.44 0 0 0 .08-.64.06.06 0 0 1 0-.05 6.05 6.05 0 0 1 0 .63v.44a3.6 3.6 0 0 0 0 .86.55.55 0 0 0 .12.26 1.37 1.37 0 0 0 .37.29l.23.12a.06.06 0 0 0 .07 0 3.28 3.28 0 0 1-.18-.43 1.81 1.81 0 0 1 0-.66v-3.92a1.77 1.77 0 0 0-.24-.86 1 1 0 0 0-.62-.57.3.3 0 0 0-.3.15.4.4 0 0 0 .07.4.7.7 0 0 1 .18.5c0 .14-.06.18-.2.12a3.4 3.4 0 0 0-.67-.11s-.07 0-.08 0h.06a.2.2 0 0 0 .09 0 .44.44 0 0 0 .28-.24.61.61 0 0 0-.1-1 1 1 0 0 0-.95 0 .73.73 0 0 0-.35.75.21.21 0 0 0 .09.16.16.16 0 0 0 .15.16Z" style="fill:#0a478d"/><path class="q" d="M37.65 11h-.06.08a3.4 3.4 0 0 1 .67.11c.14.05.19 0 .2-.12a.7.7 0 0 0-.18-.5.4.4 0 0 1-.07-.4.3.3 0 0 1 .3-.15 1 1 0 0 1 .89.46 1.77 1.77 0 0 1 .24.86v3.92a1.81 1.81 0 0 0 0 .66 3.3 3.3 0 0 0 .18.43.06.06 0 0 1-.07 0l-.23-.12a1.37 1.37 0 0 1-.45-.15.55.55 0 0 1-.15-.26 3.6 3.6 0 0 1 0-.86v-.44a6 6 0 0 0 0-.63.06.06 0 0 0 0 .05 6.39 6.39 0 0 1-.08.64c0 .2 0 .4-.07.6a1.28 1.28 0 0 1-.24-.91c0-.24.11-.47.13-.71v-.06c-.1.18-.13.37-.22.53v-.13 1.92a1.59 1.59 0 0 1-.19.58.37.37 0 0 1-.13.12c-.1.06-.09.14 0 .18a.69.69 0 0 1 .29.22c.05.07 0 .1-.06.12a.54.54 0 0 1-.45-.1.48.48 0 0 0-.24-.1c-.13 0-.16 0-.15-.15s0-.06-.06-.06a3 3 0 0 1-.44 0 .23.23 0 0 1-.1 0 .23.23 0 0 0-.25 0 2.53 2.53 0 0 1-.34.13.88.88 0 0 1-.35 0c-.06 0-.09 0-.06-.09a.41.41 0 0 1 .15-.16.45.45 0 0 0 .11-.43c0-.33.07-.65.1-1a4.12 4.12 0 0 0 .07-.67 3.27 3.27 0 0 0-.12-.72.09.09 0 0 0-.07-.07.67.67 0 0 0 0-.34c-.07-.2-.23-.47-.29-.76 0-.06 0 0-.07 0l-.68.32a.06.06 0 0 0 0 .07v.3l.14 2.47a1 1 0 0 1-.09.51.27.27 0 0 0-.08.14.67.67 0 0 0 .38-.29 1 1 0 0 0 .1-.33 5 5 0 0 0 0-.79v-.1c-.06-.58-.11-1.16-.13-1.75.12.66.27 1.33.34 2v-.05A1.34 1.34 0 0 0 36 14c-.07-.41-.17-.82-.28-1.23v-.07.05c.12.3.25.6.34.91a.21.21 0 0 0 0 .11.1.1 0 0 0 0-.06.33.33 0 0 1 0 .23v.1-.1c-.06-.21-.06-.43-.16-.66a3.46 3.46 0 0 0 .09.42 3.33 3.33 0 0 1 .1.71 1.58 1.58 0 0 1-.19.67.25.25 0 0 1-.11.15l-.16-1.42a.29.29 0 0 0 0 .2 1.62 1.62 0 0 1 0 .32c0 .4.09.79.08 1.18a.93.93 0 0 1-.27.63 1.51 1.51 0 0 1-.45.29h-.05v-.05a3.41 3.41 0 0 0 .21-.44.71.71 0 0 0 0-.32V15c0-.39 0-.78-.06-1.17s0-.48 0-.72a2 2 0 0 0 0-.23.09.09 0 0 0-.09-.08.43.43 0 0 1-.47-.36.41.41 0 0 0-.1-.21s-.08 0-.06-.08a.16.16 0 0 1 .13-.09c.13 0 .12-.08.12-.15a2.94 2.94 0 0 1 0-.61.73.73 0 0 0-.07-.48s-.06-.1 0-.13a.08.08 0 0 0 0-.11 1.38 1.38 0 0 1-.08-.38.75.75 0 0 1 .24-.48.35.35 0 0 1 0 .21.86.86 0 0 0 0 .33s0 .07.06.07 0 0 0-.07a1.17 1.17 0 0 1 .06.61c0 .27-.08.55-.13.82a1.32 1.32 0 0 0 0 .29s.21.02.3.02v-.59a1.7 1.7 0 0 1 .36-1 .79.79 0 0 1 .64-.33.88.88 0 0 1 .29 0 .28.28 0 0 1 .21.3.64.64 0 0 1-.17.3.46.46 0 0 0-.13.41.14.14 0 0 0 .22.09 1 1 0 0 1 .45-.12c.06 0 .07 0 .07-.07S37 11 37 11a.45.45 0 0 0-.08-.2 2.7 2.7 0 0 1-.16-.23.19.19 0 0 1 0-.19.5.5 0 0 1 .54-.29.66.66 0 0 1 .28.11.38.38 0 0 1 .09.64.31.31 0 0 0-.12.22h.11m-3.09 1.47s0 .05.06 0a.21.21 0 0 0 .17 0s0 0 0-.05v-.06h-.26v.06m2.71-2.29a.6.6 0 0 1 0 .06.55.55 0 0 1 .21 0 .22.22 0 0 0-.2 0s0-.06 0-.06a.14.14 0 0 0-.15.16.28.28 0 0 1 .18-.09m.25 2.62a.12.12 0 0 0-.14 0c-.06 0 0 .06 0 .09a.42.42 0 0 0 0 .06s0 .09.06.09.12 0 .13-.07c0 .08.11.09.19 0a.4.4 0 0 0 .6 0 .89.89 0 0 0 .19-.23 1.48 1.48 0 0 0 .17-.51 1.34 1.34 0 0 0-.05-.61.12.12 0 0 0 .14.06.09.09 0 0 1 .09.09.5.5 0 0 1 0 .14 3.21 3.21 0 0 1-.17.74 4.76 4.76 0 0 0-.24.73.74.74 0 0 0 .07.42c.13-.35.26-.7.41-1.06a.14.14 0 0 1 0 .11c0 .18-.07.36-.12.54a3.73 3.73 0 0 0-.16 1 1.07 1.07 0 0 0 .18.59c.06-.69.23-1.35.35-2 0 .55-.06 1.1-.11 1.64a3.9 3.9 0 0 0 0 1.13.67.67 0 0 0 .43.56.05.05 0 0 0 .06 0 .89.89 0 0 1-.18-.66c0-.52.06-1 .09-1.57l.12-2.19a2.12 2.12 0 0 0-.21-1.11 1 1 0 0 0-.71-.53.26.26 0 0 0-.34.29.61.61 0 0 0 .19.3.36.36 0 0 1 0 .61s0 0-.06 0a.41.41 0 0 0-.44 0c0-.09 0-.1-.07-.12h-.25a.1.1 0 0 0-.07 0 .88.88 0 0 1-.6.09.5.5 0 0 0-.36-.05.29.29 0 0 0-.27.19l-.18.17a1.23 1.23 0 0 0-.31.33.11.11 0 0 1-.08 0l-.2.05a.27.27 0 0 0 .23-.24.11.11 0 0 1 0-.06h.07a.08.08 0 0 0 .12 0l.09-.08a.39.39 0 0 0 .14-.13.26.26 0 0 0-.13-.14.32.32 0 0 1 0-.49l.18-.24a.26.26 0 0 0 0-.33.12.12 0 0 0-.07-.07.51.51 0 0 0-.36.06 1.09 1.09 0 0 0-.65.76 2.88 2.88 0 0 0-.07 1.15c0 .12 0 .12.14.06a.19.19 0 0 1 .15-.06s-.08.07 0 .13a.25.25 0 0 1 .06.17c-.06-.07-.12-.12-.16-.18s-.1 0-.14 0 0 .05 0 .07a.25.25 0 0 1 0 .19c0 .06 0 .11-.05.17l1-.49a.9.9 0 0 1 .3-.1.19.19 0 0 1 .25.15 1.29 1.29 0 0 1 0 .38s0 .06.06.06h.68s.06 0 0-.05 0-.27-.07-.4a.69.69 0 0 0-.26-.43.12.12 0 0 1 .11 0l.12.06a.09.09 0 0 0 .11 0 .07.07 0 0 0 0-.11.92.92 0 0 0-.16-.11.65.65 0 0 1-.22-.16h.13a2.77 2.77 0 0 0 .33.09s.08 0 .09 0a.06.06 0 0 0 0-.08h-.07a1.53 1.53 0 0 1-.27-.1 3.49 3.49 0 0 0 .62 0 1.36 1.36 0 0 0-.32 1.28.11.11 0 0 1 0 .1m-.14-1.93a.24.24 0 0 1-.17.13.35.35 0 0 0-.24.16s0 .06 0 .06a1 1 0 0 0 .41 0 .06.06 0 0 0 .06 0 .88.88 0 0 0 0-.38.56.56 0 0 0 0-.21.26.26 0 0 0-.59-.49.21.21 0 0 0 0-.21.42.42 0 0 0-.16.14s0 .07.07.1a.14.14 0 0 0-.08.18s0 .06.07 0 .06 0 .07 0a.43.43 0 0 1 0 .21.25.25 0 0 1 .03-.08h-.05a1 1 0 0 1 .07.14.19.19 0 0 0 .24.07.86.86 0 0 0 .12-.08m.48 4.59c0-.43-.06-.85-.1-1.28 0-.27 0-.55-.08-.82v-.05c0-.05 0 0 0 0l.12 1 .2 1.27a.23.23 0 0 0 0 .11v-2.11a.44.44 0 0 0-.5-.45h-.08a3.11 3.11 0 0 0-.59 0 .21.21 0 0 0-.21.19c0 .3-.06.61-.1.91s-.07.64-.11 1l-.09.82v.31a1.41 1.41 0 0 1 .38-.32 4.57 4.57 0 0 1 1-.31h.1a.87.87 0 0 1-.22.08.09.09 0 0 0-.06.12c0 .06.06 0 .09 0h.29a1.43 1.43 0 0 1-.24.13.09.09 0 0 0-.07.11 1.1 1.1 0 0 1 0 .52c0 .08 0 .1.11.09a.3.3 0 0 1 .12 0 .83.83 0 0 1 .2.12.55.55 0 0 0 .27.1.1.1 0 0 0 .09 0s0 0 0-.07a.5.5 0 0 0-.26-.2.27.27 0 0 1-.17-.27v-.73s0-.08-.07-.07a.2.2 0 0 0 0-.1m.57-.94a6.49 6.49 0 0 0-.05-1v-.23c0 .07 0 .15-.07.22a2.17 2.17 0 0 0-.11.6v1.82a.63.63 0 0 1 0 .28.1.1 0 0 0 .07.12c.06 0 .08 0 .1-.07a1.23 1.23 0 0 0 .07-.17 4.17 4.17 0 0 0 .12-.79v-.8m-3.84-3.77a.84.84 0 0 1 .11.41 4.37 4.37 0 0 1-.07.54.66.66 0 0 0 0 .35.16.16 0 0 0 .1-.09 1.61 1.61 0 0 1 0-.53 5.67 5.67 0 0 0 .12-.8.74.74 0 0 0 0-.34s0 .1-.1.09a.15.15 0 0 1-.1-.11v-.06a.9.9 0 0 1 0-.33.49.49 0 0 0-.12.43l.09.4h-.11m2.78 5.75h.15s.05 0 0-.05l-.12-.59h-.06a.89.89 0 0 0-.63.34c-.08.11 0 .2.1.25a1.38 1.38 0 0 0 .51.1m-1.06-3.26a1.66 1.66 0 0 0 .08.61s0 .07.05.06 0 0 0-.07a1.28 1.28 0 0 0 0-.23 4.83 4.83 0 0 0 0-.84.54.54 0 0 0-.13-.34.09.09 0 0 0-.08-.05s0 .05 0 .08v.79m-.11 3.4a.21.21 0 0 0 .15 0 .56.56 0 0 1 .23-.1.11.11 0 0 0 .11-.13.5.5 0 0 1 0-.22.34.34 0 0 0-.26.19.08.08 0 0 1-.06.06l-.23.12a.13.13 0 0 0-.07.12s.07 0 .11 0h.08m-1.73-4.56a.19.19 0 0 0-.06.06.15.15 0 0 0 .07.1s0 0 .06 0a.51.51 0 0 1 .4 0 .13.13 0 0 0 .15-.06.16.16 0 0 0-.09-.19s0 0-.06 0a.45.45 0 0 1-.43 0 .05.05 0 0 0-.05 0m.19.23h-.07.06a.82.82 0 0 1 .23 0c.09 0 .1 0 .05.09a.07.07 0 0 0 0 .09.1.1 0 0 0 .12 0 .19.19 0 0 0 0-.21.18.18 0 0 0-.19-.06.37.37 0 0 1-.17 0m2 .56c0 .06 0 .14.1.13s.08-.09.09-.14a.09.09 0 0 0-.11-.11c-.11 0-.08.07-.08.12m.44 0v.06a.08.08 0 0 0 .09.08.08.08 0 0 0 .09-.08.86.86 0 0 0 0-.1.06.06 0 0 0-.07-.06c-.11 0-.12 0-.11.1m0 0a.08.08 0 0 0-.1-.1c-.09 0-.09 0-.09.1v.07c0 .07-.03.14.07.14s.08-.06.09-.12m.39-2.5a.29.29 0 0 1 .09.33c.09 0 0-.08 0-.11s0-.19-.13-.22m-.13-.08a.42.42 0 0 1 .23.07s0 0 .06 0 0 0 0-.06a.24.24 0 0 0-.28 0m-2.63 2.34c.1.12.09.13.19 0h-.19Z" style="fill:#141815"/><path class="r" d="M35.48 12.92c0 .58.07 1.17.13 1.75v.13a5 5 0 0 1 0 .79 1 1 0 0 1-.1.33.67.67 0 0 1-.38.29.27.27 0 0 1 .08-.14 1 1 0 0 0 .09-.51l-.14-2.47v-.3a.06.06 0 0 1 0-.07l.68-.32h.07c.07.28.22.55.29.84a.67.67 0 0 1 0 .34v.1a.1.1 0 0 1 0 .06.21.21 0 0 1 0-.11c-.09-.31-.22-.61-.34-.91v-.05.07c.11.41.21.81.28 1.23a1.34 1.34 0 0 1-.12.89v.05c-.06-.69-.21-1.35-.34-2a.08.08 0 0 0 0-.07v.07" style="fill:#f7f8f8"/><path class="m" d="M37.65 11h-.11a.31.31 0 0 1 .12-.22.38.38 0 0 0-.09-.64.66.66 0 0 0-.28-.11.5.5 0 0 0-.54.29.19.19 0 0 0 0 .19 2.74 2.74 0 0 0 .16.23.45.45 0 0 1 .09.26c0 .06 0 .05-.07 0a.34.34 0 0 0-.11-.08l-.15-.16a.66.66 0 0 1 .05-.63.76.76 0 0 1 .77-.34.69.69 0 0 1 .58.47.58.58 0 0 1-.27.63.18.18 0 0 0-.07.05.2.2 0 0 1-.09 0" style="fill:#fff17b"/><path class="q" d="M37.74 11a.18.18 0 0 1 .07-.05.58.58 0 0 0 .27-.63.69.69 0 0 0-.58-.47.76.76 0 0 0-.77.34.66.66 0 0 0-.05.63.21.21 0 0 1-.09-.16.73.73 0 0 1 .35-.75 1 1 0 0 1 .95 0 .61.61 0 0 1 .1 1 .44.44 0 0 1-.26.14" style="fill:#141815"/><path class="q" d="m36.68 10.77.15.16a.16.16 0 0 1-.15-.16m.15.16a.34.34 0 0 1 .11.08.09.09 0 0 1-.11-.08" style="fill:#141815"/><path class="r" d="M37.55 12.78a.11.11 0 0 0 0-.1 1.36 1.36 0 0 1 .32-1.28l.13-.08a.41.41 0 0 1 .44 0s0 0 .06 0a.36.36 0 0 0 0-.61.61.61 0 0 1-.19-.3.26.26 0 0 1 .34-.29 1 1 0 0 1 .71.53 2.12 2.12 0 0 1 .21 1.11l-.12 2.19c0 .52-.06 1-.09 1.57a.89.89 0 0 0 .18.66.05.05 0 0 1-.06 0 .67.67 0 0 1-.43-.56 3.9 3.9 0 0 1 0-1.13c.05-.55.11-1.09.11-1.64-.12.67-.29 1.33-.35 2a1.07 1.07 0 0 1-.18-.59 3.72 3.72 0 0 1 .16-1c0-.18.08-.36.12-.54a.14.14 0 0 0 0-.11c-.15.36-.28.71-.41 1.06a.74.74 0 0 1-.07-.42 4.76 4.76 0 0 1 .24-.73 3.21 3.21 0 0 0 .17-.74.5.5 0 0 0 0-.14.09.09 0 0 0-.09-.09.12.12 0 0 1-.14-.06 1.34 1.34 0 0 1 .05.61 1.48 1.48 0 0 1-.17.51.89.89 0 0 1-.19.23.4.4 0 0 1-.6 0 .62.62 0 0 0-.16-.19m.39-.17v.12c0 .12 0 .12.11.13h.06c.05 0 .08 0 .08-.05s.05-.32.07-.48 0-.07.09-.06h.2c.07 0 .08 0 .05-.07a.16.16 0 0 0 0-.13c0-.05 0-.06-.06-.06a1.16 1.16 0 0 1-.19 0c-.06 0-.06 0-.06-.07l.07-.35c0-.16 0-.16-.15-.18s-.09 0-.08.08-.05.19-.05.29a.85.85 0 0 0 0 .19.23.23 0 0 0-.14 0c-.23 0-.23 0-.26.17v.06h.25c.06 0 .07 0 .06.07a1.73 1.73 0 0 0 0 .3m1.41-1.28a.21.21 0 0 0 0-.13 1.3 1.3 0 0 0-.46-.58.1.1 0 0 0-.1 0 .06.06 0 0 0 0 .07.08.08 0 0 0 .06.09.65.65 0 0 1 .24.14 1 1 0 0 1 .29.45" style="fill:#f7f8f8"/><path class="s" d="m38 15.54-.14-1.15-.12-1v.05c0 .27.06.55.08.82 0 .43.08.85.1 1.28a.2.2 0 0 1 0 .1.3.3 0 0 0-.17 0 4.58 4.58 0 0 0-1 .31 1.41 1.41 0 0 0-.4.28v-.31l.09-.82c0-.32.07-.64.11-1s.06-.61.1-.91a.21.21 0 0 1 .18-.19 3.12 3.12 0 0 1 .59 0h.12a.44.44 0 0 1 .5.45v2" style="fill:#fdfefe"/><path class="r" d="M35.4 12.11a.19.19 0 0 0-.15.06c-.13.07-.13.07-.14-.06a2.89 2.89 0 0 1 .08-1.11 1.09 1.09 0 0 1 .65-.76.51.51 0 0 1 .36-.06.12.12 0 0 1 .07.07.26.26 0 0 1 0 .33l-.18.24a.32.32 0 0 0 0 .49.26.26 0 0 1 .13.14.39.39 0 0 1-.14.13l-.09.08a.08.08 0 0 1-.12 0 .05.05 0 0 0-.07 0 .11.11 0 0 0 0 .06.27.27 0 0 1-.23.24.29.29 0 0 0-.11.06Zm-.07-.72a.07.07 0 0 0 0 .07.08.08 0 0 0 0-.06.88.88 0 0 1 .56-.64c.06 0 0-.09 0-.13s-.08 0-.11 0a1.27 1.27 0 0 0-.5.79m1.88.42a.69.69 0 0 1 .26.43c0 .13 0 .26.07.4s0 .05 0 .05h-.74c-.05 0-.06 0-.06-.06a1.29 1.29 0 0 0 0-.38.19.19 0 0 0-.25-.15.9.9 0 0 0-.3.1l-1 .49c0-.06 0-.11.05-.17a.25.25 0 0 0 0-.19s-.08 0 0-.07.09-.06.14 0 .1.11.16.18a.25.25 0 0 0-.06-.17v-.13c0-.03 0 0 0 0l.18-.17.2-.05a.11.11 0 0 0 .08 0 1.23 1.23 0 0 1 .31-.33l.18-.17h.08c.23.12.47.24.69.38" style="fill:#f7f8f8"/><path class="t" d="M38.43 14.53v.8a4.16 4.16 0 0 1-.12.79 1.21 1.21 0 0 1-.07.17s0 .1-.1.07a.1.1 0 0 1-.07-.12.63.63 0 0 0 0-.28v-1.82a2.18 2.18 0 0 1 .11-.6c0-.07 0-.15.07-.22v.23a6.49 6.49 0 0 1 .05 1m-1.14-2.71c-.22-.14-.46-.26-.69-.38h-.08a.29.29 0 0 1 .27-.19.5.5 0 0 1 .36.05.88.88 0 0 0 .6-.09.1.1 0 0 1 .07 0h.25c.11 0 .11 0 .07.12l-.13.09a3.5 3.5 0 0 1-.62 0 1.54 1.54 0 0 0 .27.1h.07a.06.06 0 0 1 0 .08s-.05 0-.09 0a2.77 2.77 0 0 1-.33-.09h-.13a.65.65 0 0 0 .22.16.92.92 0 0 1 .16.11.07.07 0 0 1 0 .11.09.09 0 0 1-.11 0l-.12-.06a.12.12 0 0 0-.11 0" style="fill:#a61930"/><path class="m" d="M34.59 10.75h.11l-.09-.4a.49.49 0 0 1 .12-.43.9.9 0 0 0 0 .33v.06a.15.15 0 0 0 .1.11c.06 0 .06-.06.1-.09a.74.74 0 0 1 .05.34 5.64 5.64 0 0 1-.13.78 1.62 1.62 0 0 0 0 .53.16.16 0 0 1-.15.13.66.66 0 0 1 0-.35 4.4 4.4 0 0 0 .07-.54.84.84 0 0 0-.11-.41" style="fill:#fff17b"/><path class="r" d="M37.71 15.66a.3.3 0 0 1 .17 0c.06 0 .07 0 .07.07v.73a.27.27 0 0 0 .17.27.49.49 0 0 1 .26.2s0 0 0 .07a.1.1 0 0 1-.09 0 .55.55 0 0 1-.27-.1.83.83 0 0 0-.2-.12.3.3 0 0 0-.12 0c-.09 0-.13 0-.11-.09a1.1 1.1 0 0 0 0-.52.09.09 0 0 1 .06-.17 1.44 1.44 0 0 0 .24-.13h-.38a.09.09 0 0 1 .06-.12.86.86 0 0 0 .22-.08h-.08" style="fill:#f7f8f8"/><path class="r" d="M37.37 16.5a1.38 1.38 0 0 1-.51-.1c-.13-.05-.18-.15-.1-.25a.89.89 0 0 1 .63-.34h.06l.12.59v.05h-.2" style="fill:#f7f8f8"/><path class="t" d="M36.31 13.24v-.87a.09.09 0 0 1 .08.05.54.54 0 0 1 .13.34 4.83 4.83 0 0 1 0 .84 1.27 1.27 0 0 1 0 .23v.07c0 .01 0 0-.05-.06a1.66 1.66 0 0 1-.08-.61" style="fill:#a61930"/><path class="r" d="M37 10.36a.26.26 0 0 1 .37.17.57.57 0 0 1 0 .21v.09a.84.84 0 0 1-.12.08.19.19 0 0 1-.25-.06.94.94 0 0 0 0-.14h.05a.25.25 0 0 0 .05.1.43.43 0 0 0 0-.21s-.05 0-.07 0h-.07a.14.14 0 0 1 .04-.21.07.07 0 0 0 .06 0m.16.25a.26.26 0 0 0 .13-.08.16.16 0 0 0-.15 0s-.09 0-.08.05a.11.11 0 0 0 .12.06m0 .19a.16.16 0 0 0-.14 0 .13.13 0 0 0 .13 0m-1.03 5.78h-.17a.13.13 0 0 1 .07-.12l.23-.12a.08.08 0 0 0 .06-.06.34.34 0 0 1 .26-.19.5.5 0 0 0 0 .22.11.11 0 0 1-.11.13.56.56 0 0 0-.23.1.21.21 0 0 1-.15 0" style="fill:#f7f8f8"/><path class="r" d="M37.43 10.78a.88.88 0 0 1 0 .38.06.06 0 0 1-.06 0 1 1 0 0 1-.41 0s-.06 0 0-.06a.35.35 0 0 1 .26-.1.24.24 0 0 0 .17-.13.15.15 0 0 0 0-.1m-2.92 1.31a.05.05 0 0 1 .05 0 .45.45 0 0 0 .43 0h.06a.16.16 0 0 1 .07.09.13.13 0 0 1-.15.06.51.51 0 0 0-.4 0h-.06a.15.15 0 0 1-.07-.1.19.19 0 0 1 .06-.06m.21.25a.37.37 0 0 0 .17 0 .18.18 0 0 1 .19.06.19.19 0 0 1 0 .21.1.1 0 0 1-.12 0 .07.07 0 0 1 0-.09c.05-.07 0-.08-.05-.09a.81.81 0 0 0-.23 0h-.06.07" style="fill:#f7f8f8"/><path class="m" d="M37.5 12.94c0 .07-.07.07-.13.07s-.06-.01-.07-.09a.46.46 0 0 1 0-.06v-.09a.12.12 0 0 1 .14 0v.14m-.8-.04c0-.05 0-.12.08-.12a.09.09 0 0 1 .11.11c0 .06 0 .14-.09.14s-.09-.07-.1-.13m.44 0c0-.1 0-.11.11-.1a.06.06 0 0 1 .07.06.86.86 0 0 1 0 .1.08.08 0 0 1-.09.08.08.08 0 0 1-.09-.08s0 0 0-.06" style="fill:#fff17b"/><path class="m" d="M37 12.89c0 .05 0 .12-.09.12s-.1 0-.1-.08v-.07c0-.07 0-.1.09-.1a.08.08 0 0 1 .1.1m.55-.08a.62.62 0 0 1 .16.19c-.08.06-.16 0-.19 0v-.17" style="fill:#fff17b"/><path class="t" d="M37 10.36a.07.07 0 0 1-.06 0s-.11-.07-.07-.1a.42.42 0 0 1 .13-.11.21.21 0 0 1-.06.18m.5.06c.17 0 .2.09.13.22s0 .08 0 .11a.29.29 0 0 0-.09-.33m-.17-.09a.24.24 0 0 1 .28 0s0 0 0 .06 0 0-.06 0a.42.42 0 0 0-.23-.07m-.03-.11a.28.28 0 0 0-.18.09.14.14 0 0 1 .15-.16c.07 0 .06 0 0 .06Z" style="fill:#a61930"/><path class="t" d="M37.27 10.18a.22.22 0 0 1 .2 0 .55.55 0 0 0-.21 0 .59.59 0 0 0 0-.06Z" style="fill:#a61930"/><path class="r" d="M34.69 12.64h.19c-.1.13-.09.12-.19 0m-.13-.19v-.06h.23c.06 0 .06 0 0 .06h-.23m.25.09a.21.21 0 0 1-.17 0s-.07 0-.06 0h.22m-.01-.08s.05 0 0 .05h-.2s-.07 0 0 0a.52.52 0 0 0 .23 0" style="fill:#f7f8f8"/><path class="q" d="M34.79 12.46a.52.52 0 0 1-.23 0h.23m-.2.05h.22-.21m1.01-.51-.12.06a.29.29 0 0 1 .07-.06m1.96.8v.14-.14" style="fill:#141815"/><path class="s" d="M38 15.54v.12a.24.24 0 0 1 0-.11" style="fill:#fdfefe"/><path class="q" d="M37.43 10.78a.15.15 0 0 1 0 .1v-.09" style="fill:#141815"/><path class="u" d="M35.48 12.92v-.07a.08.08 0 0 1 0 .07" style="fill:#253164"/><path class="m" d="M38 12a.21.21 0 0 0 0-.19c0-.1 0-.19.05-.29a.13.13 0 0 1 .17 0c.06 0 0 .06 0 .09l-.06.36c0 .13 0 .13.14.14a.36.36 0 0 1 .21 0 .16.16 0 0 1 0 .13 1 1 0 0 1-.27 0c-.08 0-.1 0-.11.07s0 .24-.06.36 0 .15-.21.13a1.39 1.39 0 0 1 0-.18l.14-.37s0-.06-.06-.06h-.22c-.08 0-.07 0-.06-.09a.07.07 0 0 1 .1-.07A.41.41 0 0 0 38 12" style="fill:#fff17b"/><path class="q" d="M39.35 11.33a1 1 0 0 0-.29-.45.65.65 0 0 0-.24-.14.08.08 0 0 1-.06-.09.06.06 0 0 1 0-.07.1.1 0 0 1 .1 0 1.3 1.3 0 0 1 .46.58.21.21 0 0 1 0 .13M38 12.79c.22 0 .17 0 .21-.13s0-.24.06-.36 0-.09.11-.07a1 1 0 0 0 .27 0c0 .05 0 .08-.05.07h-.2c-.06 0-.08 0-.09.06s-.05.32-.07.48 0 .06-.08.05H38c-.13 0-.13 0-.11-.13s0 0 0 .06" style="fill:#141815"/><path class="q" d="M38 12a.41.41 0 0 1-.24 0 .07.07 0 0 0-.1.07s0 .09.06.09h.22s.06 0 .06.06v.39a1.73 1.73 0 0 1 0-.3s0-.07-.06-.07h-.25c-.05 0-.06 0 0-.06 0-.2 0-.2.26-.17A.23.23 0 0 1 38 12m.63.12a.36.36 0 0 0-.21 0c-.16 0-.16 0-.14-.14l.06-.36v-.09a.13.13 0 0 0-.17 0c0-.09 0-.09.08-.08s.18 0 .15.18l-.08.37s0 .06.06.07a1.15 1.15 0 0 0 .19 0s.08 0 .06.06m-.69.48a1.39 1.39 0 0 0 0 .18v-.18m.17-.81a.21.21 0 0 1 0 .19.85.85 0 0 1 0-.19m-2.78-.41a1.27 1.27 0 0 1 .5-.79s.08 0 .11 0 .05.11 0 .13a.88.88 0 0 0-.56.64" style="fill:#141815"/><path class="q" d="M35.33 11.39a.08.08 0 0 1 0 .06.07.07 0 0 1 0-.07m1.84-.77a.11.11 0 0 1-.12-.06s0 0 .08-.05a.16.16 0 0 1 .15 0 .26.26 0 0 1-.13.08m.07.22a.13.13 0 0 1-.13 0 .16.16 0 0 1 .14 0" style="fill:#141815"/><path class="v" d="m12.427 54.117-.44-2h.11v.07a.54.54 0 0 0 .19.36.618.618 0 0 0 .42 0l1.17-.25a3.026 3.026 0 0 0-.14-.52.418.418 0 0 0-.21-.19 1.491 1.491 0 0 0-.55-.09 3.95 3.95 0 0 1-.71-.08.902.902 0 0 1-.41-.22.828.828 0 0 1-.23-.44.643.643 0 0 1 .06-.48.519.519 0 0 1 .36-.3.377.377 0 0 1 .31.05.41.41 0 0 1 .16.26.35.35 0 0 1-.31.44c-.126.033-.18.09-.16.17a.271.271 0 0 0 .2.19c.183.053.371.083.56.09.201.01.401.03.6.06a.866.866 0 0 1 .4.14.808.808 0 0 1 0-.31.828.828 0 0 1 .16-.22c.067-.074.244-.234.53-.48l.63-.55a.643.643 0 0 0 .19-.27.597.597 0 0 0 0-.33h.11l.28 1.31-1.29 1.11a1.332 1.332 0 0 0-.26.27.494.494 0 0 0 0 .28l1.33-.29a.43.43 0 0 0 .34-.2.859.859 0 0 0 0-.45h.11l.44 2h-.11a.742.742 0 0 0-.2-.42.562.562 0 0 0-.43 0l-2.63.57a.89.89 0 0 0-.44.18.475.475 0 0 0 0 .41v.08l-.14.05Z" style="fill:#06488e" transform="rotate(-24.332 13.991 51.667)"/><path class="v" d="M13.688 47.719h-.11c0-.18-.136-.26-.41-.24l-1.35.1 1.41.69c.26 0 .387-.1.38-.3h.11l.09 1.37h-.11a.276.276 0 0 0-.11-.23.564.564 0 0 0-.34 0l-1.7.12c-.273 0-.403.113-.39.34h-.12l-.1-1.41h.11c.001.068.03.133.08.18a.637.637 0 0 0 .33 0h1.37l-1.43-.69a.564.564 0 0 0-.3.09.231.231 0 0 0-.07.21h-.11l-.1-1.41h.11a.333.333 0 0 0 .1.23.422.422 0 0 0 .3.06l1.8-.16a.54.54 0 0 0 .32-.09.298.298 0 0 0 .03-.24h.11l.1 1.38Z" style="fill:#06488e" transform="rotate(-24.332 12.313 47.954)"/><path class="v" d="M8.526 46.352a.39.39 0 1 1 .78.003.39.39 0 0 1-.78-.003m0-1.11a.39.39 0 1 1 .78.017.39.39 0 0 1-.78-.017m1.28.14h2.19a.664.664 0 0 0 .38-.06.37.37 0 0 0 .1-.26h.11v1.5h-.12a.356.356 0 0 0-.1-.27.66.66 0 0 0-.36-.07h-1.62a.664.664 0 0 0-.38.06.367.367 0 0 0-.1.26h-.1v-1.16Z" style="fill:#06488e" transform="rotate(-24.332 10.556 45.802)"/><path class="v" d="m8.796 44.51.17-1.52c.02-.272.11-.533.26-.76a.56.56 0 0 1 .54-.25c.335.06.571.361.55.7a.77.77 0 0 1 .8-.77c.24.02.445.181.52.41.111.321.139.665.08 1l-.17 1.45h-.11a.337.337 0 0 0-.07-.26.576.576 0 0 0-.32-.05l-1.6-.18a.991.991 0 0 0-.42 0 .312.312 0 0 0-.12.24h-.11v-.01Zm1.35-1c.04-.494-.106-.74-.44-.74-.333 0-.533.213-.6.64l1.04.1Zm.19 0 .9.1a.325.325 0 0 0 .2 0 .237.237 0 0 0 .08-.19.58.58 0 0 0-.55-.65.458.458 0 0 0-.43.15 1.194 1.194 0 0 0-.2.62" style="fill:#06488e" transform="rotate(-24.332 10.271 43.34)"/><path class="v" d="m10.348 39.29.09-.07c.194.154.343.358.43.59.06.209.06.431 0 .64a1.067 1.067 0 0 1-.6.77 1.566 1.566 0 0 1-1.05.11 1.7 1.7 0 0 1-.87-.51 1.163 1.163 0 0 1-.29-1.09c.04-.244.168-.465.36-.62a.63.63 0 0 1 .53-.14.355.355 0 0 1 .24.16c.037.09.037.19 0 .28a.39.39 0 0 1-.18.26.673.673 0 0 1-.43 0 .444.444 0 0 0-.27 0 .21.21 0 0 0-.11.14.291.291 0 0 0 .09.27c.183.161.409.265.65.3.252.043.509.043.76 0 .214-.017.418-.093.59-.22a.607.607 0 0 0 .21-.35.577.577 0 0 0 0-.28 1.24 1.24 0 0 0-.18-.36" style="fill:#06488e" transform="rotate(-24.332 9.468 40.166)"/><path class="v" d="M10.034 39.07h-.1a.318.318 0 0 0 0-.26.627.627 0 0 0-.3-.16l-1.62-.57a.562.562 0 0 0-.32 0 .33.33 0 0 0-.18.18h-.1l.45-1.34h.1a.31.31 0 0 0 0 .26.744.744 0 0 0 .31.17l.63.21.07-.2c.093-.374.279-.718.54-1a.62.62 0 0 1 1.07.31c.057.337.019.683-.11 1l-.44 1.4Zm-.91-1.49.82.28a.31.31 0 0 0 .26 0 .27.27 0 0 0 .1-.14.571.571 0 0 0 0-.43.556.556 0 0 0-.35-.3c-.36-.12-.626.07-.8.57" style="fill:#06488e" transform="rotate(-24.332 9.012 37.614)"/><path class="v" d="m7.03 34.668.61-1.27h.1a.252.252 0 0 0 0 .23.749.749 0 0 0 .29.2l.61.29c.085-.138.12-.3.1-.46a.99.99 0 0 0-.27-.39 1.73 1.73 0 0 1-.44-.49.59.59 0 0 1 0-.47.663.663 0 0 1 .3-.31.44.44 0 0 1 .6.21.328.328 0 0 1 0 .29.31.31 0 0 1-.46.16c-.146-.067-.233-.067-.26 0a.51.51 0 0 0 .23.45c.106.108.206.221.3.34.046.071.08.148.1.23.087-.129.199-.238.33-.32a1.77 1.77 0 0 1 .57-.12l.5-.05a.62.62 0 0 0 .51-.24h.1l-.46 1-1.57.16-.08.16.69.33a.734.734 0 0 0 .35.1.24.24 0 0 0 .25-.16h.1l-.61 1.27h-.1a.349.349 0 0 0 0-.23.497.497 0 0 0-.29-.23l-1.47-.71a.749.749 0 0 0-.37-.1.27.27 0 0 0-.2.18l-.06-.05Z" style="fill:#06488e" transform="rotate(-24.332 8.94 33.879)"/><path class="v" d="m10.427 31.013-.09-.06c.094-.147.03-.294-.19-.44l-1.14-.73.71 1.4c.22.14.38.14.48 0l.09.06-.76 1.18-.09-.06a.278.278 0 0 0 .05-.3.562.562 0 0 0-.24-.24l-1.44-.92c-.233-.147-.406-.147-.52 0l-.09-.06.76-1.19.09.06a.252.252 0 0 0 0 .23c.06.093.142.169.24.22l1.14.73-.76-1.33a.556.556 0 0 0-.29-.11.23.23 0 0 0-.18.12l-.09-.06.76-1.19.09.06a.33.33 0 0 0-.06.24c.04.097.115.175.21.22l1.48 1a.549.549 0 0 0 .31.12.31.31 0 0 0 .2-.16l.09.06-.76 1.15Z" style="fill:#06488e" transform="rotate(-24.332 9.192 30.373)"/><path class="v" d="M8.525 25.85a1.68 1.68 0 0 1-.6.49.449.449 0 0 1-.49 0 .285.285 0 0 1-.11-.19.252.252 0 0 1 .06-.19.408.408 0 0 1 .5 0 .444.444 0 0 0 .27 0 .452.452 0 0 0 .22-.16.486.486 0 0 0 .15-.28.494.494 0 0 0-.09-.23.43.43 0 0 1-.06-.52.26.26 0 0 1 .18-.09.278.278 0 0 1 .21.08.449.449 0 0 1 .13.46 1.533 1.533 0 0 1-.36.66m2.52 2-.08-.07c.114-.134.07-.287-.13-.46l-1-.87.53 1.48c.2.166.36.166.48 0l.08.07-.9 1.08-.08-.07a.279.279 0 0 0 .08-.24.561.561 0 0 0-.21-.27l-1.31-1.1c-.213-.18-.386-.18-.52 0l-.08-.07.9-1.08.08.07a.248.248 0 0 0-.07.22c.047.1.119.187.21.25l1 .87-.54-1.49a.555.555 0 0 0-.28-.19.229.229 0 0 0-.2.1l-.08-.07.9-1.08.08.07a.331.331 0 0 0-.09.23.423.423 0 0 0 .18.25l1.35 1.13c.08.084.186.14.3.16a.301.301 0 0 0 .22-.13l.08.07-.9 1.14Z" style="fill:#06488e" transform="rotate(-24.332 9.64 26.895)"/><path class="v" d="m9.704 22.068.9-.73 1.63.89-.54-1.78.87-.71.07.09a.299.299 0 0 0-.12.22c.016.109.065.21.14.29l1.09 1.33a.593.593 0 0 0 .25.21.29.29 0 0 0 .24-.07l.07.08-1.13.92-.07-.09a.318.318 0 0 0 .14-.24.534.534 0 0 0-.15-.3l-1.11-1.36.71 2.4-.12.1-2.16-1.17 1.13 1.39a.476.476 0 0 0 .23.17.332.332 0 0 0 .26-.09l.07.08-.62.52-.07-.08a.298.298 0 0 0 .07-.22.49.49 0 0 0-.14-.28l-1.09-1.33a.48.48 0 0 0-.24-.18.308.308 0 0 0-.24.07l-.07-.13Z" style="fill:#06488e" transform="rotate(-24.772 12.004 21.978)"/><path class="v" d="M11.813 17.205a.46.46 0 1 1 .5.773.46.46 0 0 1-.5-.773m1.08.9 1.2 1.84a.663.663 0 0 0 .26.28.371.371 0 0 0 .27-.07l.06.09-1.25.82-.05-.1a.359.359 0 0 0 .17-.24.655.655 0 0 0-.17-.34l-.89-1.35a.651.651 0 0 0-.26-.28.369.369 0 0 0-.27.07l-.06-.09.99-.63Z" style="fill:#06488e" transform="rotate(-24.772 13.143 19.098)"/><path class="v" d="M15.946 17.581h.11c.008.247-.05.493-.17.71-.108.19-.267.346-.46.45a1.071 1.071 0 0 1-1 .06 1.568 1.568 0 0 1-.77-.72 1.693 1.693 0 0 1-.21-1 1.16 1.16 0 0 1 .63-.94.999.999 0 0 1 .76-.12.627.627 0 0 1 .45.3.357.357 0 0 1 0 .29.37.37 0 0 1-.19.22.389.389 0 0 1-.31 0 .678.678 0 0 1-.32-.29.448.448 0 0 0-.2-.19.21.21 0 0 0-.18 0 .293.293 0 0 0-.14.25 1.27 1.27 0 0 0 .2.69c.122.225.281.428.47.6.152.149.343.253.55.3a.611.611 0 0 0 .4-.07.587.587 0 0 0 .27-.16c.069-.115.12-.24.15-.37" style="fill:#06488e" transform="rotate(-24.772 14.747 17.445)"/><path class="v" d="M15.969 17.087v-.1a.32.32 0 0 0 .13-.2.631.631 0 0 0-.07-.33l-.64-1.54a.55.55 0 0 0-.18-.26.326.326 0 0 0-.26 0v-.1l1.26-.57v.1a.312.312 0 0 0-.17.2.743.743 0 0 0 .08.34l.25.61.2-.08a2.274 2.274 0 0 1 1.09-.23.63.63 0 0 1 .47 1.02 1.84 1.84 0 0 1-.81.56l-1.35.58Zm.52-1.67.33.8a.315.315 0 0 0 .16.2.274.274 0 0 0 .17 0 .57.57 0 0 0 .31-.76c-.146-.354-.48-.427-1-.22" style="fill:#06488e" transform="rotate(-24.772 16.608 15.537)"/><path class="v" d="m17.166 11.971 1.36-.38v.11a.25.25 0 0 0-.18.14.74.74 0 0 0 0 .35l.18.66a.708.708 0 0 0 .41-.23.988.988 0 0 0 .12-.46c.04-.236.129-.461.26-.66a.589.589 0 0 1 .38-.28.66.66 0 0 1 .43 0 .44.44 0 0 1 .24.59.34.34 0 0 1-.22.18.31.31 0 0 1-.42-.24c-.08-.167-.153-.227-.22-.18a.52.52 0 0 0-.18.47c.005.153.002.307-.01.46a.762.762 0 0 1-.11.23c.152-.033.309-.033.46 0 .172.091.327.209.46.35l.37.34a.623.623 0 0 0 .51.22v.11l-1 .29-1.18-1.06h-.17l.21.74c.025.122.08.235.16.33a.24.24 0 0 0 .23 0v.11l-1.36.38v-.11a.352.352 0 0 0 .2-.13.493.493 0 0 0 0-.37l-.47-1.43a.746.746 0 0 0-.17-.35.267.267 0 0 0-.26 0l-.03-.18Z" style="fill:#06488e" transform="rotate(-24.772 19.086 12.863)"/><path class="v" d="M22.209 12.144v-.11c.174 0 .244-.144.21-.43l-.2-1.34-.61 1.46c.067.28.177.396.33.35v.11l-1.39.21v-.11a.281.281 0 0 0 .22-.14.564.564 0 0 0 0-.34l-.23-1.66c-.04-.274-.163-.394-.37-.36v-.11l1.39-.21v.11a.248.248 0 0 0-.2.12.637.637 0 0 0 0 .33l.2 1.34.58-1.48a.547.547 0 0 0-.11-.29.229.229 0 0 0-.21-.06v-.11l1.39-.21v.11a.332.332 0 0 0-.22.11.42.42 0 0 0 0 .3l.22 1.73a.549.549 0 0 0 .12.31.31.31 0 0 0 .25 0v.11l-1.37.26Z" style="fill:#06488e" transform="rotate(-24.772 21.874 10.804)"/><path class="v" d="M24.836 10.478v-.11c.18 0 .267-.134.26-.4v-1.36l-.79 1.38c0 .26.094.39.28.39v.11h-1.41v-.08a.278.278 0 0 0 .24-.1.565.565 0 0 0 .06-.33v-1.71c0-.274-.106-.41-.32-.41v-.11h1.41v.08a.25.25 0 0 0-.21.09.632.632 0 0 0-.05.33v1.35l.76-1.39a.554.554 0 0 0-.08-.3.23.23 0 0 0-.2-.08v-.08h1.41a.328.328 0 0 0-.23.09.425.425 0 0 0-.07.3v1.76a.547.547 0 0 0 .08.33.303.303 0 0 0 .25.08v.14l-1.39.03Zm-.17-3.19a1.68 1.68 0 0 1-.77-.13.45.45 0 0 1-.3-.41.282.282 0 0 1 .07-.21.253.253 0 0 1 .18-.08.41.41 0 0 1 .35.36c.022.089.071.17.14.23a.449.449 0 0 0 .27.06.487.487 0 0 0 .31-.07.509.509 0 0 0 .11-.22.431.431 0 0 1 .35-.39.261.261 0 0 1 .19.07.28.28 0 0 1 .08.21.448.448 0 0 1-.26.41 1.549 1.549 0 0 1-.73.16" style="fill:#06488e" transform="rotate(-24.772 24.691 8.458)"/><path class="v" d="m28.073 5.525 1.14.19.38 1.81 1-1.58 1.11.19v.11a.296.296 0 0 0-.24.06.52.52 0 0 0-.12.3l-.29 1.7a.58.58 0 0 0 0 .33.29.29 0 0 0 .22.14v.11l-1.44-.24v-.11a.322.322 0 0 0 .26-.08.548.548 0 0 0 .13-.31l.3-1.69-1.34 2.06-.15-.06-.54-2.36-.3 1.77a.464.464 0 0 0 0 .29.33.33 0 0 0 .24.14v.11l-.84-.15v-.11a.302.302 0 0 0 .25-.05.505.505 0 0 0 .12-.28l.33-1.75a.48.48 0 0 0 0-.3.31.31 0 0 0-.22-.13v-.11Z" style="fill:#06488e" transform="rotate(-25.377 29.648 7.205)"/><path class="v" d="m34.231 6.698-1.46-.44a1.421 1.421 0 0 0 0 .92.618.618 0 0 0 .4.38c.11.035.229.035.34 0 .148-.058.283-.142.4-.25l.08.09a1.674 1.674 0 0 1-.66.48 1.078 1.078 0 0 1-.66 0 1.05 1.05 0 0 1-.76-.72 1.672 1.672 0 0 1 0-1c.103-.392.354-.729.7-.94.294-.199.663-.25 1-.14a.998.998 0 0 1 .6.54c.127.348.127.731 0 1.08m-.6-.4c.072-.207.119-.422.14-.64a.543.543 0 0 0-.14-.31.248.248 0 0 0-.14-.1.289.289 0 0 0-.28.07 1.29 1.29 0 0 0-.37.64v.1l.79.24Z" style="fill:#06488e" transform="rotate(-25.377 33.07 6.475)"/><path class="v" d="M37.793 5.455v.1a.257.257 0 0 0-.27 0 .551.551 0 0 0-.15.23l-.73 1.65a.457.457 0 0 0-.05.32.34.34 0 0 0 .18.16l-.32.77h-.1a.78.78 0 0 0-.57-1l-.74-.31a.789.789 0 0 0-1.11.26h-.1l.32-.77a.79.79 0 0 0 .78-.44c.297-.354.537-.752.71-1.18.047-.102.081-.21.1-.32a.248.248 0 0 0 0-.17.507.507 0 0 0-.19-.12v-.1l2.24.92Zm-1.12-.26-.68-.28-.17.4a3.481 3.481 0 0 1-1.17 1.64l.84.35a.29.29 0 0 0 .44-.22l.74-1.89Z" style="fill:#06488e" transform="rotate(-25.377 35.813 6.61)"/><path class="v" d="m38.63 7.471.05-.1c.153.086.296.013.43-.22l.66-1.18-1.35.8c-.127.226-.127.386 0 .48l-.05.1-1.23-.69.05-.1a.284.284 0 0 0 .26 0 .58.58 0 0 0 .22-.25l.83-1.49c.133-.24.11-.41-.07-.51l.09-.04 1.23.69-.05.1a.246.246 0 0 0-.23 0 .608.608 0 0 0-.21.26l-.66 1.18 1.36-.81a.567.567 0 0 0 .13-.42.23.23 0 0 0-.13-.17l.05-.1 1.23.69-.05.1a.328.328 0 0 0-.25 0 .418.418 0 0 0-.21.22l-.86 1.54a.53.53 0 0 0-.1.32.308.308 0 0 0 .17.19l-.05.1-1.26-.69Z" style="fill:#06488e" transform="rotate(-25.377 39.19 6.216)"/><path class="v" d="m44.614 6.173-.06.09a.327.327 0 0 0-.23-.06.531.531 0 0 0-.25.23l-1 1.32a.748.748 0 0 0-.18.35.374.374 0 0 0 .13.22l-.07.09-1.12-.82.07-.09a.361.361 0 0 0 .26.06.915.915 0 0 0 .26-.28l.41-.56a3.32 3.32 0 0 1-.86-.4.75.75 0 0 1-.27-.34.532.532 0 0 1 0-.33c.041-.116.102-.224.18-.32l.22-.3a.752.752 0 0 0 .17-.32.338.338 0 0 0-.13-.22l.06-.09 1.11.82-.06.09a.34.34 0 0 0-.2 0 .525.525 0 0 0-.26.23l-.24.26a.78.78 0 0 0-.17.32.26.26 0 0 0 .14.22c.14.092.291.166.45.22l.43-.59a.772.772 0 0 0 .15-.31.302.302 0 0 0-.11-.22l.06-.09 1.11.82Z" style="fill:#06488e" transform="rotate(-25.377 43.146 6.408)"/><path class="v" d="m43.963 7.469.08-.08a.29.29 0 0 0 .26.08.57.57 0 0 0 .28-.19l1.17-1.23a.594.594 0 0 0 .19-.3.301.301 0 0 0-.12-.23l.05-.05 1 1-.08.08a.278.278 0 0 0-.2-.09.556.556 0 0 0-.27.19l-.5.53.58.55.5-.53a.794.794 0 0 0 .18-.25.221.221 0 0 0-.09-.22l.08-.08 1 1-.08.08a.299.299 0 0 0-.23-.1.44.44 0 0 0-.24.16l-1.22 1.21a.554.554 0 0 0-.18.29.33.33 0 0 0 .18.18l-.08.08-1-1 .08-.08a.28.28 0 0 0 .2.09.573.573 0 0 0 .27-.2l.57-.6-.58-.55-.56.59a.622.622 0 0 0-.19.29c0 .078.037.152.1.2l-.12.18-1.03-1Z" style="fill:#06488e" transform="rotate(-25.377 46.018 7.509)"/><path class="v" d="m48.342 9.807.08-.07c.113.14.273.14.48 0l1-.86-1.55.25c-.2.166-.247.32-.14.46l-.03.02-.9-1.09.08-.07c.05.079.136.127.23.13a.58.58 0 0 0 .3-.16l1.29-1.08c.213-.174.253-.34.12-.5l.08-.07.9 1.09-.1.06a.25.25 0 0 0-.2-.11.612.612 0 0 0-.29.16l-1 .86 1.57-.26a.566.566 0 0 0 .19-.24.231.231 0 0 0-.06-.21l.08-.07.9 1.13h-.09a.33.33 0 0 0-.21-.13.414.414 0 0 0-.28.13l-1.36 1.12a.532.532 0 0 0-.21.26.297.297 0 0 0 .09.24l-.08.07-.89-1.06Z" style="fill:#06488e" transform="rotate(-25.377 49.327 8.817)"/><path class="v" d="m51.267 11.246.09-.06c.093.153.253.153.48 0l1.15-.72-1.57.05c-.22.14-.284.286-.19.44l-.07.07-.78-1.15.09-.06a.279.279 0 0 0 .21.15.582.582 0 0 0 .32-.12l1.45-.97c.233-.147.293-.307.18-.48l.09-.06.75 1.19-.09.06a.249.249 0 0 0-.22-.11.61.61 0 0 0-.31.12l-1.14.72 1.59-.06a.567.567 0 0 0 .22-.22.232.232 0 0 0 0-.22l.09-.06.75 1.19-.09.06a.329.329 0 0 0-.19-.13.416.416 0 0 0-.29.09l-1.49.91a.53.53 0 0 0-.24.23.297.297 0 0 0 .06.25l-.09.06-.76-1.17Zm2.65-1.8a1.68 1.68 0 0 1-.28-.72.448.448 0 0 1 .18-.46.28.28 0 0 1 .22 0 .248.248 0 0 1 .16.11.41.41 0 0 1-.13.49.436.436 0 0 0-.12.24.447.447 0 0 0 .09.26c.045.099.123.18.22.23a.512.512 0 0 0 .24 0 .43.43 0 0 1 .51.1.266.266 0 0 1 0 .2.282.282 0 0 1-.14.18.452.452 0 0 1-.48 0 1.537 1.537 0 0 1-.52-.54" style="fill:#06488e" transform="rotate(-25.377 52.702 10.33)"/><path class="v" d="m66.645 32.876.53 1.31h-.1a.25.25 0 0 0-.16-.17.731.731 0 0 0-.35.08l-.63.25c.045.153.14.287.27.38.149.057.311.078.47.06.226-.021.453.003.67.07a.591.591 0 0 1 .32.35.66.66 0 0 1 0 .43.44.44 0 0 1-.56.3.339.339 0 0 1-.21-.2.31.31 0 0 1 .19-.44c.147-.06.207-.123.18-.19a.52.52 0 0 0-.49-.13h-.42a.755.755 0 0 1-.24-.08c.032.152.032.308 0 .46a1.8 1.8 0 0 1-.29.5l-.29.4a.62.62 0 0 0-.17.54h-.1l-.4-1 .94-1.27-.07-.16-.7.41a.723.723 0 0 0-.31.19.24.24 0 0 0 0 .23h-.1l-.53-1.31h.1a.354.354 0 0 0 .15.18.5.5 0 0 0 .37-.06l1.52-.61a.76.76 0 0 0 .33-.2.273.273 0 0 0 0-.26l.08-.06Z" style="fill:#06488e" transform="rotate(22.731 65.898 34.836)"/><path class="v" d="M67.127 37.664a1.28 1.28 0 0 1 0 .7 1.19 1.19 0 0 1-.39.6 1.75 1.75 0 0 1-.68.35 1.584 1.584 0 0 1-1 0 1.18 1.18 0 0 1-.73-.84 1.14 1.14 0 0 1 .17-1c.221-.292.535-.5.89-.59a1.64 1.64 0 0 1 1.09.06c.344.139.598.438.68.8m-.2.07a.34.34 0 0 0-.18-.22.801.801 0 0 0-.47 0c-.22.04-.523.11-.91.21a3.926 3.926 0 0 0-.56.2.566.566 0 0 0-.27.22.326.326 0 0 0 0 .26.329.329 0 0 0 .13.19.503.503 0 0 0 .31.07 6.798 6.798 0 0 0 1.11-.24c.226-.053.444-.134.65-.24a.533.533 0 0 0 .12-.3.315.315 0 0 0 0-.21" style="fill:#06488e" transform="rotate(22.731 65.727 38.107)"/><path class="v" d="M63.728 41.386h.11c.012.086.05.167.11.23a.38.38 0 0 0 .32 0l2.06-.32-.12-.77-1.2.19a4.179 4.179 0 0 1-.9.07.668.668 0 0 1-.61-.56.51.51 0 0 1 .08-.4.448.448 0 0 1 .3-.19.419.419 0 0 1 .31.06.35.35 0 0 1 .15.25.31.31 0 0 1-.33.37c-.113 0-.167.03-.16.09a.25.25 0 0 0 .24.17c.295.018.59-.002.88-.06l.8-.12a.67.67 0 0 0 .36-.13.322.322 0 0 0 .07-.27h.11l.37 2.41h-.11a.3.3 0 0 0-.41-.24l-1.76.27a.548.548 0 0 0-.28.11.269.269 0 0 0-.06.25h-.11l-.22-1.41Z" style="fill:#06488e" transform="rotate(22.731 65.082 41.212)"/><path class="v" d="m64.355 45.312-.07-1.47a1.428 1.428 0 0 0-.86.33.62.62 0 0 0-.22.5.562.562 0 0 0 .11.32c.104.119.229.218.37.29l-.06.1a1.666 1.666 0 0 1-.67-.54 1.063 1.063 0 0 1-.22-.62 1.05 1.05 0 0 1 .43-1c.276-.192.603-.297.94-.3.4-.041.801.074 1.12.32.269.206.434.521.45.86.004.279-.108.547-.31.74-.279.24-.633.374-1 .38m.17-.74c.219 0 .437-.027.65-.08a.53.53 0 0 0 .26-.17.248.248 0 0 0 0-.17.29.29 0 0 0-.16-.24 1.291 1.291 0 0 0-.73-.14h-.1l.08.8Z" style="fill:#06488e" transform="rotate(22.731 64.2 44.148)"/><path class="v" d="M64.487 47.996h-.1a.26.26 0 0 0-.09-.26.565.565 0 0 0-.26-.07l-1.79-.1a.46.46 0 0 0-.32.06.34.34 0 0 0-.09.23h-.84v-.16a.78.78 0 0 0 .78-.88v-.8a.79.79 0 0 0-.68-.95v-.1h.84a.79.79 0 0 0 .64.61c.432.164.888.259 1.35.28.109.015.22.015.33 0a.24.24 0 0 0 .15-.09.492.492 0 0 0 .05-.22h.21l-.18 2.45Zm-.12-1.14v-.73h-.43a3.472 3.472 0 0 1-1.9-.63v.91a.29.29 0 0 0 .34.31l1.99.14Z" style="fill:#06488e" transform="rotate(22.731 62.832 46.481)"/><path class="v" d="M60.048 49.056h.11a.288.288 0 0 0 0 .25.54.54 0 0 0 .3.13l.81.15a.24.24 0 0 0-.05-.2l-1.05-.8.18-1h.11a.324.324 0 0 0 0 .18.478.478 0 0 0 .15.16l.69.52c.106.07.192.166.25.28.025.129.025.261 0 .39.214-.081.441-.119.67-.11.115-.008.229-.028.34-.06a.128.128 0 0 0 .09-.09s0-.09-.17-.12a.585.585 0 0 1-.26-.12.238.238 0 0 1 0-.22.317.317 0 0 1 .13-.2.389.389 0 0 1 .31 0 .47.47 0 0 1 .37.57.45.45 0 0 1-.21.32c-.193.066-.397.09-.6.07-.2.015-.396.062-.58.14a.438.438 0 0 0-.17.31l.75.17c.1.035.21.035.31 0a.302.302 0 0 0 .13-.21h.11l-.27 1.41h-.11a.328.328 0 0 0 0-.25.61.61 0 0 0-.32-.12l-.69-.13a.498.498 0 0 0 0 .26.4.4 0 0 0 .13.19c.142.098.288.188.44.27.161.076.299.193.4.34a.503.503 0 0 1 .05.33.5.5 0 0 1-.18.29.431.431 0 0 1-.37.08.42.42 0 0 1-.26-.14.29.29 0 0 1-.06-.25c.033-.187.18-.257.44-.21h.17a.512.512 0 0 0-.36-.31 1.516 1.516 0 0 1-.56-.42.9.9 0 0 1-.19.36.92.92 0 0 1-.38.17l-.78.22a.44.44 0 0 0-.19.08.348.348 0 0 0-.08.17h-.11l.18-1 1.27-.36a.24.24 0 0 0 .2-.16l-.87-.16a.433.433 0 0 0-.28 0 .417.417 0 0 0-.13.23h-.11l.3-1.4Z" style="fill:#06488e" transform="rotate(22.731 61.264 49.917)"/><path class="g" d="M30.74 63.48a29.35 29.35 0 0 1-3.89-1.22l-.36-.14.34-.87.36.14.19.07a1.6 1.6 0 0 0 .51.14.21.21 0 0 0 .1 0 2.41 2.41 0 0 0 .21-.5l1-2.88a2.8 2.8 0 0 0 .1-.34.11.11 0 0 0-.06 0 1.33 1.33 0 0 0-.43-.05h-.38l-.06-.52-.05-.42h.43a17.43 17.43 0 0 0 2.43-.2h.08l.22.06.37.1-1.4 5a2.32 2.32 0 0 0-.12.54l.05.05a1.07 1.07 0 0 0 .42.16h.17l.38.09-.22.91Z" style="fill:#fff"/><path class="v" d="m31.36 57-1.3 4.63a2.35 2.35 0 0 0-.13.68.48.48 0 0 0 .18.3 1.43 1.43 0 0 0 .58.25h.17v.16A28.9 28.9 0 0 1 27 61.9l.06-.15.19.07a1.85 1.85 0 0 0 .68.16.5.5 0 0 0 .34-.13 2.07 2.07 0 0 0 .3-.64l1-2.88a1.77 1.77 0 0 0 .12-.5.38.38 0 0 0-.09-.22.5.5 0 0 0-.23-.16 1.73 1.73 0 0 0-.59-.08v-.18a17.86 17.86 0 0 0 2.48-.2h.14" style="fill:#06488e"/><path class="g" d="M33.1 64a7.09 7.09 0 0 1-1.15-.1l-.39-.06.16-.84h.42a4.29 4.29 0 0 0 1.39-.2 2.24 2.24 0 0 0 .92-.57 1.5 1.5 0 0 0 .16-.23h-.37a2.15 2.15 0 0 1-1.49-.82 2 2 0 0 1-.34-1.7 2.68 2.68 0 0 1 .53-1.16 2.35 2.35 0 0 1 1-.74 2.49 2.49 0 0 1 .91-.18h.25a2.38 2.38 0 0 1 1.15.45 2.68 2.68 0 0 1 .85 1 3.17 3.17 0 0 1 .31 1.46 3.55 3.55 0 0 1-.64 2 3.73 3.73 0 0 1-1.92 1.39 5.37 5.37 0 0 1-1.75.3m1.76-5.54a1.53 1.53 0 0 0-.21.74 2.52 2.52 0 0 0 .06 1.44.29.29 0 0 0 .25.16h.19v-.58a5.07 5.07 0 0 0-.07-1.38.78.78 0 0 0-.17-.39h-.05" style="fill:#fff"/><path class="v" d="M32 63.48v-.12a4.75 4.75 0 0 0 1.62-.22 2.61 2.61 0 0 0 1.08-.67 4.9 4.9 0 0 0 .59-1s-.41.12-.56.14a1.87 1.87 0 0 1-.48 0 1.76 1.76 0 0 1-1.23-.67 1.66 1.66 0 0 1-.26-1.39 2.29 2.29 0 0 1 .45-1 2 2 0 0 1 .83-.62 2 2 0 0 1 1.95.24 2.29 2.29 0 0 1 .73.89A2.78 2.78 0 0 1 37 60.3a3.16 3.16 0 0 1-.57 1.76 3.36 3.36 0 0 1-1.73 1.25 5.54 5.54 0 0 1-2.72.17m3.42-2.41a2.38 2.38 0 0 0 .12-.85 5.46 5.46 0 0 0-.08-1.48 1.13 1.13 0 0 0-.27-.58.44.44 0 0 0-.25-.16.41.41 0 0 0-.37.14 1.9 1.9 0 0 0-.31.94 2.92 2.92 0 0 0 .11 1.68.67.67 0 0 0 .55.36.93.93 0 0 0 .53-.09" style="fill:#06488e"/><path class="g" d="M40.06 64.27a2.92 2.92 0 0 1-1.18-.27 2.38 2.38 0 0 1-1.11-1 2.85 2.85 0 0 1-.38-1.43 4 4 0 0 1 .56-2A4.69 4.69 0 0 1 39.42 58a5.58 5.58 0 0 1 2.14-.85l.38-.07.15.8-.28.12a5.07 5.07 0 0 0-1.13.65 2.44 2.44 0 0 0-.62.73 2.18 2.18 0 0 0-.12.29l.32-.05h.3a2.19 2.19 0 0 1 1.26.39 2.15 2.15 0 0 1 .89 1.45 2.35 2.35 0 0 1-.12 1.31 2.24 2.24 0 0 1-.88 1.05 2.94 2.94 0 0 1-1.34.47h-.31m-.41-3.34v.6a4.21 4.21 0 0 0 .2 1 1.13 1.13 0 0 0 .32.56.22.22 0 0 0 .14 0 .19.19 0 0 0 .14-.11 1.23 1.23 0 0 0 0-.7 2.56 2.56 0 0 0-.33-1.3.31.31 0 0 0-.24-.11h-.19" style="fill:#fff"/><path class="v" d="M41.63 57.52v.12a5.44 5.44 0 0 0-1.21.71 2.84 2.84 0 0 0-.71.84 7.43 7.43 0 0 0-.38 1.15s.25-.16.34-.2a2.64 2.64 0 0 1 .64-.14 1.84 1.84 0 0 1 1.3.31 1.76 1.76 0 0 1 .73 1.2 2 2 0 0 1-.1 1.1 1.86 1.86 0 0 1-.73.87 2.65 2.65 0 0 1-2.47.2 2 2 0 0 1-.93-.84 2.45 2.45 0 0 1-.33-1.24 3.6 3.6 0 0 1 .51-1.85 4.34 4.34 0 0 1 1.36-1.44 5.19 5.19 0 0 1 2-.79m-2.35 3.17a2.32 2.32 0 0 0 0 .88 4.59 4.59 0 0 0 .22 1.14 1.51 1.51 0 0 0 .46.75.62.62 0 0 0 .44.12.58.58 0 0 0 .42-.28 1.54 1.54 0 0 0 .08-1 3 3 0 0 0-.54-1.6.69.69 0 0 0-.6-.24 1 1 0 0 0-.5.18" style="fill:#06488e"/><path class="g" d="M44.25 63.5a2.18 2.18 0 0 1-.6-.08.87.87 0 0 1-.7-.64.8.8 0 0 1 .18-.68 1 1 0 0 1 .58-.36 1.81 1.81 0 0 1 .41 0h.13a6.41 6.41 0 0 1 .88.17 2.35 2.35 0 0 0 .53.07 1 1 0 0 0 .28 0 .76.76 0 0 0 .44-.32.38.38 0 0 0 .06-.36 1.06 1.06 0 0 0-1-.63 3.92 3.92 0 0 0-.68-.06 6.73 6.73 0 0 0-1.47.19l-.4.09-.57.13.11-.58a30 30 0 0 0 .45-3.12v-.27l.26-.07a18.75 18.75 0 0 0 2.71-.98l.54-.21v2.1l-.3.11c-.51.19-.89.32-1.28.45h.25a4.17 4.17 0 0 1 1.22.17 2.15 2.15 0 0 1 1.48 1.27 2.09 2.09 0 0 1 0 1.38 2.67 2.67 0 0 1-.9 1.31 4.21 4.21 0 0 1-1.59.81 4.06 4.06 0 0 1-1.06.16" style="fill:#fff"/><path class="v" d="M43.28 57.28a19.15 19.15 0 0 0 2.72-.89v1.21a20.08 20.08 0 0 1-2.4.75c0 .25-.05.38-.09.63a5.48 5.48 0 0 1 2.7 0 1.78 1.78 0 0 1 1.23 1 1.71 1.71 0 0 1 0 1.13 2.29 2.29 0 0 1-.78 1.12 3.83 3.83 0 0 1-1.44.73 2.77 2.77 0 0 1-1.45.08.52.52 0 0 1-.43-.35.42.42 0 0 1 .1-.36.64.64 0 0 1 .37-.23 1.47 1.47 0 0 1 .43 0 6.53 6.53 0 0 1 .82.16 2.73 2.73 0 0 0 .63.08 1.33 1.33 0 0 0 .39-.06 1.14 1.14 0 0 0 .65-.49.77.77 0 0 0 .09-.69 1.48 1.48 0 0 0-1.28-.88 5.87 5.87 0 0 0-2.31.13l-.4.09a30.38 30.38 0 0 0 .45-3.15" style="fill:#06488e"/><text style="white-space:pre;fill:#333;font-family:Arial,sans-serif;font-size:2.5px" x="62.396" y="23.022"> </text><text style="white-space:pre;fill:#06488e;font-size:1.4px" x="65.999" y="26.625"> </text><text style="fill:#06488e;white-space:pre" transform="translate(41.07 17.49) scale(.27547)"><textPath xlink:href="#f"/></text><text style="fill:#06488e;font-size:5.19998px;font-weight:700;line-height:7.99999px;white-space:pre" transform="rotate(65.36 68.648 15.083)"><textPath xlink:href="#g"></textPath></text><text style="white-space:pre;fill:#06488e;font-size:1.4px" x="68.701" y="32.01"> </text></g><path class="v" d="M64.015 20.826a1.28 1.28 0 0 1 0 .7 1.19 1.19 0 0 1-.39.6 1.75 1.75 0 0 1-.68.35 1.584 1.584 0 0 1-1 0 1.18 1.18 0 0 1-.73-.84 1.14 1.14 0 0 1 .17-1c.221-.292.535-.5.89-.59a1.64 1.64 0 0 1 1.09.06c.344.139.598.438.68.8m-.2.07a.34.34 0 0 0-.18-.22.801.801 0 0 0-.47 0c-.22.04-.523.11-.91.21a3.926 3.926 0 0 0-.56.2.566.566 0 0 0-.27.22.326.326 0 0 0 0 .26.329.329 0 0 0 .13.19.503.503 0 0 0 .31.07 6.798 6.798 0 0 0 1.11-.24c.226-.053.444-.134.65-.24a.533.533 0 0 0 .12-.3.315.315 0 0 0 0-.21" style="fill:#06488e" transform="rotate(-14.113 62.615 21.269)"/><path class="v" d="m62.499 25.084.17-1.52c.02-.272.11-.533.26-.76a.56.56 0 0 1 .54-.25c.335.06.571.361.55.7a.77.77 0 0 1 .8-.77c.24.02.445.181.52.41.111.321.139.665.08 1l-.17 1.45h-.11a.337.337 0 0 0-.07-.26.576.576 0 0 0-.32-.05l-1.6-.18a.991.991 0 0 0-.42 0 .312.312 0 0 0-.12.24h-.11v-.01Zm1.35-1c.04-.494-.106-.74-.44-.74-.333 0-.533.213-.6.64l1.04.1Zm.19 0 .9.1a.325.325 0 0 0 .2 0 .237.237 0 0 0 .08-.19.58.58 0 0 0-.55-.65.458.458 0 0 0-.43.15 1.194 1.194 0 0 0-.2.62" style="fill:#06488e" transform="rotate(151.764 63.974 23.914)"/><path class="v" d="m63.882 27.997.08-.07c.113.14.273.14.48 0l1-.86-1.55.25c-.2.166-.247.32-.14.46l-.03.02-.9-1.09.08-.07c.05.079.136.127.23.13a.58.58 0 0 0 .3-.16l1.29-1.08c.213-.174.253-.34.12-.5l.08-.07.9 1.09-.1.06a.25.25 0 0 0-.2-.11.612.612 0 0 0-.29.16l-1 .86 1.57-.26a.566.566 0 0 0 .19-.24.231.231 0 0 0-.06-.21l.08-.07.9 1.13h-.09a.33.33 0 0 0-.21-.13.414.414 0 0 0-.28.13l-1.36 1.12a.532.532 0 0 0-.21.26.297.297 0 0 0 .09.24l-.08.07-.89-1.06Z" style="fill:#06488e" transform="rotate(25.28 64.867 27.007)"/><path class="v" d="m64.402 31.492.09-.06c.093.153.253.153.48 0l1.15-.72-1.57.05c-.22.14-.284.286-.19.44l-.07.07-.78-1.15.09-.06a.279.279 0 0 0 .21.15.582.582 0 0 0 .32-.12l1.45-.97c.233-.147.293-.307.18-.48l.09-.06.75 1.19-.09.06a.249.249 0 0 0-.22-.11.61.61 0 0 0-.31.12l-1.14.72 1.59-.06a.567.567 0 0 0 .22-.22.232.232 0 0 0 0-.22l.09-.06.75 1.19-.09.06a.329.329 0 0 0-.19-.13.416.416 0 0 0-.29.09l-1.49.91a.53.53 0 0 0-.24.23.297.297 0 0 0 .06.25l-.09.06-.76-1.17Zm2.65-1.8a1.68 1.68 0 0 1-.28-.72.448.448 0 0 1 .18-.46.28.28 0 0 1 .22 0 .248.248 0 0 1 .16.11.41.41 0 0 1-.13.49.436.436 0 0 0-.12.24.447.447 0 0 0 .09.26c.045.099.123.18.22.23a.512.512 0 0 0 .24 0 .43.43 0 0 1 .51.1.266.266 0 0 1 0 .2.282.282 0 0 1-.14.18.452.452 0 0 1-.48 0 1.537 1.537 0 0 1-.52-.54" style="fill:#06488e" transform="rotate(25.28 65.837 30.576)"/></g><text class="w" transform="translate(171.704 169.47)" style="white-space:pre;fill:#364e72;font-family:FuturaDemiC;font-size:14.94px;line-height:23.904px;perspective-origin:28.5px 14.9375px"> <tspan x="0" y="14.94"> </tspan><tspan x="86.68" y="14.94"></tspan><tspan x="98.83" y="14.94"> </tspan><tspan x="0" y="29.88"></tspan></text></svg>