<?xml version="1.0" encoding="UTF-8"?> <svg xmlns="http://www.w3.org/2000/svg" xmlns:xlink="http://www.w3.org/1999/xlink" viewBox="0 0 260 69.22"><defs><style>.a,.d,.h{fill:none;}.b{fill:#2d388b;}.c{fill:#feca08;}.d{stroke:#706f6f;}.d,.h{stroke-miterlimit:10;}.e{font-size:6.93px;fill:#706f6f;font-family:FuturaLightC;}.f{clip-path:url(#a);}.g{fill:#fff;}.h{stroke:#1d1d1b;}.i{clip-path:url(#c);}.j{fill:url(#d);}.k{clip-path:url(#e);}.l{fill:url(#f);}.m{fill:#fff17b;}.n{fill:#192325;}.o{fill:#009a4d;}.p{fill:#0a478d;}.q{fill:#141815;}.r{fill:#f7f8f8;}.s{fill:#fdfefe;}.t{fill:#a61930;}.u{fill:#253164;}.v{fill:#06488e;}.w{font-size:14.94px;fill:#364e72;font-family:FuturaDemiC;}</style><clipPath id="a"><rect class="a" x="-17.15" y="-3.79" width="108.63" height="76.81"></rect></clipPath><clipPath id="c"><path class="a" d="M19,34.06A18.16,18.16,0,1,0,37.2,15.91,18.16,18.16,0,0,0,19,34.06"></path></clipPath><radialGradient id="d" cx="-2.52" cy="-7.57" r="0.13" gradientTransform="matrix(140.71, 0, 0, -140.71, 386.93, -1027.28)" gradientUnits="userSpaceOnUse"><stop offset="0" stop-color="#b6e0f8"></stop><stop offset="1" stop-color="#06478c"></stop></radialGradient><clipPath id="e"><path class="a" d="M37.44,34.91a0.28,0.28,0,0,1-.15.11,0.25,0.25,0,0,0-.24.21,0.32,0.32,0,0,0,.2.27,2.33,2.33,0,0,0,1.07.24h0.07a0.31,0.31,0,0,0,.34-0.14,0.34,0.34,0,0,0-.14-0.37A1.89,1.89,0,0,0,38,34.79a0.54,0.54,0,0,0-.27-0.08,0.43,0.43,0,0,0-.34.21M35,32.79a0.25,0.25,0,0,0-.25.23c0,0.14.16,0.12,0.26,0.13a0.35,0.35,0,0,1,.32.17,0.86,0.86,0,0,0,.38.34,1.24,1.24,0,0,1,.57.64,0.72,0.72,0,0,0,.74.44c0.21,0,.29-0.21.15-0.36-0.41-.42-0.74-0.92-1.19-1.3a1.19,1.19,0,0,0-.76-0.32,1,1,0,0,0-.2,0m18.41-3.85a0.29,0.29,0,0,0-.09.36,0.17,0.17,0,0,0,.25.13c0.07,0,.14-0.08.19,0a0.16,0.16,0,0,0,.24.11,0.27,0.27,0,0,0,.14-0.27c0-.26-0.12-0.34-0.34-0.2s-0.11,0-.15-0.05a0.22,0.22,0,0,0-.16-0.13l-0.08,0m-5.77-5.79c-0.11,0-.22.07-0.34,0.09a0.19,0.19,0,0,0-.11.35,0.9,0.9,0,0,0,.68.32,0.35,0.35,0,0,0,.36-0.36,0.44,0.44,0,0,0-.46-0.41l-0.13,0M32.88,50.65c0-.12.08-0.12,0.15-0.17A7,7,0,0,1,34.45,50a1.64,1.64,0,0,1,.43-0.08,0.17,0.17,0,0,1,.17.06,0.15,0.15,0,0,1-.05.18,2.18,2.18,0,0,1-1.38.82l-0.32,0h0a0.35,0.35,0,0,1-.36-0.34m-1.08,0a7.68,7.68,0,0,1-2.07-.91,2.17,2.17,0,0,1-.86-1.55,6.39,6.39,0,0,1,.07-1.81c0-.25.1-0.28,0.33-0.17q1.67,0.77,3.4,1.38l0.16,0.06c0.24,0.1.26,0.17,0.06,0.34a4.82,4.82,0,0,0-.95,1.21,0.27,0.27,0,0,0,0,.21,0.13,0.13,0,0,1-.09.15c-0.36.2-.39,0.33-0.22,0.68a2.61,2.61,0,0,0,.26.38l-0.06,0h0m-3.51-1.55A15,15,0,0,1,26.62,48a8.89,8.89,0,0,1-3.36-5,0.22,0.22,0,0,1,0-.23c0.08-.06.15,0,0.21,0.08a33.23,33.23,0,0,0,3.68,2.3c0.34,0.19.69,0.34,1,.49a0.51,0.51,0,0,1,.35.46c-0.07.57-.12,1.14-0.14,1.7a5.76,5.76,0,0,0,.11,1.11,0.18,0.18,0,0,1,0,.19,0.1,0.1,0,0,1-.07,0,0.33,0.33,0,0,1-.14-0.06m15.43-6c0-.3,0-0.3.31-0.26,1,0.12,1.92.15,2.88,0.21,0.26,0,.31.07,0.21,0.31a17.22,17.22,0,0,1-2.92,5c-0.2.23-.41,0.43-0.61,0.66a0.71,0.71,0,0,1-.7.28,1.17,1.17,0,0,0-.2,0,27.19,27.19,0,0,1-3.07-.31,0.18,0.18,0,0,1-.17-0.08c0-.09.07-0.12,0.12-0.17a1.86,1.86,0,0,1,1.15-.41,3.27,3.27,0,0,0,2.82-1.62A1.63,1.63,0,0,1,44.26,46a3.25,3.25,0,0,0,1.26-1.07,0.77,0.77,0,0,0-.09-1.14A1.76,1.76,0,0,0,44,43.25H43.91A0.16,0.16,0,0,1,43.71,43M31.5,38.91c0.07-.13-0.06-0.19-0.14-0.26C31,38.37,31,38.37,31.17,38c0.3-.89.66-1.76,1-2.63,0.11-.27.18-0.28,0.37-0.05a1.18,1.18,0,0,1,.22.57,0.88,0.88,0,0,0,.39.79,0.36,0.36,0,0,1,.11.29,0.52,0.52,0,0,0,.25.38,1.62,1.62,0,0,1,.4.34,0.26,0.26,0,0,0,.44,0,0.44,0.44,0,0,1,.12-0.09c0.18-.1.29-0.06,0.28,0.15a6.69,6.69,0,0,1-.09,1.16,0.35,0.35,0,0,1-.16.24,2.38,2.38,0,0,1-1.09.33,0.35,0.35,0,0,0-.32.06c-0.09.11,0,.2,0.07,0.29a0.19,0.19,0,0,1,0,.21,0.45,0.45,0,0,0-.09.46c0,0.12-.11.15-0.18,0.2a0.5,0.5,0,0,0-.24.74,5.06,5.06,0,0,1,.51,1.94,2.07,2.07,0,0,0,.72,1.41L34,44.89a1,1,0,0,1,.13,1.45c-0.17.25-.37,0.49-0.55,0.74a0.44,0.44,0,0,1-.51.16A6,6,0,0,1,32.43,47c-0.79-.32-1.6-0.61-2.41-0.89-0.16-.05-0.3-0.14-0.45-0.2a0.74,0.74,0,0,1-.5-0.83,3.27,3.27,0,0,1,.16-1c0.5-1.61.92-3.25,1.49-4.84,0.11-.31.09-0.4,0.49-0.28l0.14,0a0.16,0.16,0,0,0,.15-0.08m-3.15,6.34a43,43,0,0,1-4.23-2.5,2.56,2.56,0,0,1-1.24-2.27,19,19,0,0,1,.91-5.58c0.08-.23.13-0.25,0.33-0.09A29.39,29.39,0,0,0,28,37.35c0.7,0.39,1.41.74,2.13,1.1a0.39,0.39,0,0,1,.27.59,18.93,18.93,0,0,1-.64,2,24.16,24.16,0,0,0-1,4c0,0.18-.07.26-0.16,0.26a0.43,0.43,0,0,1-.18-0.06M52,33.67a0.18,0.18,0,0,1,.21,0,0.19,0.19,0,0,1,0,.21l-0.58,1.3a3,3,0,0,0-.19,1.71,2.28,2.28,0,0,1-.11,1c-0.11.35,0,.71-0.09,1.06a0.06,0.06,0,0,0,0,0,9.65,9.65,0,0,1,.58,1.45c0.26,0.45.43,0.51,0.88,0.25,0.1-.06.2-0.22,0.31-0.13a0.39,0.39,0,0,1-.05.35,0.86,0.86,0,0,1-.56.65,10.3,10.3,0,0,1-3.28.88l-0.89.08c-0.27,0-.33,0-0.24-0.28A24.11,24.11,0,0,0,48.77,39a26.13,26.13,0,0,0,.36-3.09c0-.27-0.06-0.55,0-0.78a3.29,3.29,0,0,1,.05-0.83A0.34,0.34,0,0,1,49.54,34h0.26A7.81,7.81,0,0,0,52,33.67m-4.92,8.9a32.78,32.78,0,0,1-4.31-.44c-0.2,0-.31-0.08-0.21-0.32a0.65,0.65,0,0,0-.06-0.55,2.17,2.17,0,0,0-1.07-1l-0.3-.13a0.88,0.88,0,0,1-.54-1.21c0.34-1,.61-1.94.86-2.92s0.41-1.68.61-2.52c0.07-.28.13-0.32,0.4-0.26a31.43,31.43,0,0,0,3.7.67A9.1,9.1,0,0,0,48,34h0c0.62,0,.73.1,0.73,0.71q0,0.12,0,.25a26.66,26.66,0,0,1-1.25,7.3,0.41,0.41,0,0,1-.43.33h0M22.24,41.26c-0.38-.37-0.75-0.75-1.1-1.16a5.72,5.72,0,0,1-1.16-3,11.47,11.47,0,0,1-.16-2.27,14.16,14.16,0,0,1,.48-3.91c0-.08,0-0.19.11-0.2s0.11,0.11.15,0.18a9.79,9.79,0,0,0,2.18,2.7l0.54,0.52a0.48,0.48,0,0,1,.13.54,18.76,18.76,0,0,0-.84,3.61A11.33,11.33,0,0,0,22.49,41a0.82,0.82,0,0,1,0,.12,0.16,0.16,0,0,1-.08.19h0a0.21,0.21,0,0,1-.13-0.09m13-3.75a0.67,0.67,0,0,0-.48-0.32,2,2,0,0,1-.65-0.26,0.5,0.5,0,0,1-.26-0.71c0.07-.2.18-0.39,0.26-0.59a0.72,0.72,0,0,0-.38-1.07l-0.38-.18c-0.31-.15-0.34-0.42,0-0.6a1.58,1.58,0,0,0,.53-0.58,0.35,0.35,0,0,0-.19-0.59c-0.2-.07-0.22-0.16-0.14-0.33,0.24-.48.47-1,0.71-1.46a0.47,0.47,0,0,1,.7-0.24c0.15,0.07.29,0.16,0.44,0.24a0.65,0.65,0,0,1,.41.84,1.05,1.05,0,0,0,.2.78c0.1,0.18.23,0.08,0.3-.05a2.59,2.59,0,0,0,.27-0.7c0.05-.22.15-0.25,0.36-0.17a27.3,27.3,0,0,0,3.65,1.2l0.66,0.15a0.46,0.46,0,0,1,.39.57,3.62,3.62,0,0,1-.14.65l-1.21,4.37,0,0.1a0.25,0.25,0,0,1-.13.22,0.24,0.24,0,0,1-.23-0.17,0.57,0.57,0,0,0-.39-0.28,4.79,4.79,0,0,1-1.78-.82,0.25,0.25,0,0,0-.19-0.06,0.28,0.28,0,0,1-.32-0.13,0.14,0.14,0,0,0-.1-0.06,1.84,1.84,0,0,0-1.51.27,0.26,0.26,0,0,1-.17.09,0.2,0.2,0,0,1-.17-0.13m-3.51-4.86a1.65,1.65,0,0,1-.23-0.91,1.49,1.49,0,0,1,.45-1.1,1.73,1.73,0,0,0,.3-0.4,0.68,0.68,0,0,1,.66-0.36,1.85,1.85,0,0,1,.49.07,0.56,0.56,0,0,1,.42.89c-0.2.48-.32,1-0.57,1.46a3.14,3.14,0,0,1-.24.38,0.76,0.76,0,0,1-1.29,0m6.68-2.54a0.66,0.66,0,0,0,.26-0.47,0.45,0.45,0,0,1,.23-0.36,3.57,3.57,0,0,1,1.2-.53,0.27,0.27,0,0,0,.23-0.14,0.93,0.93,0,0,1,.76-0.4,0.18,0.18,0,0,1,.24.16,0.23,0.23,0,0,0,.33.19A1.64,1.64,0,0,1,42,28.51c0.43,0,.43,0,0.41.6s-0.23,1.37-.36,2.14c-0.06.37-.16,0.73-0.19,1.1s-0.17.25-.34,0.2c-0.42-.11-0.84-0.22-1.25-0.36l-2.72-.9a2.84,2.84,0,0,1-.41-0.18C37,31.06,36.82,31,36.86,30.83a0.5,0.5,0,0,1,.37-0.41,0.63,0.63,0,0,1,.25,0h0.15a1.34,1.34,0,0,0,.79-0.31m3.92-2.21-0.25-.24A0.26,0.26,0,0,1,42,27.31c0.08-.12.17-0.26,0.36-0.13a0.23,0.23,0,0,0,.17,0c0.18-.05.2,0.05,0.21,0.2a1.58,1.58,0,0,1-.18.52,0.09,0.09,0,0,1-.08.06,0.23,0.23,0,0,1-.13-0.07M30.31,38a26.67,26.67,0,0,1-5.54-3.29,3.85,3.85,0,0,1-.37-0.3,0.65,0.65,0,0,1-.19-0.68,10.13,10.13,0,0,1,.69-1.66,26.56,26.56,0,0,1,3.19-5,0.41,0.41,0,0,1,.58-0.16,0.53,0.53,0,0,1,.17.7,1.27,1.27,0,0,0-.09.83c0,0.25,0,.5,0,0.75s0,0.35.19,0.35a0.28,0.28,0,0,0,.22-0.36,2.91,2.91,0,0,1,.19-1.07q0,0.7.09,1.41a2.54,2.54,0,0,0,0,.3,1.08,1.08,0,0,1-.14.81,0.81,0.81,0,0,0,0,.88A4.63,4.63,0,0,0,31,33.57a2.39,2.39,0,0,1,.84,1.09,0.44,0.44,0,0,1,0,.29,2.42,2.42,0,0,1-.23.68,18,18,0,0,0-.9,2.19c-0.07.2-.12,0.28-0.21,0.28A0.8,0.8,0,0,1,30.31,38M29,26.54a0.22,0.22,0,0,1-.13-0.29,0.87,0.87,0,0,1,.25-0.36,0.12,0.12,0,0,1,.13-0.06,0.18,0.18,0,0,1,.07.19c0,0.09-.06.23-0.11,0.36a0.2,0.2,0,0,1-.13.17l-0.07,0M43,27.29c-0.06,0,0-.12,0-0.18a0.4,0.4,0,0,1,.27-0.24,0.79,0.79,0,0,0,.38-0.31,0.35,0.35,0,0,0,0-.44c-0.14-.17-0.2-0.38-0.34-0.54a1.36,1.36,0,0,1,0-.81,0.26,0.26,0,0,1,.3,0L44.93,25a7,7,0,0,0,1.49.11,0.73,0.73,0,0,1,.91.63,24.24,24.24,0,0,1,1.13,4.64A23.91,23.91,0,0,1,48.71,33s0,0,0,0c0,0.55,0,.55-0.54.52A30,30,0,0,1,43,32.88l-0.36-.09a0.46,0.46,0,0,1-.36-0.64,26.48,26.48,0,0,0,.64-3.6c0-.11,0-0.23,0-0.35,0-.27.06-0.32,0.33-0.28a4.7,4.7,0,0,1,.69.26c0.22,0.06.34,0,.3-0.25A1.13,1.13,0,0,0,44,27.3a0.77,0.77,0,0,1-.17-0.21c-0.09-.23-0.22-0.19-0.36-0.08l-0.22.2a0.29,0.29,0,0,1-.13.1l0,0m6.1,5.7a25,25,0,0,0-1.4-7.5c-0.1-.28-0.08-0.31.22-0.35a4.61,4.61,0,0,0,1.6-.45c0.21-.12.28,0,0.26,0.21a0.88,0.88,0,0,0,.26.68,0.33,0.33,0,0,1,.09.33,1.61,1.61,0,0,0,.08.81C50.34,27,50.5,27,50.7,26.84s0.26-.15.31,0.11,0.1,0.23.26,0.18a0.14,0.14,0,0,1,.2,0,0.21,0.21,0,0,1,0,.21c-0.13.3-.12,0.37,0.17,0.53a0.87,0.87,0,0,1,.45.6,0.32,0.32,0,0,1-.17.4,0.52,0.52,0,0,0-.35.72A5.7,5.7,0,0,0,52,30.84a0.57,0.57,0,0,0,.41.36,0.16,0.16,0,0,1,.14.24,6.27,6.27,0,0,0-.1,1.06,0.88,0.88,0,0,1-.79.87,9.78,9.78,0,0,1-1.63.24c-0.86,0-.84,0-0.86-0.62m1.33-8.22c0-.08-0.08-0.19,0-0.24a0.23,0.23,0,0,1,.28,0A2.07,2.07,0,0,1,51.42,26a0.48,0.48,0,0,1-.06.1,7.79,7.79,0,0,1-.89-1.35M24.93,24a1.07,1.07,0,0,0,.49-0.37c0.13-.18.21-0.16,0.31,0a7.7,7.7,0,0,0,1.64,2,7.27,7.27,0,0,1,.53.52,0.33,0.33,0,0,1,0,.5c-0.28.34-.58,0.66-0.84,1a25.29,25.29,0,0,0-3.22,5.7c-0.14.34-.17,0.36-0.43,0.12A12.73,12.73,0,0,1,21.17,31,2.12,2.12,0,0,1,21,28.9a18.1,18.1,0,0,1,3-4.69l0.22-.27,0.1-.09a0.12,0.12,0,0,1,.12.09,0.28,0.28,0,0,0,.24.15,0.47,0.47,0,0,0,.17,0m14.48,1.2c-0.13,0-.1-0.15-0.08-0.25a1.15,1.15,0,0,0-.42-1.22,0.66,0.66,0,0,1-.17-0.21,0.27,0.27,0,0,1,.28-0.4,3.38,3.38,0,0,1,1.22.49,0.38,0.38,0,0,1,.09.37,0.43,0.43,0,0,1-.31.52,0.73,0.73,0,0,0-.43.52,0.21,0.21,0,0,1-.14.19h0m7.3-.6a4.65,4.65,0,0,0-.83-0.14,0.17,0.17,0,0,1-.18-0.2c0-.1,0-0.2,0-0.36a0.79,0.79,0,0,1,.4-0.78,0.14,0.14,0,0,1,.23,0,1.27,1.27,0,0,1,.3.48c0.07,0.27.16,0.54,0.24,0.81,0,0.12,0,.18-0.09.18H46.71M42.59,24l-0.49-.16a0.12,0.12,0,0,1-.1-0.1c0-.07.07-0.05,0.11-0.07s0.23-.1.35-0.13a0.31,0.31,0,0,0,.24-0.28c0-.11,0-0.2.17-0.18a0.18,0.18,0,0,1,.15.22c0,0.08,0,.17,0,0.25h0s0,0.08,0,.12c0,0.27,0,.37-0.19.37a0.94,0.94,0,0,1-.24,0m2,0.54-0.61-.13a0.57,0.57,0,0,1-.53-0.68c0-.06,0-0.12,0-0.17A14,14,0,0,0,43.46,22c0-.08,0-0.19.1-0.19a0.17,0.17,0,0,1,.16.19,0.35,0.35,0,0,0,.22.4,0.17,0.17,0,0,1,.07.24,0.85,0.85,0,0,0,0,.61,3,3,0,0,0,.6,1s0.13,0.08.09,0.16a0.08,0.08,0,0,1-.08,0l-0.1,0M40.6,22.58a0.25,0.25,0,0,0,0-.32c-0.12-.16-0.22-0.3.11-0.32A0.48,0.48,0,0,0,41,21.64a0.19,0.19,0,0,1,.24-0.12,0.2,0.2,0,0,1,.11.27c-0.06.19-.08,0.33,0.19,0.32a0.09,0.09,0,0,1,.1.09,0.11,0.11,0,0,1-.09.1l-0.34.07a0.23,0.23,0,0,0-.2.16,0.22,0.22,0,0,0,.12.23,0.88,0.88,0,0,1,.44.47c-0.15-.08-0.27-0.2-0.42-0.27a0.29,0.29,0,0,0-.43.14,0.21,0.21,0,0,1-.32.12l-1-.41c-0.18-.07-0.21-0.18-0.06-0.32l0.18-.17c0.05,0,.12-0.1.17,0a1,1,0,0,0,.6.31l0.13,0a0.21,0.21,0,0,0,.17-0.08m7.88-.33a19,19,0,0,0-1.79-1.66,0.87,0.87,0,0,1-.12-0.09c-0.06-.07-0.22-0.12-0.14-0.25a0.26,0.26,0,0,1,.34-0.07A3.6,3.6,0,0,1,48,21a10,10,0,0,1,1.32,1.68,1,1,0,0,1,.17.62l-1-1M47.38,24.5a9.14,9.14,0,0,0-.52-1,1.43,1.43,0,0,1-.14-0.9,0.43,0.43,0,0,0-.13-0.4,1.27,1.27,0,0,1-.38-0.68,1.53,1.53,0,0,0-.55-0.75,1.45,1.45,0,0,1-.47-0.63,3.58,3.58,0,0,1,.83.54A20.37,20.37,0,0,1,49.38,24c0.2,0.25.19,0.32-.1,0.43a5.73,5.73,0,0,1-1.51.33H47.72a0.35,0.35,0,0,1-.34-0.23m-4.61-2.29A0.38,0.38,0,0,1,42.57,22a1.5,1.5,0,0,0-.56-0.9,0.54,0.54,0,0,1,.25-1c0.1-.05.11,0,0.12,0.09a0.57,0.57,0,0,0,.46.57,0.29,0.29,0,0,1,.2.33c0,0.17,0,.33,0,0.5h0c0,0.17,0,.33,0,0.5a0.18,0.18,0,0,1-.06.18H42.91a0.29,0.29,0,0,1-.14-0.09M28.24,26a1.34,1.34,0,0,1-.63-0.43A17.2,17.2,0,0,1,26,23.16a0.68,0.68,0,0,1,.11-0.88,5.26,5.26,0,0,1,1.19-.9A24.83,24.83,0,0,1,33,18.83a0.48,0.48,0,0,1,.72.51,1.09,1.09,0,0,1-.44.69,0.33,0.33,0,0,0-.2.33,0.8,0.8,0,0,1-.27.46,0.85,0.85,0,0,1-.54.45,0.22,0.22,0,0,0-.19.21,1.31,1.31,0,0,1-.8,1.05c-0.38.28-.79,0.52-1.15,0.83a1.34,1.34,0,0,0-.48.84,3.18,3.18,0,0,1-1,1.7,0.32,0.32,0,0,1-.23.1l-0.16,0m11.47-6.15a0.18,0.18,0,0,1,.08-0.24l0.07,0c0.32-.12.36-0.24,0.16-0.49a7.57,7.57,0,0,1,1.79-.36,0.17,0.17,0,0,1,.2,0c0,0.09-.07.11-0.13,0.15a4.93,4.93,0,0,0-.64.42A0.15,0.15,0,0,1,41,19.29c-0.07-.12-0.18-0.17-0.28-0.06s0,0.21.08,0.27a0.14,0.14,0,0,1,.06.22c-0.09.11-.13,0-0.18-0.06a0.24,0.24,0,0,0-.4,0,0.57,0.57,0,0,1-.36.2l-0.1,0a0.1,0.1,0,0,1-.1-0.09M37.58,19a0.75,0.75,0,0,0-.41-0.35,0.25,0.25,0,0,1,.08-0.48,9.17,9.17,0,0,1,2.8.13,1.26,1.26,0,0,1,.5.14,0.23,0.23,0,0,1-.06.06,14.18,14.18,0,0,1-1.82.38,1.21,1.21,0,0,0-.65.21,0.34,0.34,0,0,1-.2.08A0.3,0.3,0,0,1,37.58,19m-2.64-2a0.26,0.26,0,0,1,.25.05,0.09,0.09,0,0,1,0,.13c-0.09.08-.17,0.24-0.3,0.17a1.45,1.45,0,0,0-.79-0.06A0.78,0.78,0,0,1,34.69,17h0.25m0.9,0.25a1.21,1.21,0,0,1,1-.28,22.09,22.09,0,0,1,3.49.68,0.17,0.17,0,0,1,.14.09,0.26,0.26,0,0,1-.23,0,15.38,15.38,0,0,0-1.92-.05H37.52A0.58,0.58,0,0,1,37,17.54a0.88,0.88,0,0,0-.86-0.29,0.9,0.9,0,0,1-.21,0l-0.14,0m2.08-.6a3.75,3.75,0,0,1,2.4.49c-0.8-.17-1.6-0.31-2.4-0.49M35.5,16.2a3.61,3.61,0,0,0-.83.17,10.73,10.73,0,0,1-2.13.51,13.91,13.91,0,0,0-4.79,2,0.86,0.86,0,0,0-.38.37,2.81,2.81,0,0,0,.84-0.32,20.9,20.9,0,0,1,2.62-1.17,16.46,16.46,0,0,1,2.58-.58c0.2,0,.24,0,0.16.21a1.81,1.81,0,0,1-.39.44,0.73,0.73,0,0,1-.74.19c-0.05,0-.1-0.08-0.15,0a0.12,0.12,0,0,0,0,.16,0.58,0.58,0,0,0,.09.12c0.19,0.15.09,0.22-.08,0.27a20.9,20.9,0,0,0-5.2,2.68l-1.24.89c-0.19.13-.26,0.09-0.27-0.14A1.89,1.89,0,0,1,26,20.53a3.06,3.06,0,0,0,.26-0.39c0-.05.08-0.13,0-0.18a0.14,0.14,0,0,0-.16,0,2,2,0,0,0-.94,1.86,1.4,1.4,0,0,1,0,.69,2.39,2.39,0,0,1-.89,1.11,6.6,6.6,0,0,0-.69.57,12.47,12.47,0,0,0-2.2,3l-0.63,1.2a0.11,0.11,0,0,1-.09-0.11c0-.15,0-0.33-0.22-0.33a0.31,0.31,0,0,0-.26.32,3.18,3.18,0,0,0-.08,1.33,1,1,0,0,1,0,.47,15.88,15.88,0,0,0-.73,3.66,14.63,14.63,0,0,0,.12,3.33,7.64,7.64,0,0,0,.89,2.68,9.54,9.54,0,0,0,1.76,2.07,2.25,2.25,0,0,1,.67,1.2A9.19,9.19,0,0,0,26,48.21a14.92,14.92,0,0,0,5.48,2.94,18.39,18.39,0,0,0,4.46.78,3.6,3.6,0,0,0,.69-0.06,0.1,0.1,0,0,0,.11-0.08c0-.06-0.06-0.07-0.11-0.08l-0.56-.11-1.6-.26c-0.22,0-.24-0.1-0.09-0.27L35,50.39A1.22,1.22,0,0,1,35.66,50,2.54,2.54,0,0,1,37,49.62a0.3,0.3,0,0,0,.17,0l0.65-.26a0.51,0.51,0,0,1,.41-0.07,0.62,0.62,0,0,0,.41,0,1.07,1.07,0,0,1,.42,0c0.9,0.13,1.81.27,2.72,0.33,0.23,0,.46.05,0.7,0a0.12,0.12,0,0,1,.14.07,0.14,0.14,0,0,1-.08.12l-0.1.08A9.82,9.82,0,0,1,39,51.45l-0.73.16c-0.08,0-.18,0-0.17.15a0.17,0.17,0,0,0,.2.11h0.12A8.56,8.56,0,0,0,42.89,50a1.66,1.66,0,0,1,.85-0.38,15.73,15.73,0,0,0,1.66-.14,5.36,5.36,0,0,0,1.72-.65c0.08-.05.22-0.11,0.17-0.21s-0.18,0-.27,0l-0.83.26a9.56,9.56,0,0,1-1.94.32A0.23,0.23,0,0,1,44,49.14c-0.05-.11.07-0.15,0.12-0.22,0.2-.23.41-0.46,0.61-0.69a17.67,17.67,0,0,0,2.8-4.84c0.18-.45.18-0.45,0.65-0.45a9.34,9.34,0,0,0,4.05-.81,0.15,0.15,0,0,1,.18,0,0.17,0.17,0,0,1,0,.19,0.74,0.74,0,0,1-.05.11,17.91,17.91,0,0,1-2.08,3.43c-0.1.13-.18,0.26-0.27,0.39a0.13,0.13,0,0,0,.12,0A10.07,10.07,0,0,0,52,43.9c0.57-.9.84-2,1.49-2.82A0.41,0.41,0,0,0,53.59,41c0-.06,0-0.13,0-0.16s-0.11-.22-0.08-0.34A1.12,1.12,0,0,1,54,39.58,0.15,0.15,0,0,0,54,39.5,12.25,12.25,0,0,0,54.6,38a16.72,16.72,0,0,0,.4-2.68,19.08,19.08,0,0,0-.17-4.25,0.35,0.35,0,0,0-.3-0.34,0.38,0.38,0,0,1-.34-0.42,1.53,1.53,0,0,0,0-.3A0.24,0.24,0,0,0,54,29.83a0.23,0.23,0,0,0-.23.12,2.83,2.83,0,0,1-.2.26c-0.15.16-.22,0.15-0.29-0.06A6.71,6.71,0,0,1,53,28.84,1.4,1.4,0,0,1,53,28.32a0.12,0.12,0,0,1,.1-0.1s0.08,0,.08,0c-0.08.27,0.08,0.23,0.25,0.2a0.26,0.26,0,0,1,.14.1c0.18,0.18.33,0.08,0.47-.06a0.26,0.26,0,0,0,0-.43,0.54,0.54,0,0,1-.13-0.24c-0.09-.25-0.17-0.5-0.28-0.75a19,19,0,0,0-2.88-4.68,9.66,9.66,0,0,0-2.36-2.23,0.18,0.18,0,0,0-.18-0.06c-0.07,0,0,.1,0,0.16,0,0.27,0,.28-0.26.16a1.46,1.46,0,0,1-.22-0.12,11.32,11.32,0,0,0-2-1.19,0.18,0.18,0,0,1,0-.05,0.24,0.24,0,0,1,.22,0,5.4,5.4,0,0,1,1.19.5,1.52,1.52,0,0,0,.4.2,0.13,0.13,0,1,0,.14-0.23,2.13,2.13,0,0,0-1-.56,0.48,0.48,0,0,1-.25-0.1,0.85,0.85,0,0,0-.65-0.32l-1.22-.24a1.71,1.71,0,0,1-.66-0.12,1.46,1.46,0,0,1,.72-0.07c0.11,0,.24,0,0.28-0.09s-0.08-.18-0.17-0.24l-0.18-.09L43,17.16a0.4,0.4,0,0,0-.29,0,0.32,0.32,0,0,1-.36-0.08,1.42,1.42,0,0,0-.79-0.33,0.15,0.15,0,0,0-.19.08,0.16,0.16,0,0,0,.12.15,1.72,1.72,0,0,1,.51.44c-0.31-.15-0.6-0.31-0.9-0.48a0.59,0.59,0,0,0-.26-0.22,0.74,0.74,0,0,1-.58-0.28,0.45,0.45,0,0,0-.28-0.1l-1-.13H35.5Z"></path></clipPath><radialGradient id="f" cx="-2.36" cy="-7.8" r="0.13" gradientTransform="matrix(138.45, 0, 0, -138.45, 354.93, -1045.92)" gradientUnits="userSpaceOnUse"><stop offset="0" stop-color="#fff"></stop><stop offset="1" stop-color="#6bc7f0"></stop></radialGradient></defs><title>logo-new</title><rect class="b" x="74.32" y="6.08" width="2.86" height="28.57"></rect><rect class="c" x="74.32" y="34.65" width="2.86" height="28.57"></rect><line class="d" x1="87.83" y1="53.66" x2="260" y2="53.66"></line><text class="e" transform="translate(87.83 63.22)">KYIV MEDICAL COLEGE</text><g class="f"><g class="f"><path class="g" d="M69,34.63A31.8,31.8,0,1,1,37.2,2.82,31.8,31.8,0,0,1,69,34.63"></path><circle class="h" cx="37.2" cy="34.63" r="31.8"></circle></g><g class="i"><rect class="j" x="19.04" y="15.91" width="36.31" height="36.31"></rect></g><g class="k"><rect class="l" x="19.3" y="16.2" width="35.8" height="35.74"></rect></g><g class="f"><path class="m" d="M39,41.39c0.11,0.15.26,0.26,0.36,0.42s0.08,0.35-.17.35H35.06A0.34,0.34,0,0,1,34.73,42a0.32,0.32,0,0,1,.13-0.35,0.9,0.9,0,0,0,.22-0.27,0.22,0.22,0,0,0-.18,0H22.73c-0.17,0-.24,0-0.19-0.22,0.59-2.36,1.16-4.71,1.73-7.07,0.47-1.92.94-3.85,1.4-5.77A0.46,0.46,0,0,1,25.94,28a2,2,0,0,0,.7-0.73,4.3,4.3,0,0,0,.43-1,0.15,0.15,0,0,1,.23-0.08c0.2,0.07.22,0,.24-0.19a2.19,2.19,0,0,1,.1-0.47,7.7,7.7,0,0,0,1.54.66,4.76,4.76,0,0,0,1.33.22,10,10,0,0,0,1.72-.13,10.34,10.34,0,0,1,2.4-.23,3,3,0,0,1,2.29,1.28c0.26,0.35.27,0.35,0.56,0a7.42,7.42,0,0,1,1.39-1.27,2.69,2.69,0,0,1,1.35-.45A5,5,0,0,1,42,26a7.35,7.35,0,0,0,2.75.29,8.37,8.37,0,0,0,2-.45c0.13,0,.18,0,0.23.12a6.17,6.17,0,0,0,1,2,0.58,0.58,0,0,0,.25.22,0.39,0.39,0,0,1,.26.33q0.74,2.8,1.49,5.59l1.89,7.09c0,0.16,0,.22-0.16.22-0.91,0-1.83,0-2.74,0H39.21a0.23,0.23,0,0,0-.17,0"></path><path class="n" d="M39,41.39c0.11,0.15.26,0.26,0.36,0.42s0.08,0.35-.17.35H35.06A0.34,0.34,0,0,1,34.73,42a0.32,0.32,0,0,1,.13-0.35,0.9,0.9,0,0,0,.22-0.27,0.22,0.22,0,0,0-.18,0H22.73c-0.17,0-.24,0-0.19-0.22,0.59-2.36,1.16-4.71,1.73-7.07,0.47-1.92.94-3.85,1.4-5.77A0.46,0.46,0,0,1,25.94,28a2,2,0,0,0,.7-0.73,4.3,4.3,0,0,0,.43-1,0.15,0.15,0,0,1,.23-0.08c0.2,0.07.22,0,.24-0.19a2.19,2.19,0,0,1,.1-0.47,7.7,7.7,0,0,0,1.54.66,4.76,4.76,0,0,0,1.33.22,10,10,0,0,0,1.72-.13,10.34,10.34,0,0,1,2.4-.23,3,3,0,0,1,2.29,1.28c0.26,0.35.27,0.35,0.56,0a7.42,7.42,0,0,1,1.39-1.27,2.69,2.69,0,0,1,1.35-.45A5,5,0,0,1,42,26a7.36,7.36,0,0,0,2.75.29,8.37,8.37,0,0,0,2-.45c0.13,0,.18,0,0.23.12a6.17,6.17,0,0,0,1,2,0.58,0.58,0,0,0,.25.22,0.39,0.39,0,0,1,.26.33q0.74,2.8,1.49,5.59l1.89,7.09c0,0.16,0,.22-0.16.22-0.91,0-1.83,0-2.74,0H39.21a0.23,0.23,0,0,0-.17,0m8.14-14.23,0-.06a0.08,0.08,0,0,0,0,.09l0.71,3.68,0.72,3.76c0.19,1,.38,2,0.59,3.06a2.39,2.39,0,0,0,.35,1.13c0.29,0.36.55,0.76,0.85,1.12a4.12,4.12,0,0,0,1,.93c0-.08,0-0.14,0-0.2l-1.45-5.46-1.58-5.9a2.63,2.63,0,0,0-.23-0.76c-0.3-.46-0.61-0.92-0.91-1.39m-10,9.91h0q0,0.86,0,1.73c0,0.06,0,.15,0,0.19s0.11-.06.15-0.11a5.26,5.26,0,0,1,2.22-1.47,5.94,5.94,0,0,1,2.82-.16c0.73,0.12,1.44.33,2.16,0.52s1.34,0.45,2,.61a7.34,7.34,0,0,0,1.26.24,2.68,2.68,0,0,0,1.15-.1,0.15,0.15,0,0,0,.11-0.2c-0.21-1.06-.41-2.12-0.61-3.18l-0.66-3.5L47.33,29l-0.49-2.58c0-.12-0.06-0.17-0.19-0.11a5.52,5.52,0,0,1-.95.29,6.51,6.51,0,0,1-2.31.12,12.17,12.17,0,0,1-2.45-.5,2.13,2.13,0,0,0-.61-0.09,2.55,2.55,0,0,0-1.58.61,9.62,9.62,0,0,0-1.48,1.47,0.26,0.26,0,0,0-.06.26,0.8,0.8,0,0,1,0,.24c0,2.25,0,4.49,0,6.74,0,0.56,0,1.11,0,1.67M37,38.84c0-.12,0-0.19,0-0.26,0-1.23,0-2.45,0-3.68,0-2.06,0-4.12,0-6.18a2.16,2.16,0,0,1,0-.29A0.66,0.66,0,0,0,37,28a3,3,0,0,0-2.61-1.52,21.16,21.16,0,0,0-2.79.26,7.38,7.38,0,0,1-2,0,4.26,4.26,0,0,1-1.63-.6c-0.11-.07-0.14-0.06-0.15.08-0.15,1-.38,2.09-0.45,3.15a6.54,6.54,0,0,0,.34,2.86,2.2,2.2,0,0,0,.93,1.14,3,3,0,0,0,1.86.48,0.22,0.22,0,0,1,.28.23,5.21,5.21,0,0,0,.49,1.69,2.29,2.29,0,0,0,1.06,1,7,7,0,0,0,1.58.44,5.24,5.24,0,0,1,2.4,1.05c0.23,0.19.43,0.42,0.71,0.63m10.39,2h3.22a0.28,0.28,0,0,0,.26,0c0-.1-0.13-0.08-0.16-0.16v0a11.6,11.6,0,0,1-1-1.16,0.23,0.23,0,0,0-.32-0.08,3.2,3.2,0,0,1-1.54.29,9.86,9.86,0,0,1-1.93-.39A21.58,21.58,0,0,0,43,38.63a6.45,6.45,0,0,0-3.23.3,10.9,10.9,0,0,0-1.39.75,4.57,4.57,0,0,0-.7.6c-0.15.13-.14,0.2,0,0.3a2.38,2.38,0,0,1,.57.44c0.11,0.11.15,0.12,0.25,0A2.9,2.9,0,0,1,40,40.19a5.4,5.4,0,0,1,2.47-.07,2.39,2.39,0,0,1,1.32.62,0.4,0.4,0,0,0,.32.12H47.4m-10.69-.49c0.32,0,.37-0.06.32-0.3l0-.1a2.42,2.42,0,0,0-1.47-1.9,4.47,4.47,0,0,0-2-.36,7.47,7.47,0,0,0-1.1.13c-0.37.06-.73,0.11-1.1,0.19a22.23,22.23,0,0,0-2.19.78A4.51,4.51,0,0,1,27,39a10.29,10.29,0,0,1-1.88-.56,0.22,0.22,0,0,0-.33.09,7.86,7.86,0,0,1-.46.71c-0.11.15-.08,0.22,0.09,0.26l1.1,0.25a12.91,12.91,0,0,0,3.53.39,5,5,0,0,0,1.79-.31,12.58,12.58,0,0,1,1.53-.55,4.54,4.54,0,0,1,2.7,0,3.47,3.47,0,0,1,1.41.9,0.66,0.66,0,0,0,.25.22M27.07,30.17s0,0.07,0,.11c-0.18.94-.36,1.88-0.54,2.81s-0.33,1.68-.5,2.51a1.28,1.28,0,0,0-.08.55,2,2,0,0,0,1.31,1.41,5.08,5.08,0,0,0,2.38.06,15.3,15.3,0,0,0,1.67-.4c0.27-.07.54-0.12,0.81-0.18a12.64,12.64,0,0,1-1.87-.52,4.55,4.55,0,0,1-2.29-1.88,6.33,6.33,0,0,1-.82-2.83c0-.55,0-1.1,0-1.64m-3.9,9.9a0.44,0.44,0,0,0,.25-0.17,10.07,10.07,0,0,0,1.11-1.42,1.68,1.68,0,0,0,.24-0.61l1-5.23c0.29-1.44.57-2.88,0.85-4.32a1.39,1.39,0,0,0,.06-0.67,2.77,2.77,0,0,1-.67.76,0.25,0.25,0,0,0,0,.13l-0.66,2.71-1.68,6.82-0.49,2m10.68-2.65A7,7,0,0,0,33,37.21a1.85,1.85,0,0,0-.85,0c-0.67.21-1.34,0.39-2,.57A6.38,6.38,0,0,1,27.9,38a2.34,2.34,0,0,1-2-1.3,1.12,1.12,0,0,1-.19-0.77c0.17-.78.31-1.57,0.46-2.35l0.71-3.68c0.21-1.08.41-2.16,0.63-3.23,0-.18-0.06-0.18-0.16-0.21s-0.11.1-.13,0.17c-0.16.8-.31,1.6-0.46,2.4l-0.84,4.35-0.71,3.67A9,9,0,0,0,25,38a0.18,0.18,0,0,0,.13.21,4.14,4.14,0,0,1,.72.28,4.52,4.52,0,0,0,2.65.25A17.57,17.57,0,0,0,30.6,38a9.36,9.36,0,0,1,2.21-.52,8.62,8.62,0,0,0,1-.08M23,40.74l0,0.06h0.4c1.29,0,2.58,0,3.87,0s2.72,0,4.09,0a0.6,0.6,0,0,0,.27-0.08,4.06,4.06,0,0,1,2-.45,2.75,2.75,0,0,1,2,.74,0.11,0.11,0,0,0,.16,0l0.68-.49c0.08-.06.09-0.13,0-0.19A6.91,6.91,0,0,0,35,39.66a4,4,0,0,0-2.43,0,14.8,14.8,0,0,1-3.33.81,10.73,10.73,0,0,1-2.61-.12,24.06,24.06,0,0,1-2.42-.6,0.19,0.19,0,0,0-.22,0,8.83,8.83,0,0,1-1,1M41.4,37.48a5.08,5.08,0,0,0-.82,0,4.26,4.26,0,0,0-1.86.6,4.84,4.84,0,0,0-1.35,1.24,0.29,0.29,0,0,0-.07.2c0,0.17,0,.35,0,0.52s0,0.12,0,.14a0.12,0.12,0,0,0,.11-0.07,9.44,9.44,0,0,1,1.21-1,6.34,6.34,0,0,1,2.22-.9,8,8,0,0,1,3.62.31,23,23,0,0,0,2.91.78,3.09,3.09,0,0,0,1.7-.11c0.32-.14.32-0.13,0.14-0.44A0.18,0.18,0,0,0,49,38.77a1.73,1.73,0,0,1-.4.13,4,4,0,0,1-1.51-.11c-1-.21-2-0.58-2.93-0.86a12.8,12.8,0,0,0-2.77-.45M27.49,32.54A4.33,4.33,0,0,0,29,35.43a5.19,5.19,0,0,0,2.56,1.18l-0.07-.1a3.43,3.43,0,0,1-1-2.17,0.19,0.19,0,0,0-.24-0.22,3.12,3.12,0,0,1-2.54-1.19c-0.1-.12-0.18-0.26-0.27-0.4"></path><path class="g" d="M33.46,37.38l0.24-.54A0.47,0.47,0,0,1,34,36.58l0.23-.12,1.51-.76H35.48a4.06,4.06,0,0,1-1.57-.26A2.13,2.13,0,0,1,33.13,35a1,1,0,0,1-.28-0.63A1.44,1.44,0,0,1,33.54,33a4.26,4.26,0,0,1,.78-0.4,9.69,9.69,0,0,1,1.42-.5l0.18,0-0.25-1.35a5.25,5.25,0,0,1-1.74-.7,3.19,3.19,0,0,1-1.2-1.29,2.6,2.6,0,0,1-.25-1,0.47,0.47,0,0,1,.12-0.37A0.48,0.48,0,0,1,33,27.19h4l0-.07h0l-0.21,0A0.46,0.46,0,0,1,36.33,27a0.6,0.6,0,0,1-.13-0.48,0.45,0.45,0,0,1,.32-0.42A0.51,0.51,0,0,0,36.71,26a9.48,9.48,0,0,0,.79-0.9L37.58,25l0,0a0.53,0.53,0,0,1,.42-0.2h0.1l0.23,0h0.08c0.35-.06.69-0.15,1-0.24L40,24.36a4,4,0,0,1,.9-0.1h0.2a4.45,4.45,0,0,1,2.56.92,3.74,3.74,0,0,1,1.2,1.55,3.59,3.59,0,0,1,.25,1.11,5.27,5.27,0,0,1,0,.72A3.09,3.09,0,0,1,44.73,30l-0.11.18a4.92,4.92,0,0,1-.38.59,4.42,4.42,0,0,1-1.09,1,8.74,8.74,0,0,1-2.81,1.2c-0.48.11-.92,0.2-1.32,0.26l-0.71.1-0.15.78h0c0.23,0,.47-0.09.71-0.11a5.44,5.44,0,0,1,.62,0,2.59,2.59,0,0,1,.67.08,1.9,1.9,0,0,1,.76.39,1,1,0,0,1,.34.7,1.11,1.11,0,0,1-.23.83,1.32,1.32,0,0,1-.41.35,1.08,1.08,0,0,0-.28.22l0.21,0.1a0.52,0.52,0,0,1,.21.16l0.47,0.62H33.46Zm5.43-1.6L39.33,36l0.1-.21a0.79,0.79,0,0,0,.1-0.29,0.36,0.36,0,0,0-.17-0.1l-0.25,0H38.84l-0.41.06-0.16,0,0.62,0.3M36.2,33.52a5.54,5.54,0,0,0-1.07.35l-0.1,0a0.73,0.73,0,0,0-.24.14,0.32,0.32,0,0,0,.15.09,5.1,5.1,0,0,0,1.28.18h0.13l-0.15-.8m2.64-2.85-0.17.9c0.26,0,.52-0.1.76-0.16a9.53,9.53,0,0,0,2.45-1,2.78,2.78,0,0,0,.84-0.75,2,2,0,0,0,.38-0.85,1.57,1.57,0,0,0,0-.21c0-.06,0-0.11,0-0.17a2.35,2.35,0,0,0-.2-1.08,1.79,1.79,0,0,0-.59-0.8A2.89,2.89,0,0,0,41.21,26a1.57,1.57,0,0,0-.36,0h-0.3a4,4,0,0,0-.81.15,3,3,0,0,0-.9.48l-0.07.05c-0.26.19-.52,0.38-0.81,0.54h3.55a0.48,0.48,0,0,1,.36.14,0.48,0.48,0,0,1,.13.36,2.45,2.45,0,0,1-.51,1.43,3.68,3.68,0,0,1-1.43,1.11,5.75,5.75,0,0,1-1.23.41"></path><path class="o" d="M37.82,26.3l-0.3.15a6.32,6.32,0,0,1-.67.3l0,0c-0.22,0-.23,0-0.22-0.2a0.07,0.07,0,0,1,.06-0.06A0.88,0.88,0,0,0,37,26.28a9.76,9.76,0,0,0,.82-0.93l0.1-.12a0.15,0.15,0,0,1,.15-0.06,1.64,1.64,0,0,0,.45,0c0.55-.1,1.09-0.26,1.63-0.39a3.62,3.62,0,0,1,1-.09,4.05,4.05,0,0,1,2.34.84,3.34,3.34,0,0,1,1.08,1.39,3.21,3.21,0,0,1,.22,1,4.89,4.89,0,0,1,0,.67,2.7,2.7,0,0,1-.37,1.25,6.87,6.87,0,0,1-.46.73,4,4,0,0,1-1,.89,8.31,8.31,0,0,1-2.68,1.14c-0.43.1-.86,0.19-1.29,0.26s-0.57.09-.86,0.12A0.12,0.12,0,0,0,38,33c-0.08.44-.17,0.88-0.25,1.33l0,0.08c0,0.13,0,.13.11,0.11,0.37-.07.73-0.15,1.1-0.19a3.06,3.06,0,0,1,1.14,0,1.52,1.52,0,0,1,.61.31,0.59,0.59,0,0,1,.21.43,0.73,0.73,0,0,1-.14.55,1,1,0,0,1-.29.25,1.68,1.68,0,0,0-.48.4l-0.19.23c-0.06.06,0,.08,0,0.11l0.57,0.28a0.16,0.16,0,0,1,.07.05H34a0.12,0.12,0,0,1,.08-0.05l2.75-1.38a0.1,0.1,0,0,0,.07-0.14c0-.15,0-0.16-0.19-0.15-0.37,0-.73,0-1.1.05a3.91,3.91,0,0,1-1.6-.23,1.78,1.78,0,0,1-.65-0.39,0.65,0.65,0,0,1-.17-0.4,1.06,1.06,0,0,1,.52-1,3.92,3.92,0,0,1,.71-0.37,9.27,9.27,0,0,1,1.36-.48l0.46-.11c0.06,0,.07,0,0.06-0.1q-0.17-.9-0.33-1.79a0.13,0.13,0,0,0-.12-0.12,5,5,0,0,1-1.76-.67,2.83,2.83,0,0,1-1.06-1.13,2.2,2.2,0,0,1-.21-0.83c0-.08,0-0.1.1-0.1,0.95,0,1.89,0,2.84,0s2.12,0,3.18,0c0.85,0,1.69,0,2.54,0,0.08,0,.1,0,0.1.1a2.06,2.06,0,0,1-.44,1.21,3.32,3.32,0,0,1-1.29,1,5.4,5.4,0,0,1-1.32.41,0.11,0.11,0,0,0-.1.1c-0.09.49-.19,1-0.28,1.47,0,0.12,0,.12.1,0.11a9.38,9.38,0,0,0,1.21-.23,10,10,0,0,0,2.55-1,3.15,3.15,0,0,0,1-.85,2.43,2.43,0,0,0,.45-1c0-.13,0-0.27,0-0.41a2.74,2.74,0,0,0-.23-1.26,2.17,2.17,0,0,0-.72-1,3.31,3.31,0,0,0-1.27-.65,2.53,2.53,0,0,0-.77,0,4.42,4.42,0,0,0-.88.17,3.33,3.33,0,0,0-1,.53c-0.28.2-.56,0.41-0.86,0.58L37.54,27l-0.07,0c-0.05,0-.12.07-0.16,0s0-.09.07-0.12a1.63,1.63,0,0,0,.44-0.67m-1.57,8.42c0.17,0,.33,0,0.49,0s0.06,0,.05-0.06c-0.06-.3-0.11-0.59-0.17-0.89s-0.07-.38-0.1-0.57,0-.1-0.11-0.08l-0.21,0a6.12,6.12,0,0,0-1.24.4,1.29,1.29,0,0,0-.47.28,0.39,0.39,0,0,0,0,.53,0.74,0.74,0,0,0,.33.19,5.43,5.43,0,0,0,1.41.19m3.66,0.79a0.3,0.3,0,0,0-.06-0.22A0.81,0.81,0,0,0,39.43,35a2.08,2.08,0,0,0-.63,0l-0.62.09-0.54.08a0.09,0.09,0,0,0-.09.09,0.56,0.56,0,0,1,0,.17,0.09,0.09,0,0,0,.06.13l1.14,0.56,0.79,0.4s0.08,0,.07,0a0.41,0.41,0,0,1,0-.18c0-.12.1-0.23,0.15-0.34a1.11,1.11,0,0,0,.14-0.46"></path><path class="o" d="M56.4,24.78a18.68,18.68,0,0,0-1-1.84l-0.42-.65a0.12,0.12,0,0,0-.18,0,4.86,4.86,0,0,1-2.37.43,2.26,2.26,0,0,1-.84-0.24,3.87,3.87,0,0,1-1.11-.82c-0.05-.05-0.08-0.09,0-0.14a4.55,4.55,0,0,1,2-.58,2.46,2.46,0,0,1,1.25.36c0.29,0.16.55,0.36,0.82,0.54h0v0a16.56,16.56,0,0,0-1.67-2l-0.36-.36a0.14,0.14,0,0,0-.22,0,4.61,4.61,0,0,1-2.25.81,2.73,2.73,0,0,1-1.49-.36A4.08,4.08,0,0,1,48,19.54c-0.06,0-.09-0.08,0-0.14A4.27,4.27,0,0,1,50,18.5a2.56,2.56,0,0,1,1.37.22L52,19h0v0a19.93,19.93,0,0,0-1.65-1.37l-0.76-.56a0.12,0.12,0,0,0-.2,0,4.43,4.43,0,0,1-2.08,1.16,2.72,2.72,0,0,1-1.51-.13,3.84,3.84,0,0,1-.54-0.23c-0.06,0-.09-0.06,0-0.12a3.84,3.84,0,0,1,2-1.26,2.69,2.69,0,0,1,1.11,0c0.26,0.05.51,0.13,0.77,0.2h0l0,0c-0.42-.3-0.88-0.56-1.33-0.82s-0.89-.48-1.34-0.7a0.14,0.14,0,0,0-.21.05,4.34,4.34,0,0,1-1.71,1.44,2.58,2.58,0,0,1-1.48.18,4.07,4.07,0,0,1-.68-0.14c-0.06,0-.1,0-0.05-0.11a4,4,0,0,1,1.44-1.44A2.53,2.53,0,0,1,45.14,15a7.76,7.76,0,0,1,.89.09A0.1,0.1,0,0,0,45.94,15c-0.56-.25-1.13-0.47-1.7-0.67a0.3,0.3,0,0,0-.24,0,2.32,2.32,0,0,1-1.48.21,3.33,3.33,0,0,1-1.67-1s-0.08-.08,0-0.11a4.25,4.25,0,0,1,1.52-.28,2,2,0,0,1,1.09.46,3.55,3.55,0,0,1,.55.5,0.27,0.27,0,0,0,.13.09c0.43,0.13.85,0.28,1.27,0.43h0v0L45,14.28a2.38,2.38,0,0,1-1-2.14,5.06,5.06,0,0,1,.12-0.92,0.22,0.22,0,0,0,0-.12h0.13c0,0.06,0,.06.08,0.08a4.19,4.19,0,0,1,.52.32,2.45,2.45,0,0,1,1,1.22,4.22,4.22,0,0,1,.16,2,0.15,0.15,0,0,0,.11.19L47,15.33c0.58,0.27,1.13.58,1.69,0.9l0,0h0s0,0,0,0l0,0c-0.14-.17-0.3-0.33-0.43-0.51a2.18,2.18,0,0,1-.47-0.91,3.68,3.68,0,0,1,.33-2.19c0-.07.07-0.06,0.13,0a3.5,3.5,0,0,1,.41.34,2.55,2.55,0,0,1,.85,1.41,4.21,4.21,0,0,1-.18,2.16,0.15,0.15,0,0,0,.08.21c0.59,0.38,1.16.79,1.72,1.22l0.56,0.44h0v0c-0.08-.15-0.17-0.29-0.25-0.44a2.37,2.37,0,0,1-.34-1,3.76,3.76,0,0,1,.73-2.15c0.05-.08.09,0,0.14,0A3.48,3.48,0,0,1,52.81,16a2.05,2.05,0,0,1,.12.78,4.45,4.45,0,0,1-.55,2,0.15,0.15,0,0,0,0,.22c0.33,0.28.64,0.58,0.95,0.89s0.59,0.64.88,1h0v0l-0.08-.24A2.42,2.42,0,0,1,54,19.38a3.93,3.93,0,0,1,1.12-2c0.05-.06.09-0.05,0.13,0a4.06,4.06,0,0,1,.42.8,2.39,2.39,0,0,1,.18,1.28A4.44,4.44,0,0,1,55,21.53a0.15,0.15,0,0,0,0,.22q0.53,0.71,1,1.47L56.43,24v0c0-.11,0-0.22-0.05-0.32a2.5,2.5,0,0,1,.1-1.34A4.26,4.26,0,0,1,58,20.64c0.07-.05.09,0,0.12,0a3.84,3.84,0,0,1,.23.66,2.58,2.58,0,0,1,0,1.65A4.67,4.67,0,0,1,57,24.81a0.14,0.14,0,0,0,0,.21,20.91,20.91,0,0,1,.93,2.2L58,27.55a2.7,2.7,0,0,0,0-.4,2.49,2.49,0,0,1,.35-1.34,4.43,4.43,0,0,1,1.78-1.46c0.08,0,.1,0,0.12.07a3.87,3.87,0,0,1,.11.73A2.61,2.61,0,0,1,60,26.74a4.83,4.83,0,0,1-1.66,1.62,0.14,0.14,0,0,0-.08.19c0.17,0.58.32,1.17,0.43,1.76,0.05,0.26.1,0.52,0.15,0.78a1.24,1.24,0,0,0,.07-0.25,2.59,2.59,0,0,1,.68-1.39,4.74,4.74,0,0,1,2-1.08c0.1,0,.11,0,0.11.1a4,4,0,0,1,0,.73A2.72,2.72,0,0,1,61,30.8a5.08,5.08,0,0,1-1.88,1.29,0.16,0.16,0,0,0-.12.19,17.89,17.89,0,0,1,.1,2.32,0.14,0.14,0,0,0,0,.12l0.13-.29A2.56,2.56,0,0,1,60.62,33a5.6,5.6,0,0,1,1.79-.47V32.9c-0.05,0,0,.05-0.05.08s0,0.21-.08.32a2.86,2.86,0,0,1-1,1.57,5.23,5.23,0,0,1-2.14,1A0.15,0.15,0,0,0,59,36a19,19,0,0,1-.35,2.32v0l0,0,0.08-.11a3.67,3.67,0,0,1,.59-0.74,3.13,3.13,0,0,1,1.6-.69,7.18,7.18,0,0,1,1.43-.07v0.12a0.1,0.1,0,0,0-.07.1,4.39,4.39,0,0,1-.31.71,2.86,2.86,0,0,1-1.19,1.24,5.44,5.44,0,0,1-2.29.61,0.17,0.17,0,0,0-.2.14,16.9,16.9,0,0,1-.66,2.06,0.16,0.16,0,0,0,0,.13h0l0.08-.09A2.89,2.89,0,0,1,59,40.88a5.07,5.07,0,0,1,2.51,0c0.09,0,.07.06,0,0.12a4.34,4.34,0,0,1-.45.71,3,3,0,0,1-1.47,1.09,5.67,5.67,0,0,1-2.41.22,0.15,0.15,0,0,0-.18.1c-0.11.23-.23,0.47-0.36,0.7-0.24.45-.51,0.89-0.77,1.33v0h0L56.26,45a2.74,2.74,0,0,1,1.32-.54,5.2,5.2,0,0,1,2.49.43c0.08,0,.07.06,0,0.12a4.56,4.56,0,0,1-.72.76,3,3,0,0,1-1.47.72,5.76,5.76,0,0,1-2.56-.18,0.14,0.14,0,0,0-.19,0,23.48,23.48,0,0,1-1.53,1.86l0,0s0,0,0,0l0.19-.09a3.19,3.19,0,0,1,1.32-.4,4.89,4.89,0,0,1,2.7.86c0.06,0,.06.07,0,0.12a5.48,5.48,0,0,1-.43.36,3.44,3.44,0,0,1-2.67.72,6.38,6.38,0,0,1-1.95-.59,0.13,0.13,0,0,0-.18,0,23.6,23.6,0,0,1-1.83,1.59v0h0l0.4-.12a3,3,0,0,1,1.49-.09A5.27,5.27,0,0,1,55,51.84c0.07,0.06,0,.09,0,0.13a4.86,4.86,0,0,1-1.05.52,3.13,3.13,0,0,1-1.6.18,5.81,5.81,0,0,1-2.48-1.07,0.15,0.15,0,0,0-.21,0c-0.58.4-1.18,0.77-1.8,1.12,0,0-.08,0-0.07.07a0.46,0.46,0,0,0,.19,0,3,3,0,0,1,1.9.31,5.77,5.77,0,0,1,1.74,1.53c0.05,0.07,0,.09,0,0.12a5.07,5.07,0,0,1-1,.3,3.36,3.36,0,0,1-2-.09,5.9,5.9,0,0,1-2.14-1.42,0.16,0.16,0,0,0-.22,0,18.07,18.07,0,0,1-1.87.73,0.44,0.44,0,0,0-.17.07,0.56,0.56,0,0,0,.24,0,3,3,0,0,1,2,.76,5.91,5.91,0,0,1,1.29,1.67c0.07,0.12.06,0.13-.08,0.17a5.32,5.32,0,0,1-1.15.14,3.28,3.28,0,0,1-1.71-.39,5.85,5.85,0,0,1-2-1.88,0.18,0.18,0,0,0-.21-0.09,20.09,20.09,0,0,0-4.24,1.25,0.14,0.14,0,0,0-.11.08l0.12,0.07c0.29,0.15.58,0.31,0.86,0.48a10.87,10.87,0,0,1,2,1.51c0.07,0.07.08,0.11,0,.18l-0.57.49a0.12,0.12,0,0,0-.08.11h-0.1a0.49,0.49,0,0,0-.18-0.22,12.91,12.91,0,0,0-3-2.13,0.15,0.15,0,0,0-.16,0l-0.71.4a12.07,12.07,0,0,0-2.23,1.65,0.79,0.79,0,0,0-.25.29H33.84a0.19,0.19,0,0,0,0-.05l-0.64-.55c-0.08-.07-0.07-0.11,0-0.17s0.34-.32.52-0.46a13.84,13.84,0,0,1,2.39-1.55A0.11,0.11,0,0,0,36.16,56s-0.05,0-.08-0.06a19.93,19.93,0,0,0-4.28-1.26,0.15,0.15,0,0,0-.18.08,5.58,5.58,0,0,1-1.19,1.33,4.08,4.08,0,0,1-1.31.79,4.51,4.51,0,0,1-2.4,0c-0.1,0-.09-0.07-0.06-0.14a6.58,6.58,0,0,1,.85-1.24A3.21,3.21,0,0,1,30,54.31a0.12,0.12,0,0,0,.11,0l0,0a18,18,0,0,1-2-.79,0.12,0.12,0,0,0-.16,0,5.56,5.56,0,0,1-1.14.92,4.56,4.56,0,0,1-1.45.64,4.23,4.23,0,0,1-2.5-.34c-0.1,0,0-.09,0-0.14a6.54,6.54,0,0,1,.93-1,3.25,3.25,0,0,1,2.77-.84,0.14,0.14,0,0,0,.13,0l-0.07-.05c-0.63-.35-1.24-0.72-1.82-1.13a0.13,0.13,0,0,0-.19,0,5.48,5.48,0,0,1-1.31.74,4.4,4.4,0,0,1-1.54.37A4.13,4.13,0,0,1,19.4,52c-0.09-.06,0-0.09,0-0.14A5.84,5.84,0,0,1,21,50.77a2.87,2.87,0,0,1,1.64-.23,9.26,9.26,0,0,1,.9.23h0v0a23.43,23.43,0,0,1-1.83-1.58,0.13,0.13,0,0,0-.17,0,5.34,5.34,0,0,1-1.22.46,4.79,4.79,0,0,1-1.62.17,3.87,3.87,0,0,1-2.21-1.09c-0.08-.08,0-0.11,0-0.15a6,6,0,0,1,1.68-.73,2.89,2.89,0,0,1,2.06.18l0.44,0.21s0,0,0,0v0a23.83,23.83,0,0,1-1.53-1.86,0.13,0.13,0,0,0-.17,0,5.47,5.47,0,0,1-1.56.25,3.88,3.88,0,0,1-1.58-.23A4.06,4.06,0,0,1,14.3,45c-0.06-.08,0-0.1,0-0.13a5.8,5.8,0,0,1,1.74-.43,2.89,2.89,0,0,1,1.47.21,5.06,5.06,0,0,1,.87.55h0l0,0a22.4,22.4,0,0,1-1.15-2.07A0.1,0.1,0,0,0,17.16,43a5.42,5.42,0,0,1-1.54,0,3.76,3.76,0,0,1-1.49-.48A3.93,3.93,0,0,1,12.8,41c-0.05-.1,0-0.11.08-0.12A6.56,6.56,0,0,1,14,40.72a3,3,0,0,1,2.59,1,0.1,0.1,0,0,0,.08.05,0.1,0.1,0,0,0,0-.09A17.45,17.45,0,0,1,16,39.66a0.15,0.15,0,0,0-.18-0.12,5,5,0,0,1-1.43-.25,3.73,3.73,0,0,1-1.36-.69,3.68,3.68,0,0,1-1-1.58A0.13,0.13,0,0,0,12,36.87V36.75H12.2a5.81,5.81,0,0,1,1.46.13,2.75,2.75,0,0,1,1.57.86c0.17,0.2.31,0.42,0.45,0.63,0,0,0,0,0,0a0.06,0.06,0,0,0,0,0A18.64,18.64,0,0,1,15.36,36a0.15,0.15,0,0,0-.14-0.17,5.28,5.28,0,0,1-1.73-.7,2.82,2.82,0,0,1-1.08-1.11A4.22,4.22,0,0,1,12,33s0-.09-0.06-0.11V32.56a5.47,5.47,0,0,1,.77.13,4.88,4.88,0,0,1,1.32.5,2.61,2.61,0,0,1,1.12,1.37l0.07,0.17a0.34,0.34,0,0,0,0-.06,19.85,19.85,0,0,1,.11-2.43,0.12,0.12,0,0,0-.1-0.14,5.4,5.4,0,0,1-1.64-1,3,3,0,0,1-1-2.6c0-.08,0-0.11.12-0.08l0.26,0.08a6.08,6.08,0,0,1,.95.43,2.65,2.65,0,0,1,1.43,2c0,0.08,0,.17.05,0.25a0.1,0.1,0,0,0,0-.06,21.49,21.49,0,0,1,.57-2.52,0.11,0.11,0,0,0-.07-0.14,4.51,4.51,0,0,1-1-.74,3.74,3.74,0,0,1-.89-1.23,3.27,3.27,0,0,1-.06-2c0-.1.08-0.08,0.15,0a6,6,0,0,1,1,.66A2.57,2.57,0,0,1,16.4,27.2c0,0.11,0,.23,0,0.34a0.07,0.07,0,0,0,0,0A22,22,0,0,1,17.49,25a0.1,0.1,0,0,0,0-.14,4,4,0,0,1-.52-0.51,4.15,4.15,0,0,1-.88-1.55,3.07,3.07,0,0,1,.26-2.1c0-.09.08,0,0.13,0a4.86,4.86,0,0,1,1.14,1.14A2.23,2.23,0,0,1,18,23.06a6.08,6.08,0,0,1-.09,1v0h0l0,0a21,21,0,0,1,1.5-2.32,0.09,0.09,0,0,0,0-.14,4.26,4.26,0,0,1-.57-0.9,3.69,3.69,0,0,1-.4-1.34,3.1,3.1,0,0,1,.62-1.92c0.06-.09.1,0,0.15,0a4.61,4.61,0,0,1,.92,1.34,2.23,2.23,0,0,1,.21,1,4,4,0,0,1-.25,1v0h0A18,18,0,0,1,22,18.93a0.1,0.1,0,0,0,0-.15A4.07,4.07,0,0,1,21.7,18a3.85,3.85,0,0,1-.22-1.53,3,3,0,0,1,.94-1.8c0.07-.08.11,0,0.15,0a4.59,4.59,0,0,1,.6,1.28,2.22,2.22,0,0,1,0,1.38,5.44,5.44,0,0,1-.49,1v0h0l0.12-.09a23.48,23.48,0,0,1,2.11-1.54c0.16-.11.16-0.11,0.1-0.28a4.13,4.13,0,0,1-.16-2.14,2.83,2.83,0,0,1,1.22-1.7c0.11-.08.12-0.08,0.18,0a4.55,4.55,0,0,1,.35,1.3,2.21,2.21,0,0,1-.44,1.67c-0.16.2-.33,0.4-0.5,0.59l0,0s0,0,0,0l0,0h0a21.54,21.54,0,0,1,2.57-1.29,0.1,0.1,0,0,0,.07-0.13,3.88,3.88,0,0,1,0-1.22,3,3,0,0,1,.46-1.39,3.28,3.28,0,0,1,1.18-1s0.1,0,.1-0.09h0.13a5.41,5.41,0,0,0,.09.54,4.11,4.11,0,0,1,0,1.26,2.21,2.21,0,0,1-.83,1.32l-0.51.41v0h0c0.42-.15.84-0.3,1.27-0.43a0.3,0.3,0,0,0,.14-0.1,3.72,3.72,0,0,1,.75-0.64,1.88,1.88,0,0,1,1.37-.29,6.8,6.8,0,0,1,1,.25c0.06,0,.11,0,0,0.11a3.13,3.13,0,0,1-2,1,2.44,2.44,0,0,1-1.23-.25,0.22,0.22,0,0,0-.18,0q-0.9.31-1.76,0.69a0.11,0.11,0,0,0-.06.06l0.5-.06a4.89,4.89,0,0,1,1,0,2.25,2.25,0,0,1,1.2.55A4.43,4.43,0,0,1,32,16.64s0.08,0.09,0,.12a3,3,0,0,1-2.16,0,4.21,4.21,0,0,1-1.71-1.43,0.15,0.15,0,0,0-.23-0.06,23.07,23.07,0,0,0-2.6,1.46l-0.06,0v0h0a7.76,7.76,0,0,1,1.15-.26,2.32,2.32,0,0,1,1.44.28,4.67,4.67,0,0,1,1.23,1s0.08,0.09,0,.13a3.22,3.22,0,0,1-2,.38,3.92,3.92,0,0,1-1.39-.56,4,4,0,0,1-.81-0.64,0.1,0.1,0,0,0-.15,0A23.69,23.69,0,0,0,22.36,19l0,0v0h0l0.78-.34a2.57,2.57,0,0,1,2.09,0,5.31,5.31,0,0,1,1.13.67c0.06,0,.09.08,0,0.14a3.38,3.38,0,0,1-1.77.71A3.8,3.8,0,0,1,23.08,20a4.26,4.26,0,0,1-1-.54,0.1,0.1,0,0,0-.16,0,16.55,16.55,0,0,0-2.07,2.37v0h0l0.59-.4a2.76,2.76,0,0,1,1.33-.5,3.66,3.66,0,0,1,1.38.22,5.23,5.23,0,0,1,.8.35c0.06,0,.11.06,0,0.12a3.18,3.18,0,0,1-1.87,1.06,4.53,4.53,0,0,1-1.91-.2,3.54,3.54,0,0,1-.57-0.22,0.11,0.11,0,0,0-.16,0A20.53,20.53,0,0,0,18,24.78v0h0l0.58-.52a2.59,2.59,0,0,1,1.94-.6,5.63,5.63,0,0,1,1.36.26C22,24,22,24,21.95,24.1a4.3,4.3,0,0,1-.81.89,2.78,2.78,0,0,1-1.57.6,5.13,5.13,0,0,1-1.8-.12,0.1,0.1,0,0,0-.14.07,22,22,0,0,0-.94,2.5,0.18,0.18,0,0,0,0,.11h0l0.43-.54a2.5,2.5,0,0,1,1.61-.89,5.6,5.6,0,0,1,1.63,0c0.12,0,.14.05,0.09,0.16A4.2,4.2,0,0,1,19.68,28a3,3,0,0,1-1.53.8,5.16,5.16,0,0,1-1.59.14,0.14,0.14,0,0,0-.17.12,21.94,21.94,0,0,0-.49,2.63,0.08,0.08,0,0,0,0,.09L16,31.65a5.57,5.57,0,0,1,.43-0.73,2.67,2.67,0,0,1,1.59-1,5.76,5.76,0,0,1,1.37-.18c0.12,0,.1.06,0.08,0.13a3.12,3.12,0,0,1-1.87,2.34,5.52,5.52,0,0,1-1.65.44,0.14,0.14,0,0,0-.15.16,20.06,20.06,0,0,0,0,2.35q0,0.16,0,.32l0,0a0.13,0.13,0,0,0,0-.1q0.1-.36.24-0.72a2.45,2.45,0,0,1,1-1.23,5.29,5.29,0,0,1,1.78-.66c0.07,0,.12,0,0.11.07a3.15,3.15,0,0,1-.87,2.24A5,5,0,0,1,16,36.31a0.14,0.14,0,0,0-.13.19,18.6,18.6,0,0,0,.44,2.27,0.36,0.36,0,0,0,.06.17l0.1-.65a2.58,2.58,0,0,1,1.09-1.71A5.84,5.84,0,0,1,19,35.81c0.08,0,.12,0,0.13.07a3.56,3.56,0,0,1-.26,2.05A3.67,3.67,0,0,1,18,39a5,5,0,0,1-1.22.81,0.1,0.1,0,0,0-.07.14,18.42,18.42,0,0,0,.88,2.33l0,0.05a0.33,0.33,0,0,0,0-.15,3.38,3.38,0,0,1,.16-1.56,3.66,3.66,0,0,1,1.1-1.36,6,6,0,0,1,.8-0.55c0.06,0,.1-0.05.13,0a3.42,3.42,0,0,1,0,2.33,4.47,4.47,0,0,1-1,1.44,4.87,4.87,0,0,1-.73.63,0.1,0.1,0,0,0,0,.15,17.91,17.91,0,0,0,1.26,2l0,0v0a5.09,5.09,0,0,1-.16-1.08,2.55,2.55,0,0,1,.39-1.32,5.45,5.45,0,0,1,1.21-1.4c0.05,0,.1-0.08.14,0a3.64,3.64,0,0,1,.49,2.2,3.89,3.89,0,0,1-.49,1.32,5.13,5.13,0,0,1-.85,1.15s-0.08.09,0,.15a20.51,20.51,0,0,0,1.55,1.74h0v0a6.21,6.21,0,0,1-.31-0.91,2.56,2.56,0,0,1,.14-1.45,5.47,5.47,0,0,1,1-1.63c0.05-.06.09-0.08,0.15,0a4,4,0,0,1,.88,1.9,3.35,3.35,0,0,1-.15,1.36,5.31,5.31,0,0,1-.7,1.54c0,0.05-.07.1,0,0.16a20.35,20.35,0,0,0,1.77,1.43s0,0,0,0c-0.12-.2-0.25-0.41-0.35-0.62a2.76,2.76,0,0,1-.15-2,5.89,5.89,0,0,1,.6-1.48c0.05-.1.09-0.11,0.18,0a3.91,3.91,0,0,1,1.26,1.93,4,4,0,0,1,0,1.55,5,5,0,0,1-.39,1.34,0.11,0.11,0,0,0,.05.16,22.22,22.22,0,0,0,2,1.12,0.15,0.15,0,0,0,.12,0h0l-0.39-.43a2.76,2.76,0,0,1-.72-2,5.72,5.72,0,0,1,.34-1.78c0-.14.06-0.14,0.18-0.06a4.26,4.26,0,0,1,1.53,1.54A3.6,3.6,0,0,1,29,51.24a5.27,5.27,0,0,1-.14,1.68,0.11,0.11,0,0,0,.07.15,17.82,17.82,0,0,0,2.08.7,0.19,0.19,0,0,0,.11,0h0c-0.21-.17-0.42-0.33-0.61-0.5a2.88,2.88,0,0,1-.9-1.82,5.89,5.89,0,0,1,0-1.73c0-.16,0-0.16.18-0.1a4.17,4.17,0,0,1,1.93,1.44,4.24,4.24,0,0,1,.59,1.57,5,5,0,0,1,.11,1.31,0.12,0.12,0,0,0,.12.15,21.45,21.45,0,0,1,4.56,1.4,0.25,0.25,0,0,0,.22,0,21.41,21.41,0,0,1,4.55-1.4A0.13,0.13,0,0,0,42,53.92a5.65,5.65,0,0,1,.41-2.32,2.88,2.88,0,0,1,.79-1.11,4.87,4.87,0,0,1,1.46-.88c0.07,0,.11,0,0.13.06a5.16,5.16,0,0,1-.16,2.59,3.06,3.06,0,0,1-1.14,1.39l-0.17.14h0a0.25,0.25,0,0,0,.14,0,18.16,18.16,0,0,0,2-.68,0.14,0.14,0,0,0,.1-0.19,5.48,5.48,0,0,1,0-2.56,3.18,3.18,0,0,1,1.09-1.64,4.89,4.89,0,0,1,.69-0.51c0.06,0,.11,0,0.13,0a5,5,0,0,1,.29,2.55A2.63,2.63,0,0,1,47.14,52l-0.39.43a0.12,0.12,0,0,0,.12,0c0.66-.33,1.3-0.7,1.92-1.09a0.13,0.13,0,0,0,.06-0.2,5.18,5.18,0,0,1-.42-2.63A3,3,0,0,1,49.16,47a4.71,4.71,0,0,1,.61-0.63c0.06,0,.09-0.05.13,0a5.15,5.15,0,0,1,.73,2.27,2.76,2.76,0,0,1-.51,1.65L50,50.46a0,0,0,0,0,0,.06h0l0,0a21,21,0,0,0,1.76-1.42c0.07-.06,0-0.11,0-0.17A5.43,5.43,0,0,1,51,46.68,2.89,2.89,0,0,1,51.27,45a4.65,4.65,0,0,1,.55-0.87c0-.06.08-0.08,0.13,0a5,5,0,0,1,1.13,2.18,2.58,2.58,0,0,1-.17,1.46l-0.15.37v0h0a19.14,19.14,0,0,0,1.38-1.53,0.69,0.69,0,0,0,.2-0.27A0.49,0.49,0,0,0,54.16,46a5.38,5.38,0,0,1-1.1-1.94,2.81,2.81,0,0,1,0-1.64,4.41,4.41,0,0,1,.38-0.91c0-.06.06-0.09,0.13,0A5,5,0,0,1,55,43.38a2.73,2.73,0,0,1,.07,1.71l-0.06.25v0l0,0a17.56,17.56,0,0,0,1.15-1.83c0.15-.28.15-0.28-0.11-0.48a5.3,5.3,0,0,1-1.47-1.74,2.77,2.77,0,0,1-.25-1.58,4.16,4.16,0,0,1,.2-0.93c0-.06,0-0.12.13-0.07a5,5,0,0,1,1.74,1.59,2.7,2.7,0,0,1,.34,1.62c0,0.14,0,.27,0,0.43a0.86,0.86,0,0,0,.13-0.24A18.82,18.82,0,0,0,57.71,40a0.13,0.13,0,0,0-.09-0.19,5.17,5.17,0,0,1-1.9-1.53,2.83,2.83,0,0,1-.52-1.69,4.05,4.05,0,0,1,0-.73c0-.07,0-0.1.11-0.07A5,5,0,0,1,57.28,37a2.61,2.61,0,0,1,.64,1.48c0,0.14,0,.29.06,0.44A0.15,0.15,0,0,0,58,38.81a18.84,18.84,0,0,0,.46-2.34c0-.11,0-0.13-0.12-0.15a5.1,5.1,0,0,1-2.19-1.23,2.81,2.81,0,0,1-.76-1.51,3.46,3.46,0,0,1-.08-0.68c0-.06,0-0.11.09-0.1a4.83,4.83,0,0,1,2.15.91,2.7,2.7,0,0,1,.84,1.36c0,0.14.09,0.29,0.13,0.43a0.1,0.1,0,0,0,0-.11,21.17,21.17,0,0,0,0-2.58,0.16,0.16,0,0,0-.18-0.18,5.08,5.08,0,0,1-2.32-.83A2.4,2.4,0,0,1,55.39,31a4,4,0,0,1-.47-1.16c0-.05-0.06-0.14.07-0.14a5.34,5.34,0,0,1,1.92.37,2.53,2.53,0,0,1,1.29,1.2,5.43,5.43,0,0,0,.3.52c0-.16,0-0.33-0.06-0.49A22,22,0,0,0,58,29.16C58,29,58,29,57.78,29a5.36,5.36,0,0,1-2.15-.34,2.76,2.76,0,0,1-1.31-1.09,4,4,0,0,1-.39-0.71c0-.06,0-0.1.05-0.11a4.54,4.54,0,0,1,2.38.19,2.32,2.32,0,0,1,.89.68c0.16,0.18.3,0.37,0.45,0.55h0v0a19.74,19.74,0,0,0-.83-2.28c0-.09-0.09-0.19-0.12-0.28a0.13,0.13,0,0,0-.19-0.1,5,5,0,0,1-2.27,0,2.75,2.75,0,0,1-1.43-.86,4.12,4.12,0,0,1-.45-0.57c0-.06,0-0.1,0-0.13a4.49,4.49,0,0,1,2.29-.21,2.46,2.46,0,0,1,1.09.58c0.18,0.15.35,0.32,0.52,0.47h0v0m-29.69,28h0Zm21,0h0Z"></path><path class="m" d="M33.5,13.8q0-1.68,0-3.36V9.63c0-.26-0.12-0.47.23-0.47h6.8c0.4,0,.38,0,0.38.33q0,0.87,0,1.74,0,1.67,0,3.35,0,0.8,0,1.61a3.27,3.27,0,0,1-.53.59,11.38,11.38,0,0,1-1.92.77,4.22,4.22,0,0,1-1.31.45,2,2,0,0,0-.66-0.28l-0.74-.28C35.06,17.18,34,17,33.65,16.35a2.41,2.41,0,0,1-.12-1.25q0-.32,0-0.65a1.61,1.61,0,0,0,0-.67c0-1.52,0,0,0,0m7.13-1h0q0-1.58,0-3.16c0-.12,0-0.12-0.14-0.12H33.93c-0.05,0-.11,0-0.11.07,0,0.73,0,1.45,0,2.18,0,1.38,0,2.77,0,4.15a0.68,0.68,0,0,0,.22.5,2,2,0,0,0,.65.38l0.91,0.35L37,17.64a0.51,0.51,0,0,0,.41,0c0.67-.26,1.35-0.51,2-0.76a4.72,4.72,0,0,0,.72-0.29,0.89,0.89,0,0,0,.53-0.81c0-1,0-2,0-3"></path><path class="p" d="M40.64,12.77c0,1,0,2,0,3a0.89,0.89,0,0,1-.53.81,4.72,4.72,0,0,1-.72.29c-0.68.25-1.36,0.5-2,.76a0.51,0.51,0,0,1-.41,0l-1.36-.54-0.91-.35A2,2,0,0,1,34,16.38a0.68,0.68,0,0,1-.22-0.5c0-1.38,0-2.77,0-4.15,0-.73,0-1.45,0-2.18,0-.08.05-0.07,0.11-0.07h6.56c0.14,0,.14,0,0.14.12q0,1.58,0,3.16h0Zm-3.81-1.84a0.09,0.09,0,0,0,.11.08h0s0,0.07-.07.07a1,1,0,0,0-.45.12,0.14,0.14,0,0,1-.22-0.09,0.46,0.46,0,0,1,.13-0.41,0.65,0.65,0,0,0,.17-0.3,0.28,0.28,0,0,0-.21-0.3,0.88,0.88,0,0,0-.29,0,0.79,0.79,0,0,0-.59.29,1.7,1.7,0,0,0-.36,1c0,0.19,0,.39,0,0.59A0.07,0.07,0,0,1,35,12s0,0-.05-0.06a1.33,1.33,0,0,1,0-.29C35,11.4,35,11.13,35,10.85A1.17,1.17,0,0,0,35,10.25s0,0,0,0,0,0,0,0,0,0.07,0,.07-0.05,0-.06-0.07a0.86,0.86,0,0,1,0-.33,0.35,0.35,0,0,0,0-.21,0.75,0.75,0,0,0-.24.48,1.38,1.38,0,0,0,.08.38,0.08,0.08,0,0,1,0,.11c-0.1,0-.06.08,0,0.13a0.73,0.73,0,0,1,.07.48,2.94,2.94,0,0,0,0,.61c0,0.08,0,.15-0.12.15a0.16,0.16,0,0,0-.13.09s0,0.06.06,0.08a0.41,0.41,0,0,1,.1.21,0.43,0.43,0,0,0,.47.36,0.09,0.09,0,0,1,.09.09,1.93,1.93,0,0,1,0,.23c0,0.24,0,.48,0,0.72s0,0.78.06,1.17c0,0.21,0,.42,0,0.62a0.71,0.71,0,0,1,0,.32,3.42,3.42,0,0,1-.21.44s0,0,0,.05a0,0,0,0,0,.05,0,1.51,1.51,0,0,0,.45-0.29,0.93,0.93,0,0,0,.27-0.63c0-.4-0.07-0.79-0.08-1.18a1.64,1.64,0,0,0,0-.32,0.29,0.29,0,0,1,0-.2l0.17,1.42a0.25,0.25,0,0,0,.11-0.15,1.58,1.58,0,0,0,.19-0.67A3.31,3.31,0,0,0,36,13.7a3.44,3.44,0,0,1-.09-0.42c0.1,0.23.14,0.45,0.21,0.66,0,0,0,.1,0,0.1s0-.07,0-0.1a0.33,0.33,0,0,0,0-.23l0-.1a0.09,0.09,0,0,1,.07.07,3.27,3.27,0,0,1,.12.72,4.12,4.12,0,0,1-.07.67c0,0.32-.08.65-0.1,1a0.45,0.45,0,0,1-.18.39,0.41,0.41,0,0,0-.15.16c0,0.06,0,.09.06,0.09a0.88,0.88,0,0,0,.35,0,2.54,2.54,0,0,0,.34-0.13,0.23,0.23,0,0,1,.25,0,0.23,0.23,0,0,0,.1,0,3,3,0,0,0,.44,0s0.07,0,.06.06,0,0.13.15,0.15a0.48,0.48,0,0,1,.24.1,0.54,0.54,0,0,0,.45.1c0.09,0,.11,0,0.06-0.12a0.69,0.69,0,0,0-.29-0.22c-0.1,0-.11-0.13,0-0.18a0.37,0.37,0,0,0,.13-0.12,1.59,1.59,0,0,0,.19-0.58c0-.13,0-0.26,0-0.39s0-.43,0-0.64,0-.59,0-0.89h0l0,0.13c0.09-.17.12-0.35,0.22-0.53,0,0,0,0,0,.06,0,0.24-.1.47-0.13,0.71a1.28,1.28,0,0,0,.24.91,0.06,0.06,0,0,0,0,0s0,0,0,0c0-.2,0-0.4.07-0.6a6.44,6.44,0,0,0,.08-0.64,0.06,0.06,0,0,1,0-.05,6.05,6.05,0,0,1,0,.63c0,0.15,0,.29,0,0.44a3.6,3.6,0,0,0,0,.86,0.55,0.55,0,0,0,.12.26,1.37,1.37,0,0,0,.37.29l0.23,0.12a0.06,0.06,0,0,0,.07,0s0,0,0,0a3.28,3.28,0,0,1-.18-0.43,1.81,1.81,0,0,1,0-.66c0-.3,0-0.61,0-0.91s0-.53,0-0.8,0-.67,0-1,0-.8,0-1.21a1.77,1.77,0,0,0-.24-0.86A1,1,0,0,0,38.57,10a0.3,0.3,0,0,0-.3.15,0.4,0.4,0,0,0,.07.4,0.7,0.7,0,0,1,.18.5c0,0.14-.06.18-0.2,0.12a3.4,3.4,0,0,0-.67-0.11s-0.07,0-.08,0,0,0,.06,0a0,0,0,0,0,0,0,0.2,0.2,0,0,0,.09,0A0.44,0.44,0,0,0,38,10.82a0.61,0.61,0,0,0-.1-1,1,1,0,0,0-.95,0,0.73,0.73,0,0,0-.35.75,0.21,0.21,0,0,0,.09.16h0a0.16,0.16,0,0,0,.15.16h0Z"></path><path class="q" d="M37.65,11a0,0,0,0,1,0,0s-0.07,0-.06,0,0.05,0,.08,0a3.4,3.4,0,0,1,.67.11c0.14,0.05.19,0,.2-0.12a0.7,0.7,0,0,0-.18-0.5,0.4,0.4,0,0,1-.07-0.4,0.3,0.3,0,0,1,.3-0.15,1,1,0,0,1,.89.46,1.77,1.77,0,0,1,.24.86c0,0.4,0,.8,0,1.21s0,0.67,0,1,0,0.53,0,.8,0,0.61,0,.91a1.81,1.81,0,0,0,0,.66,3.3,3.3,0,0,0,.18.43s0,0,0,0a0.06,0.06,0,0,1-.07,0l-0.23-.12A1.37,1.37,0,0,1,39.15,16,0.55,0.55,0,0,1,39,15.74a3.6,3.6,0,0,1,0-.86c0-.15,0-0.29,0-0.44a6,6,0,0,0,0-.63,0.06,0.06,0,0,0,0,.05,6.39,6.39,0,0,1-.08.64c0,0.2,0,.4-0.07.6,0,0,0,0,0,0l0,0a1.28,1.28,0,0,1-.24-0.91c0-.24.11-0.47,0.13-0.71,0,0,0,0,0-.06-0.1.18-.13,0.37-0.22,0.53l0-.13h0c0,0.3,0,.59,0,0.89s0,0.43,0,.64,0,0.26,0,.39a1.59,1.59,0,0,1-.19.58,0.37,0.37,0,0,1-.13.12c-0.1.06-.09,0.14,0,0.18a0.69,0.69,0,0,1,.29.22c0.05,0.07,0,.1-0.06.12a0.54,0.54,0,0,1-.45-0.1,0.48,0.48,0,0,0-.24-0.1c-0.13,0-.16,0-0.15-0.15s0-.06-0.06-0.06a3,3,0,0,1-.44,0,0.23,0.23,0,0,1-.1,0,0.23,0.23,0,0,0-.25,0,2.53,2.53,0,0,1-.34.13,0.88,0.88,0,0,1-.35,0c-0.06,0-.09,0-0.06-0.09a0.41,0.41,0,0,1,.15-0.16A0.45,0.45,0,0,0,36.25,16c0-.33.07-0.65,0.1-1a4.12,4.12,0,0,0,.07-0.67,3.27,3.27,0,0,0-.12-0.72,0.09,0.09,0,0,0-.07-0.07,0.67,0.67,0,0,0,0-.34C36.16,13,36,12.73,35.94,12.44c0-.06,0,0-0.07,0l-0.68.32a0.06,0.06,0,0,0,0,.07c0,0.1,0,.2,0,0.3q0.07,1.24.14,2.47a1,1,0,0,1-.09.51,0.27,0.27,0,0,0-.08.14,0.67,0.67,0,0,0,.38-0.29,1,1,0,0,0,.1-0.33,5,5,0,0,0,0-.79s0,0,0,0v-0.1a0,0,0,0,0,0,0c-0.06-.58-0.11-1.16-0.13-1.75h0c0.12,0.66.27,1.33,0.34,2l0-.05A1.34,1.34,0,0,0,36,14c-0.07-.41-0.17-0.82-0.28-1.23,0,0,0-.06,0-0.07s0,0,0,.05c0.12,0.3.25,0.6,0.34,0.91a0.21,0.21,0,0,0,0,.11,0.1,0.1,0,0,0,0-.06,0.33,0.33,0,0,1,0,.23s0,0.1,0,.1,0-.06,0-0.1C36,13.73,36,13.51,35.9,13.28a3.46,3.46,0,0,0,.09.42,3.33,3.33,0,0,1,.1.71,1.58,1.58,0,0,1-.19.67,0.25,0.25,0,0,1-.11.15l-0.16-1.42a0.29,0.29,0,0,0,0,.2,1.62,1.62,0,0,1,0,.32c0,0.4.09,0.79,0.08,1.18a0.93,0.93,0,0,1-.27.63,1.51,1.51,0,0,1-.45.29,0,0,0,0,1-.05,0s0,0,0-.05a3.41,3.41,0,0,0,.21-0.44,0.71,0.71,0,0,0,0-.32c0-.21,0-0.42,0-0.62,0-.39,0-0.78-0.06-1.17s0-.48,0-0.72a2,2,0,0,0,0-.23A0.09,0.09,0,0,0,35,12.8a0.43,0.43,0,0,1-.47-0.36,0.41,0.41,0,0,0-.1-0.21s-0.08,0-.06-0.08a0.16,0.16,0,0,1,.13-0.09c0.13,0,.12-0.08.12-0.15a2.94,2.94,0,0,1,0-.61,0.73,0.73,0,0,0-.07-0.48s-0.06-.1,0-0.13a0.08,0.08,0,0,0,0-.11,1.38,1.38,0,0,1-.08-0.38,0.75,0.75,0,0,1,.24-0.48,0.35,0.35,0,0,1,0,.21,0.86,0.86,0,0,0,0,.33s0,0.07.06,0.07,0,0,0-.07,0,0,0,0,0,0,0,0a1.17,1.17,0,0,1,.06.61c0,0.27-.08.55-0.13,0.82a1.32,1.32,0,0,0,0,.29S34.91,12,35,12A0.07,0.07,0,0,0,35,12c0-.2,0-0.39,0-0.59a1.7,1.7,0,0,1,.36-1A0.79,0.79,0,0,1,36,10.08a0.88,0.88,0,0,1,.29,0,0.28,0.28,0,0,1,.21.3,0.64,0.64,0,0,1-.17.3,0.46,0.46,0,0,0-.13.41,0.14,0.14,0,0,0,.22.09,1,1,0,0,1,.45-0.12c0.06,0,.07,0,0.07-0.07S37,11,37,11a0.45,0.45,0,0,0-.08-0.2,2.7,2.7,0,0,1-.16-0.23,0.19,0.19,0,0,1,0-.19,0.5,0.5,0,0,1,.54-0.29,0.66,0.66,0,0,1,.28.11,0.38,0.38,0,0,1,.09.64,0.31,0.31,0,0,0-.12.22l0.11,0m-3.09,1.47s0,0,0,0v0s0,0.05.06,0a0.21,0.21,0,0,0,.17,0v0s0,0,0-.05a0,0,0,0,0,0,0s0-.06,0-0.06H34.54l0,0.06h0m2.71-2.29a0.6,0.6,0,0,1,0,.06,0.55,0.55,0,0,1,.21,0h0s0,0,0,0a0.22,0.22,0,0,0-.2,0s0-.06,0-0.06a0.14,0.14,0,0,0-.15.16,0.28,0.28,0,0,1,.18-0.09m0.25,2.62h0a0.12,0.12,0,0,0-.14,0c-0.06,0,0,.06,0,0.09a0.42,0.42,0,0,0,0,.06s0,0.09.06,0.09,0.12,0,.13-0.07h0c0,0.08.11,0.09,0.19,0a0.4,0.4,0,0,0,.6,0,0.89,0.89,0,0,0,.19-0.23,1.48,1.48,0,0,0,.17-0.51,1.34,1.34,0,0,0-.05-0.61h0a0.12,0.12,0,0,0,.14.06,0.09,0.09,0,0,1,.09.09,0.5,0.5,0,0,1,0,.14,3.21,3.21,0,0,1-.17.74,4.76,4.76,0,0,0-.24.73,0.74,0.74,0,0,0,.07.42c0.13-.35.26-0.7,0.41-1.06a0.14,0.14,0,0,1,0,.11c0,0.18-.07.36-0.12,0.54a3.73,3.73,0,0,0-.16,1,1.07,1.07,0,0,0,.18.59c0.06-.69.23-1.35,0.35-2,0,0.55-.06,1.1-0.11,1.64a3.9,3.9,0,0,0,0,1.13,0.67,0.67,0,0,0,.43.56,0.05,0.05,0,0,0,.06,0s0,0,0,0a0.89,0.89,0,0,1-.18-0.66c0-.52.06-1,0.09-1.57q0.06-1.1.12-2.19a2.12,2.12,0,0,0-.21-1.11,1,1,0,0,0-.71-0.53,0.26,0.26,0,0,0-.34.29,0.61,0.61,0,0,0,.19.3,0.36,0.36,0,0,1,0,.61s0,0-.06,0a0.41,0.41,0,0,0-.44,0c0-.09,0-0.1-0.07-0.12l-0.25,0a0.1,0.1,0,0,0-.07,0,0.88,0.88,0,0,1-.6.09,0.5,0.5,0,0,0-.36-0.05,0.29,0.29,0,0,0-.27.19l-0.18.17a1.23,1.23,0,0,0-.31.33,0.11,0.11,0,0,1-.08,0l-0.2.05,0,0,0,0a0.27,0.27,0,0,0,.23-0.24,0.11,0.11,0,0,1,0-.06,0,0,0,0,1,.07,0,0.08,0.08,0,0,0,.12,0l0.09-.08a0.39,0.39,0,0,0,.14-0.13,0.26,0.26,0,0,0-.13-0.14,0.32,0.32,0,0,1,0-.49l0.18-.24a0.26,0.26,0,0,0,0-.33,0.12,0.12,0,0,0-.07-0.07,0.51,0.51,0,0,0-.36.06,1.09,1.09,0,0,0-.65.76,2.88,2.88,0,0,0-.07,1.15c0,0.12,0,.12.14,0.06a0.19,0.19,0,0,1,.15-0.06s0,0,0,0-0.08.07,0,.13a0.25,0.25,0,0,1,.06.17c-0.06-.07-0.12-0.12-0.16-0.18s-0.1,0-.14,0,0,0.05,0,.07a0.25,0.25,0,0,1,0,.19c0,0.06,0,.11-0.05.17s0,0,0,0h0l1-.49a0.9,0.9,0,0,1,.3-0.1,0.19,0.19,0,0,1,.25.15,1.29,1.29,0,0,1,0,.38s0,0.06.06,0.06h0.68s0.06,0,0-.05,0-.27-0.07-0.4a0.69,0.69,0,0,0-.26-0.43,0.12,0.12,0,0,1,.11,0l0.12,0.06a0.09,0.09,0,0,0,.11,0,0.07,0.07,0,0,0,0-.11,0.92,0.92,0,0,0-.16-0.11,0.65,0.65,0,0,1-.22-0.16l0.13,0a2.77,2.77,0,0,0,.33.09s0.08,0,.09,0a0.06,0.06,0,0,0,0-.08l-0.07,0a1.53,1.53,0,0,1-.27-0.1,3.49,3.49,0,0,0,.62,0,1.36,1.36,0,0,0-.32,1.28,0.11,0.11,0,0,1,0,.1l0,0m-0.14-1.93a0.24,0.24,0,0,1-.17.13,0.35,0.35,0,0,0-.24.16s0,0.06,0,.06a1,1,0,0,0,.41,0,0.06,0.06,0,0,0,.06,0,0.88,0.88,0,0,0,0-.38,0,0,0,0,0,0,0,0.56,0.56,0,0,0,0-.21A0.26,0.26,0,0,0,37,10.36s0,0,0,0A0.21,0.21,0,0,0,37,10.15a0.42,0.42,0,0,0-.16.14s0,0.07.07,0.1a0.14,0.14,0,0,0-.08.18s0,0.06.07,0,0.06,0,.07,0a0.43,0.43,0,0,1,0,.21A0.25,0.25,0,0,1,37,10.7a0,0,0,0,0-.05,0,0,0,0,0,0,0,0,1,1,0,0,1,.07.14,0.19,0.19,0,0,0,.24.07,0.86,0.86,0,0,0,.12-0.08v0m0.48,4.59c0-.43-0.06-0.85-0.1-1.28,0-.27,0-0.55-0.08-0.82,0,0,0,0,0-.05s0,0,0,0,0,0,0,0l0.12,1L38,15.54a0.23,0.23,0,0,0,0,.11V15.54q0-1,0-2a0.44,0.44,0,0,0-.5-0.45H37.42a3.11,3.11,0,0,0-.59,0,0.21,0.21,0,0,0-.21.19c0,0.3-.06.61-0.1,0.91s-0.07.64-.11,1l-0.09.82,0,0.31A1.41,1.41,0,0,1,36.7,16a4.57,4.57,0,0,1,1-.31H37.8a0.87,0.87,0,0,1-.22.08,0.09,0.09,0,0,0-.06.12c0,0.06.06,0,.09,0l0.29,0a1.43,1.43,0,0,1-.24.13,0.09,0.09,0,0,0-.07.11,1.1,1.1,0,0,1,0,.52c0,0.08,0,.1.11,0.09a0.3,0.3,0,0,1,.12,0,0.83,0.83,0,0,1,.2.12,0.55,0.55,0,0,0,.27.1,0.1,0.1,0,0,0,.09,0s0,0,0-.07a0.5,0.5,0,0,0-.26-0.2,0.27,0.27,0,0,1-.17-0.27c0-.24,0-0.49,0-0.73,0,0,0-.08-0.07-0.07a0.2,0.2,0,0,0,0-.1,0,0,0,0,0,0,0m0.57-.94a6.49,6.49,0,0,0-.05-1c0-.08,0-0.15,0-0.23a0,0,0,0,0,0,0,0,0,0,0,0,0,0c0,0.07,0,.15-0.07.22a2.17,2.17,0,0,0-.11.6c0,0.61,0,1.21,0,1.82a0.63,0.63,0,0,1,0,.28,0.1,0.1,0,0,0,.07.12c0.06,0,.08,0,0.1-0.07a1.23,1.23,0,0,0,.07-0.17,4.17,4.17,0,0,0,.12-0.79c0-.24,0-0.48,0-0.8m-3.84-3.77a0.84,0.84,0,0,1,.11.41,4.37,4.37,0,0,1-.07.54,0.66,0.66,0,0,0,0,.35,0.05,0.05,0,0,0,0,0A0.16,0.16,0,0,0,34.88,12a1.61,1.61,0,0,1,0-.53A5.67,5.67,0,0,0,35,10.67,0.74,0.74,0,0,0,35,10.33s0,0.1-.1.09a0.15,0.15,0,0,1-.1-0.11l0-.06a0.9,0.9,0,0,1,0-.33,0.49,0.49,0,0,0-.12.43l0.09,0.4s-0.07,0-.11,0m2.78,5.75h0.15s0.05,0,0-.05l-0.12-.59a0,0,0,0,0-.06,0,0.89,0.89,0,0,0-.63.34c-0.08.11,0,.2,0.1,0.25a1.38,1.38,0,0,0,.51.1m-1.06-3.26a1.66,1.66,0,0,0,.08.61s0,0.07.05,0.06,0,0,0-.07a1.28,1.28,0,0,0,0-.23,4.83,4.83,0,0,0,0-.84,0.54,0.54,0,0,0-.13-0.34,0.09,0.09,0,0,0-.08-0.05s0,0.05,0,.08c0,0.28,0,.56,0,0.79m-0.11,3.4a0.21,0.21,0,0,0,.15,0,0.56,0.56,0,0,1,.23-0.1,0.11,0.11,0,0,0,.11-0.13,0.5,0.5,0,0,1,0-.22s0,0,0,0a0.34,0.34,0,0,0-.26.19,0.08,0.08,0,0,1-.06.06l-0.23.12a0.13,0.13,0,0,0-.07.12s0.07,0,.11,0H36.2m-1.73-4.56a0.19,0.19,0,0,0-.06.06,0.15,0.15,0,0,0,.07.1s0,0,.06,0a0.51,0.51,0,0,1,.4,0,0.13,0.13,0,0,0,.15-0.06A0.16,0.16,0,0,0,35,12.09s0,0-.06,0a0.45,0.45,0,0,1-.43,0,0.05,0.05,0,0,0-.05,0m0.19,0.23h0s-0.07,0-.07,0,0,0,.06,0a0.82,0.82,0,0,1,.23,0c0.09,0,.1,0,0.05.09a0.14,0.14,0,0,0,0,0,0.07,0.07,0,0,0,0,.09,0.1,0.1,0,0,0,.12,0,0.19,0.19,0,0,0,0-.21,0.18,0.18,0,0,0-.19-0.06,0.37,0.37,0,0,1-.17,0m2,0.56c0,0.06,0,.14.1,0.13s0.08-.09.09-0.14a0.09,0.09,0,0,0-.11-0.11c-0.11,0-.08.07-0.08,0.12m0.44,0s0,0,0,.06a0.08,0.08,0,0,0,.09.08,0.08,0.08,0,0,0,.09-0.08,0.86,0.86,0,0,0,0-.1,0.06,0.06,0,0,0-.07-0.06c-0.11,0-.12,0-0.11.1m0,0s0,0,0,0a0.08,0.08,0,0,0-.1-0.1c-0.09,0-.09,0-0.09.1s0,0,0,.07S36.9,13,37,13s0.08-.06.09-0.12m0.39-2.5a0.29,0.29,0,0,1,.09.33c0.09,0,0-.08,0-0.11s0-.19-0.13-0.22m-0.13-.08a0.42,0.42,0,0,1,.23.07s0,0,.06,0,0,0,0-.06a0.24,0.24,0,0,0-.28,0m-2.63,2.34c0.1,0.12.09,0.13,0.19,0H34.69Z"></path><path class="r" d="M35.48,12.92c0,0.58.07,1.17,0.13,1.75a0,0,0,0,0,0,0v0.13a5,5,0,0,1,0,.79,1,1,0,0,1-.1.33,0.67,0.67,0,0,1-.38.29,0.27,0.27,0,0,1,.08-0.14,1,1,0,0,0,.09-0.51q-0.07-1.24-.14-2.47c0-.1,0-0.2,0-0.3a0.06,0.06,0,0,1,0-.07l0.68-.32s0.06,0,.07,0c0.07,0.28.22,0.55,0.29,0.84a0.67,0.67,0,0,1,0,.34l0,0.1a0.1,0.1,0,0,1,0,.06,0.21,0.21,0,0,1,0-.11c-0.09-.31-0.22-0.61-0.34-0.91,0,0,0-.06,0-0.05s0,0,0,.07c0.11,0.41.21,0.81,0.28,1.23a1.34,1.34,0,0,1-.12.89l0,0.05c-0.06-.69-0.21-1.35-0.34-2a0.08,0.08,0,0,0,0-.07v0.07"></path><path class="m" d="M37.65,11l-0.11,0a0.31,0.31,0,0,1,.12-0.22,0.38,0.38,0,0,0-.09-0.64,0.66,0.66,0,0,0-.28-0.11,0.5,0.5,0,0,0-.54.29,0.19,0.19,0,0,0,0,.19,2.74,2.74,0,0,0,.16.23A0.45,0.45,0,0,1,37,11c0,0.06,0,.05-0.07,0h0a0.34,0.34,0,0,0-.11-0.08h0l-0.15-.16h0a0.66,0.66,0,0,1,.05-0.63,0.76,0.76,0,0,1,.77-0.34,0.69,0.69,0,0,1,.58.47,0.58,0.58,0,0,1-.27.63,0.18,0.18,0,0,0-.07.05,0.2,0.2,0,0,1-.09,0"></path><path class="q" d="M37.74,11a0.18,0.18,0,0,1,.07-0.05,0.58,0.58,0,0,0,.27-0.63,0.69,0.69,0,0,0-.58-0.47,0.76,0.76,0,0,0-.77.34,0.66,0.66,0,0,0-.05.63,0.21,0.21,0,0,1-.09-0.16,0.73,0.73,0,0,1,.35-0.75,1,1,0,0,1,.95,0,0.61,0.61,0,0,1,.1,1,0.44,0.44,0,0,1-.26.14"></path><path class="q" d="M36.68,10.77l0.15,0.16a0.16,0.16,0,0,1-.15-0.16"></path><path class="q" d="M36.83,10.93a0.34,0.34,0,0,1,.11.08,0.09,0.09,0,0,1-.11-0.08"></path><path class="r" d="M37.55,12.78a0.11,0.11,0,0,0,0-.1,1.36,1.36,0,0,1,.32-1.28L38,11.32a0.41,0.41,0,0,1,.44,0s0,0,.06,0a0.36,0.36,0,0,0,0-.61,0.61,0.61,0,0,1-.19-0.3,0.26,0.26,0,0,1,.34-0.29,1,1,0,0,1,.71.53,2.12,2.12,0,0,1,.21,1.11q-0.06,1.1-.12,2.19c0,0.52-.06,1-0.09,1.57a0.89,0.89,0,0,0,.18.66s0,0,0,0a0.05,0.05,0,0,1-.06,0,0.67,0.67,0,0,1-.43-0.56,3.9,3.9,0,0,1,0-1.13c0.05-.55.11-1.09,0.11-1.64-0.12.67-.29,1.33-0.35,2a1.07,1.07,0,0,1-.18-0.59,3.72,3.72,0,0,1,.16-1c0-.18.08-0.36,0.12-0.54a0.14,0.14,0,0,0,0-.11c-0.15.36-.28,0.71-0.41,1.06a0.74,0.74,0,0,1-.07-0.42,4.76,4.76,0,0,1,.24-0.73,3.21,3.21,0,0,0,.17-0.74,0.5,0.5,0,0,0,0-.14,0.09,0.09,0,0,0-.09-0.09,0.12,0.12,0,0,1-.14-0.06h0a1.34,1.34,0,0,1,.05.61,1.48,1.48,0,0,1-.17.51,0.89,0.89,0,0,1-.19.23,0.4,0.4,0,0,1-.6,0,0.62,0.62,0,0,0-.16-0.19m0.39-.17,0,0.12c0,0.12,0,.12.11,0.13H38.1c0.05,0,.08,0,0.08-0.05s0.05-.32.07-0.48,0-.07.09-0.06l0.2,0c0.07,0,.08,0,0.05-0.07a0.16,0.16,0,0,0,0-.13c0-.05,0-0.06-0.06-0.06a1.16,1.16,0,0,1-.19,0c-0.06,0-.06,0-0.06-0.07l0.07-.35c0-.16,0-0.16-0.15-0.18s-0.09,0-.08.08-0.05.19-.05,0.29a0.85,0.85,0,0,0,0,.19h0a0.23,0.23,0,0,0-.14,0c-0.23,0-.23,0-0.26.17,0,0,0,.06,0,0.06l0.25,0c0.06,0,.07,0,0.06.07a1.73,1.73,0,0,0,0,.3m1.41-1.28a0.21,0.21,0,0,0,0-.13,1.3,1.3,0,0,0-.46-0.58,0.1,0.1,0,0,0-.1,0,0.06,0.06,0,0,0,0,.07,0.08,0.08,0,0,0,.06.09,0.65,0.65,0,0,1,.24.14,1,1,0,0,1,.29.45"></path><path class="s" d="M38,15.54l-0.14-1.15-0.12-1a0.42,0.42,0,0,0,0,0s0,0,0,0,0,0,0,.05c0,0.27.06,0.55,0.08,0.82,0,0.43.08,0.85,0.1,1.28,0,0,0,0,0,0a0.2,0.2,0,0,1,0,.1,0.3,0.3,0,0,0-.17,0,4.58,4.58,0,0,0-1,.31,1.41,1.41,0,0,0-.4.28l0-.31,0.09-.82c0-.32.07-0.64,0.11-1s0.06-.61.1-0.91A0.21,0.21,0,0,1,36.83,13a3.12,3.12,0,0,1,.59,0h0.12a0.44,0.44,0,0,1,.5.45l0,2s0,0,0,0"></path><path class="r" d="M35.4,12.11a0.19,0.19,0,0,0-.15.06c-0.13.07-.13,0.07-0.14-0.06A2.89,2.89,0,0,1,35.19,11a1.09,1.09,0,0,1,.65-0.76,0.51,0.51,0,0,1,.36-0.06,0.12,0.12,0,0,1,.07.07,0.26,0.26,0,0,1,0,.33l-0.18.24a0.32,0.32,0,0,0,0,.49,0.26,0.26,0,0,1,.13.14,0.39,0.39,0,0,1-.14.13l-0.09.08a0.08,0.08,0,0,1-.12,0,0.05,0.05,0,0,0-.07,0,0.11,0.11,0,0,0,0,.06,0.27,0.27,0,0,1-.23.24l0,0a0.29,0.29,0,0,0-.11.06s0,0,0,0h0a0,0,0,0,0,0,0,0,0,0,0,0,0,0h0s0,0,0,0h0Zm-0.07-.72a0.07,0.07,0,0,0,0,.07h0a0.08,0.08,0,0,0,0-.06h0v0a0.88,0.88,0,0,1,.56-0.64c0.06,0,0-.09,0-0.13s-0.08,0-.11,0a1.27,1.27,0,0,0-.5.79"></path><path class="r" d="M37.16,11.84a0.69,0.69,0,0,1,.26.43c0,0.13,0,.26.07,0.4s0,0.05,0,.05H36.75c-0.05,0-.06,0-0.06-0.06a1.29,1.29,0,0,0,0-.38,0.19,0.19,0,0,0-.25-0.15,0.9,0.9,0,0,0-.3.1l-1,.49h0c0-.06,0-0.11.05-0.17a0.25,0.25,0,0,0,0-.19s-0.08,0,0-.07,0.09-.06.14,0,0.1,0.11.16,0.18a0.25,0.25,0,0,0-.06-0.17c0-.06,0-0.1,0-0.13s0,0,0,0h0s0,0,0,0h0s0,0,0,0h0L35.61,12l0.2-.05a0.11,0.11,0,0,0,.08,0,1.23,1.23,0,0,1,.31-0.33l0.18-.17,0.08,0c0.23,0.12.47,0.24,0.69,0.38"></path><path class="t" d="M38.43,14.53c0,0.32,0,.56,0,0.8a4.16,4.16,0,0,1-.12.79,1.21,1.21,0,0,1-.07.17s0,0.1-.1.07a0.1,0.1,0,0,1-.07-0.12,0.63,0.63,0,0,0,0-.28c0-.61,0-1.21,0-1.82a2.18,2.18,0,0,1,.11-0.6c0-.07,0-0.15.07-0.22a0,0,0,0,1,0,0,0,0,0,0,1,0,0c0,0.08,0,.15,0,0.23a6.49,6.49,0,0,1,.05,1"></path><path class="t" d="M37.16,11.84c-0.22-.14-0.46-0.26-0.69-0.38l-0.08,0a0.29,0.29,0,0,1,.27-0.19,0.5,0.5,0,0,1,.36.05,0.88,0.88,0,0,0,.6-0.09,0.1,0.1,0,0,1,.07,0l0.25,0c0.11,0,.11,0,0.07.12l-0.13.09a3.5,3.5,0,0,1-.62,0,1.54,1.54,0,0,0,.27.1l0.07,0a0.06,0.06,0,0,1,0,.08s-0.05,0-.09,0a2.77,2.77,0,0,1-.33-0.09l-0.13,0a0.65,0.65,0,0,0,.22.16,0.92,0.92,0,0,1,.16.11,0.07,0.07,0,0,1,0,.11,0.09,0.09,0,0,1-.11,0l-0.12-.06a0.12,0.12,0,0,0-.11,0"></path><path class="m" d="M34.59,10.75s0.06,0,.11,0l-0.09-.4a0.49,0.49,0,0,1,.12-0.43,0.9,0.9,0,0,0,0,.33l0,0.06a0.15,0.15,0,0,0,.1.11c0.06,0,.06-0.06.1-0.09a0.74,0.74,0,0,1,.05.34,5.64,5.64,0,0,1-.13.78,1.62,1.62,0,0,0,0,.53,0.16,0.16,0,0,1-.15.13,0.05,0.05,0,0,1,0,0,0.66,0.66,0,0,1,0-.35,4.4,4.4,0,0,0,.07-0.54,0.84,0.84,0,0,0-.11-0.41"></path><path class="r" d="M37.71,15.66a0.3,0.3,0,0,1,.17,0c0.06,0,.07,0,0.07.07,0,0.24,0,.49,0,0.73a0.27,0.27,0,0,0,.17.27,0.49,0.49,0,0,1,.26.2s0,0,0,.07a0.1,0.1,0,0,1-.09,0,0.55,0.55,0,0,1-.27-0.1,0.83,0.83,0,0,0-.2-0.12,0.3,0.3,0,0,0-.12,0c-0.09,0-.13,0-0.11-0.09a1.1,1.1,0,0,0,0-.52A0.09,0.09,0,0,1,37.65,16a1.44,1.44,0,0,0,.24-0.13l-0.29,0s-0.08,0-.09,0a0.09,0.09,0,0,1,.06-0.12,0.86,0.86,0,0,0,.22-0.08H37.71"></path><path class="r" d="M37.37,16.5a1.38,1.38,0,0,1-.51-0.1c-0.13-.05-0.18-0.15-0.1-0.25a0.89,0.89,0,0,1,.63-0.34,0,0,0,0,1,.06,0l0.12,0.59s0,0.05,0,.05H37.37"></path><path class="t" d="M36.31,13.24c0-.23,0-0.51,0-0.79,0,0,0-.07,0-0.08a0.09,0.09,0,0,1,.08.05,0.54,0.54,0,0,1,.13.34,4.83,4.83,0,0,1,0,.84,1.27,1.27,0,0,1,0,.23s0,0.06,0,.07,0,0-.05-0.06a1.66,1.66,0,0,1-.08-0.61"></path><path class="r" d="M37,10.36a0.26,0.26,0,0,1,.37.17,0.57,0.57,0,0,1,0,.21l0,0.09a0.84,0.84,0,0,1-.12.08A0.19,0.19,0,0,1,37,10.85,0.94,0.94,0,0,0,37,10.71a0,0,0,0,1,0,0,0,0,0,0,1,.05,0,0.25,0.25,0,0,0,.05.1,0.43,0.43,0,0,0,0-.21s-0.05,0-.07,0-0.06,0-.07,0A0.14,0.14,0,0,1,37,10.39a0.07,0.07,0,0,0,.06,0m0.16,0.25a0.26,0.26,0,0,0,.13-0.08s0,0,0,0a0.16,0.16,0,0,0-.15,0h0s-0.09,0-.08.05a0.11,0.11,0,0,0,.12.06m0,0.19a0.16,0.16,0,0,0-.14,0s0,0,0,0a0.13,0.13,0,0,0,.13,0v0"></path><path class="r" d="M36.2,16.64H36.14s-0.11,0-.11,0a0.13,0.13,0,0,1,.07-0.12l0.23-.12a0.08,0.08,0,0,0,.06-0.06,0.34,0.34,0,0,1,.26-0.19s0,0,0,0a0.5,0.5,0,0,0,0,.22,0.11,0.11,0,0,1-.11.13,0.56,0.56,0,0,0-.23.1,0.21,0.21,0,0,1-.15,0"></path><path class="r" d="M37.43,10.78a0.88,0.88,0,0,1,0,.38,0.06,0.06,0,0,1-.06,0,1,1,0,0,1-.41,0s-0.06,0,0-.06A0.35,0.35,0,0,1,37.22,11a0.24,0.24,0,0,0,.17-0.13,0.15,0.15,0,0,0,0-.1"></path><path class="r" d="M34.47,12.08a0.05,0.05,0,0,1,.05,0,0.45,0.45,0,0,0,.43,0s0,0,.06,0a0.16,0.16,0,0,1,.07.09,0.13,0.13,0,0,1-.15.06,0.51,0.51,0,0,0-.4,0s0,0-.06,0a0.15,0.15,0,0,1-.07-0.1,0.19,0.19,0,0,1,.06-0.06"></path><path class="r" d="M34.67,12.32a0.37,0.37,0,0,0,.17,0,0.18,0.18,0,0,1,.19.06,0.19,0.19,0,0,1,0,.21,0.1,0.1,0,0,1-.12,0,0.07,0.07,0,0,1,0-.09,0.14,0.14,0,0,1,0,0c0.05-.07,0-0.08-0.05-0.09a0.81,0.81,0,0,0-.23,0s-0.07,0-.06,0,0,0,.07,0h0"></path><path class="m" d="M37.5,12.94c0,0.07-.07.07-0.13,0.07S37.31,13,37.3,12.92a0.46,0.46,0,0,1,0-.06s0-.08,0-0.09a0.12,0.12,0,0,1,.14,0v0.14"></path><path class="m" d="M36.64,12.87c0-.05,0-0.12.08-0.12a0.09,0.09,0,0,1,.11.11c0,0.06,0,.14-0.09.14s-0.09-.07-0.1-0.13"></path><path class="m" d="M37.08,12.87c0-.1,0-0.11.11-0.1a0.06,0.06,0,0,1,.07.06,0.86,0.86,0,0,1,0,.1,0.08,0.08,0,0,1-.09.08,0.08,0.08,0,0,1-.09-0.08s0,0,0-.06"></path><path class="m" d="M37,12.89c0,0.05,0,.12-0.09.12s-0.1,0-.1-0.08,0,0,0-.07,0-.1.09-0.1a0.08,0.08,0,0,1,.1.1s0,0,0,0"></path><path class="m" d="M37.55,12.78a0.62,0.62,0,0,1,.16.19c-0.08.06-.16,0-0.19,0V12.8l0,0"></path><path class="t" d="M37,10.36a0.07,0.07,0,0,1-.06,0s-0.11-.07-0.07-0.1A0.42,0.42,0,0,1,37,10.15a0.21,0.21,0,0,1-.06.18s0,0,0,0"></path><path class="t" d="M37.44,10.39c0.17,0,.2.09,0.13,0.22s0,0.08,0,.11a0.29,0.29,0,0,0-.09-0.33"></path><path class="t" d="M37.31,10.3a0.24,0.24,0,0,1,.28,0s0,0,0,.06,0,0-.06,0a0.42,0.42,0,0,0-.23-0.07"></path><path class="t" d="M37.27,10.18a0.28,0.28,0,0,0-.18.09,0.14,0.14,0,0,1,.15-0.16c0.07,0,.06,0,0,0.06h0Z"></path><path class="t" d="M37.27,10.18a0.22,0.22,0,0,1,.2,0s0,0,0,0h0a0.55,0.55,0,0,0-.21,0,0.59,0.59,0,0,0,0-.06h0Z"></path><path class="r" d="M34.69,12.64h0.19c-0.1.13-.09,0.12-0.19,0"></path><path class="r" d="M34.56,12.45l0-.06h0.23c0.06,0,.06,0,0,0.06H34.56"></path><path class="r" d="M34.81,12.54v0a0.21,0.21,0,0,1-.17,0s-0.07,0-.06,0h0.22"></path><path class="r" d="M34.79,12.46s0.05,0,0,.05H34.59s-0.07,0,0,0a0.52,0.52,0,0,0,.23,0"></path><path class="q" d="M34.79,12.46a0.52,0.52,0,0,1-.23,0h0.23a0,0,0,0,1,0,0"></path><path class="q" d="M34.59,12.51h0.22v0H34.6v0"></path><path class="q" d="M35.61,12l-0.12.06,0,0A0.29,0.29,0,0,1,35.56,12l0,0"></path><path class="q" d="M37.52,12.8v0.14h0V12.8h0"></path><path class="s" d="M38,15.54s0,0,0,0v0.12a0.24,0.24,0,0,1,0-.11"></path><path class="q" d="M37.43,10.78a0.15,0.15,0,0,1,0,.1v0l0-.09a0,0,0,0,1,0,0"></path><path class="u" d="M35.48,12.92V12.85a0.08,0.08,0,0,1,0,.07h0"></path><path class="r" d="M37.87,15.52s0,0,0,0a0,0,0,0,1,0,0"></path><path class="u" d="M35.63,14.82v0s0,0,0,0"></path><path class="u" d="M35.62,14.69a0,0,0,0,1,0,0,0,0,0,0,1,0,0"></path><path class="r" d="M35.1,12.71h0s0,0,0,0h0"></path><path class="m" d="M38,12h0a0.21,0.21,0,0,0,0-.19c0-.1,0-0.19.05-0.29a0.13,0.13,0,0,1,.17,0c0.06,0,0,.06,0,0.09l-0.06.36c0,0.13,0,.13.14,0.14a0.36,0.36,0,0,1,.21,0,0.16,0.16,0,0,1,0,.13,1,1,0,0,1-.27,0c-0.08,0-.1,0-0.11.07s0,0.24-.06.36,0,0.15-.21.13a1.39,1.39,0,0,1,0-.18L38,12.25s0-.06-0.06-0.06l-0.22,0c-0.08,0-.07,0-0.06-0.09a0.07,0.07,0,0,1,.1-0.07A0.41,0.41,0,0,0,38,12"></path><path class="q" d="M39.35,11.33a1,1,0,0,0-.29-0.45,0.65,0.65,0,0,0-.24-0.14,0.08,0.08,0,0,1-.06-0.09,0.06,0.06,0,0,1,0-.07,0.1,0.1,0,0,1,.1,0,1.3,1.3,0,0,1,.46.58,0.21,0.21,0,0,1,0,.13"></path><path class="q" d="M38,12.79c0.22,0,.17,0,0.21-0.13s0-.24.06-0.36,0-.09.11-0.07a1,1,0,0,0,.27,0c0,0.05,0,.08-0.05.07l-0.2,0c-0.06,0-.08,0-0.09.06s-0.05.32-.07,0.48,0,0.06-.08.05H38c-0.13,0-.13,0-0.11-0.13s0,0,0,.06"></path><path class="q" d="M38,12a0.41,0.41,0,0,1-.24,0,0.07,0.07,0,0,0-.1.07s0,0.09.06,0.09l0.22,0s0.06,0,.06.06L38,12.61h0a1.73,1.73,0,0,1,0-.3s0-.07-0.06-0.07l-0.25,0c-0.05,0-.06,0,0-0.06,0-.2,0-0.2.26-0.17A0.23,0.23,0,0,1,38,12"></path><path class="q" d="M38.63,12.12a0.36,0.36,0,0,0-.21,0c-0.16,0-.16,0-0.14-0.14l0.06-.36s0-.08,0-0.09a0.13,0.13,0,0,0-.17,0c0-.09,0-0.09.08-0.08s0.18,0,.15.18L38.32,12s0,0.06.06,0.07a1.15,1.15,0,0,0,.19,0s0.08,0,.06.06"></path><path class="q" d="M37.94,12.61h0a1.39,1.39,0,0,0,0,.18s0,0,0-.06l0-.12"></path><path class="q" d="M38.11,11.8a0.21,0.21,0,0,1,0,.19,0.85,0.85,0,0,1,0-.19"></path><path class="q" d="M35.33,11.39a1.27,1.27,0,0,1,.5-0.79s0.08,0,.11,0,0.05,0.11,0,.13a0.88,0.88,0,0,0-.56.64v0h0"></path><path class="q" d="M35.33,11.39h0a0.08,0.08,0,0,1,0,.06h0a0.07,0.07,0,0,1,0-.07"></path><path class="q" d="M35.46,12.07s0,0,0,0a0,0,0,0,1,0,0,0,0,0,0,1,0,0"></path><path class="q" d="M35.42,12.09s0,0,0,0h0s0,0,0,0h0"></path><path class="q" d="M35.46,12.05l0,0h0s0,0,0,0"></path><path class="q" d="M37.17,10.61a0.11,0.11,0,0,1-.12-0.06s0,0,.08-0.05h0a0.16,0.16,0,0,1,.15,0s0,0,0,0a0.26,0.26,0,0,1-.13.08"></path><path class="q" d="M37.22,10.8v0a0.13,0.13,0,0,1-.13,0s0,0,0,0a0.16,0.16,0,0,1,.14,0"></path><path class="v" d="M7.62,43.14l-0.44-2,0.11,0v0.07a0.54,0.54,0,0,0,.19.36,0.62,0.62,0,0,0,.42,0l1.17-.25a3.13,3.13,0,0,0-.14-0.52,0.42,0.42,0,0,0-.21-0.19,1.51,1.51,0,0,0-.55-0.09,3.88,3.88,0,0,1-.71-0.08,0.89,0.89,0,0,1-.41-0.22,0.82,0.82,0,0,1-.23-0.44,0.64,0.64,0,0,1,.06-0.48A0.52,0.52,0,0,1,7.24,39a0.38,0.38,0,0,1,.31.05,0.41,0.41,0,0,1,.16.26,0.35,0.35,0,0,1-.31.44q-0.19.05-.16,0.17a0.27,0.27,0,0,0,.2.19A2.29,2.29,0,0,0,8,40.2a5.87,5.87,0,0,1,.6.06A0.87,0.87,0,0,1,9,40.4,0.81,0.81,0,0,1,9,40.09a0.82,0.82,0,0,1,.16-0.22q0.1-.11.53-0.48l0.63-.55a0.65,0.65,0,0,0,.19-0.27,0.61,0.61,0,0,0,0-.33l0.11,0,0.28,1.31L9.61,40.66a1.31,1.31,0,0,0-.26.27,0.49,0.49,0,0,0,0,.28l1.33-.29a0.43,0.43,0,0,0,.34-0.2,0.86,0.86,0,0,0,0-.45l0.11,0,0.44,2-0.11,0a0.75,0.75,0,0,0-.2-0.42,0.56,0.56,0,0,0-.43,0l-2.63.57a0.89,0.89,0,0,0-.44.18,0.47,0.47,0,0,0,0,.41l0,0.08Z"></path><path class="v" d="M10.56,36.38H10.45q0-.27-0.41-0.24l-1.35.1,1.41,0.69q0.39,0,.38-0.3h0.11L10.68,38H10.57a0.28,0.28,0,0,0-.11-0.23,0.57,0.57,0,0,0-.34,0l-1.7.12q-0.41,0-.39.34H7.91l-0.1-1.41H7.92A0.25,0.25,0,0,0,8,37a0.63,0.63,0,0,0,.33,0L9.7,37l-1.43-.69a0.56,0.56,0,0,0-.3.09,0.23,0.23,0,0,0-.07.21H7.79l-0.1-1.41H7.8a0.33,0.33,0,0,0,.1.23,0.42,0.42,0,0,0,.3.06L10,35.33a0.54,0.54,0,0,0,.32-0.09A0.3,0.3,0,0,0,10.35,35h0.11Z"></path><path class="v" d="M6.44,34.48a0.38,0.38,0,0,1,.12-0.28,0.39,0.39,0,1,1-.12.28m0-1.11a0.39,0.39,0,1,1,.11.28,0.38,0.38,0,0,1-.11-0.28m1.28,0.14,2.19,0a0.66,0.66,0,0,0,.38-0.06,0.37,0.37,0,0,0,.1-0.26h0.11l0,1.5H10.38a0.36,0.36,0,0,0-.1-0.27,0.66,0.66,0,0,0-.36-0.07l-1.62,0a0.66,0.66,0,0,0-.38.06,0.37,0.37,0,0,0-.1.26H7.72Z"></path><path class="v" d="M7.75,32.74l0.17-1.52a1.58,1.58,0,0,1,.26-0.76,0.56,0.56,0,0,1,.54-0.25,0.67,0.67,0,0,1,.55.7,0.77,0.77,0,0,1,.8-0.77,0.6,0.6,0,0,1,.52.41,2,2,0,0,1,.08,1L10.5,33H10.39a0.34,0.34,0,0,0-.07-0.26A0.58,0.58,0,0,0,10,32.69L8.4,32.51a1,1,0,0,0-.42,0,0.31,0.31,0,0,0-.12.24H7.75Zm1.35-1Q9.16,31,8.66,31t-0.6.64Zm0.19,0,0.9,0.1a0.33,0.33,0,0,0,.2,0,0.24,0.24,0,0,0,.08-0.19,0.58,0.58,0,0,0-.13-0.44A0.6,0.6,0,0,0,9.92,31a0.46,0.46,0,0,0-.43.15,1.19,1.19,0,0,0-.2.62"></path><path class="v" d="M10.68,27.47l0.09-.07a1.38,1.38,0,0,1,.43.59,1.17,1.17,0,0,1,0,.64,1.07,1.07,0,0,1-.6.77,1.56,1.56,0,0,1-1.05.11A1.69,1.69,0,0,1,8.68,29a1.16,1.16,0,0,1-.29-1.09,1,1,0,0,1,.36-0.62,0.63,0.63,0,0,1,.53-0.14,0.36,0.36,0,0,1,.24.16,0.37,0.37,0,0,1,0,.28,0.39,0.39,0,0,1-.18.26,0.67,0.67,0,0,1-.43,0,0.45,0.45,0,0,0-.27,0,0.21,0.21,0,0,0-.11.14,0.29,0.29,0,0,0,.09.27,1.26,1.26,0,0,0,.65.3,2.26,2.26,0,0,0,.76,0,1.15,1.15,0,0,0,.59-0.22,0.61,0.61,0,0,0,.21-0.35,0.59,0.59,0,0,0,0-.28,1.27,1.27,0,0,0-.18-0.36"></path><path class="v" d="M11.46,27.29l-0.1,0a0.32,0.32,0,0,0,0-.26,0.64,0.64,0,0,0-.3-0.16L9.44,26.3a0.56,0.56,0,0,0-.32,0,0.33,0.33,0,0,0-.18.18l-0.1,0,0.45-1.34,0.1,0a0.31,0.31,0,0,0,0,.26,0.73,0.73,0,0,0,.31.17l0.63,0.21,0.07-.2a2.28,2.28,0,0,1,.54-1,0.63,0.63,0,0,1,.66-0.17,0.62,0.62,0,0,1,.41.48,1.84,1.84,0,0,1-.11,1Zm-0.91-1.49,0.82,0.28a0.31,0.31,0,0,0,.26,0,0.27,0.27,0,0,0,.1-0.14,0.57,0.57,0,0,0,0-.43,0.56,0.56,0,0,0-.35-0.3q-0.54-.18-0.8.57"></path><path class="v" d="M10,23.19l0.61-1.27,0.1,0a0.25,0.25,0,0,0,0,.23,0.74,0.74,0,0,0,.29.2l0.61,0.29a0.71,0.71,0,0,0,.1-0.46,1,1,0,0,0-.27-0.39A1.72,1.72,0,0,1,11,21.3a0.59,0.59,0,0,1,0-.47,0.66,0.66,0,0,1,.3-0.31,0.44,0.44,0,0,1,.6.21,0.33,0.33,0,0,1,0,.29,0.31,0.31,0,0,1-.46.16q-0.22-.1-0.26,0a0.51,0.51,0,0,0,.23.45,4.26,4.26,0,0,1,.3.34,0.77,0.77,0,0,1,.1.23,1.11,1.11,0,0,1,.33-0.32,1.78,1.78,0,0,1,.57-0.12l0.5-.05a0.62,0.62,0,0,0,.51-0.24l0.1,0-0.46,1-1.57.16-0.08.16,0.69,0.33a0.73,0.73,0,0,0,.35.1A0.24,0.24,0,0,0,13,23.06l0.1,0-0.61,1.27-0.1,0a0.35,0.35,0,0,0,0-.23,0.5,0.5,0,0,0-.29-0.23l-1.47-.71a0.75,0.75,0,0,0-.37-0.1,0.27,0.27,0,0,0-.2.18Z"></path><path class="v" d="M14.82,19.95l-0.09-.06q0.14-.22-0.19-0.44l-1.14-.73,0.71,1.4q0.33,0.21.48,0l0.09,0.06-0.76,1.18-0.09-.06A0.28,0.28,0,0,0,13.88,21a0.57,0.57,0,0,0-.24-0.24l-1.44-.92q-0.35-.22-0.52,0l-0.09-.06,0.76-1.19,0.09,0.06a0.25,0.25,0,0,0,0,.23,0.63,0.63,0,0,0,.24.22l1.14,0.73L13.06,18.5a0.56,0.56,0,0,0-.29-0.11,0.23,0.23,0,0,0-.18.12l-0.09-.06,0.76-1.19,0.09,0.06a0.33,0.33,0,0,0-.06.24,0.42,0.42,0,0,0,.21.22l1.48,1a0.54,0.54,0,0,0,.31.12,0.31,0.31,0,0,0,.2-0.16l0.09,0.06Z"></path><path class="v" d="M14.31,15.28a1.68,1.68,0,0,1-.6.49,0.45,0.45,0,0,1-.49,0,0.28,0.28,0,0,1-.11-0.19,0.25,0.25,0,0,1,.06-0.19,0.41,0.41,0,0,1,.5,0,0.44,0.44,0,0,0,.27,0,0.45,0.45,0,0,0,.22-0.16,0.49,0.49,0,0,0,.15-0.28,0.51,0.51,0,0,0-.09-0.23,0.43,0.43,0,0,1-.06-0.52,0.26,0.26,0,0,1,.18-0.09,0.28,0.28,0,0,1,.21.08,0.45,0.45,0,0,1,.13.46,1.54,1.54,0,0,1-.36.66m2.52,2-0.08-.07q0.17-.2-0.13-0.46l-1-.87,0.53,1.48q0.3,0.25.48,0l0.08,0.07-0.9,1.08-0.08-.07a0.28,0.28,0,0,0,.08-0.24,0.57,0.57,0,0,0-.21-0.27l-1.31-1.1q-0.32-.27-0.52,0l-0.08-.07,0.9-1.08,0.08,0.07a0.25,0.25,0,0,0-.07.22,0.62,0.62,0,0,0,.21.25l1,0.87-0.54-1.49A0.56,0.56,0,0,0,15,15.44a0.23,0.23,0,0,0-.2.1l-0.08-.07,0.9-1.08,0.08,0.07a0.33,0.33,0,0,0-.09.23,0.42,0.42,0,0,0,.18.25l1.35,1.13a0.54,0.54,0,0,0,.3.16,0.3,0.3,0,0,0,.22-0.13l0.08,0.07Z"></path><path class="v" d="M17.22,12.76l0.9-.73,1.63,0.89-0.54-1.78,0.87-.71,0.07,0.09a0.3,0.3,0,0,0-.12.22,0.53,0.53,0,0,0,.14.29l1.09,1.33a0.58,0.58,0,0,0,.25.21,0.29,0.29,0,0,0,.24-0.07l0.07,0.08-1.13.92-0.07-.09a0.32,0.32,0,0,0,.14-0.24,0.54,0.54,0,0,0-.15-0.3L19.5,11.51l0.71,2.4-0.12.1-2.16-1.17,1.13,1.39a0.47,0.47,0,0,0,.23.17,0.33,0.33,0,0,0,.26-0.09l0.07,0.08L19,14.91l-0.07-.08A0.3,0.3,0,0,0,19,14.61a0.49,0.49,0,0,0-.14-0.28L17.77,13a0.48,0.48,0,0,0-.24-0.18,0.31,0.31,0,0,0-.24.07Z"></path><path class="v" d="M20.43,8.64a0.46,0.46,0,1,1-.2.29,0.44,0.44,0,0,1,.2-0.29m1.08,0.9,1.2,1.84a0.66,0.66,0,0,0,.26.28,0.37,0.37,0,0,0,.27-0.07l0.06,0.09-1.25.82L22,12.4a0.36,0.36,0,0,0,.17-0.24A0.66,0.66,0,0,0,22,11.82l-0.89-1.35a0.66,0.66,0,0,0-.26-0.28,0.37,0.37,0,0,0-.27.07l-0.06-.09Z"></path><path class="v" d="M25.11,9.84l0.11,0a1.38,1.38,0,0,1-.17.71,1.17,1.17,0,0,1-.46.45,1.07,1.07,0,0,1-1,.06,1.56,1.56,0,0,1-.77-0.72,1.69,1.69,0,0,1-.21-1,1.16,1.16,0,0,1,.63-0.94A1,1,0,0,1,24,8.28a0.63,0.63,0,0,1,.45.3,0.36,0.36,0,0,1,0,.29,0.37,0.37,0,0,1-.19.22,0.39,0.39,0,0,1-.31,0,0.67,0.67,0,0,1-.32-0.29,0.45,0.45,0,0,0-.2-0.19,0.21,0.21,0,0,0-.18,0,0.29,0.29,0,0,0-.14.25,1.26,1.26,0,0,0,.2.69,2.25,2.25,0,0,0,.47.6,1.15,1.15,0,0,0,.55.3,0.61,0.61,0,0,0,.4-0.07A0.59,0.59,0,0,0,25,10.22a1.27,1.27,0,0,0,.15-0.37"></path><path class="v" d="M25.76,10.3l0-.1A0.32,0.32,0,0,0,25.89,10a0.64,0.64,0,0,0-.07-0.33L25.18,8.13A0.56,0.56,0,0,0,25,7.87a0.33,0.33,0,0,0-.26,0l0-.1L26,7.2l0,0.1a0.31,0.31,0,0,0-.17.2,0.73,0.73,0,0,0,.08.34l0.25,0.61,0.2-.08a2.28,2.28,0,0,1,1.09-.23,0.63,0.63,0,0,1,.56.39,0.62,0.62,0,0,1-.09.63,1.84,1.84,0,0,1-.81.56Zm0.52-1.67,0.33,0.8a0.31,0.31,0,0,0,.16.2,0.27,0.27,0,0,0,.17,0,0.57,0.57,0,0,0,.31-0.3,0.56,0.56,0,0,0,0-.46q-0.22-.53-1-0.22"></path><path class="v" d="M27.85,6.47l1.36-.38,0,0.11a0.25,0.25,0,0,0-.18.14,0.73,0.73,0,0,0,0,.35l0.18,0.66a0.71,0.71,0,0,0,.41-0.23,1,1,0,0,0,.12-0.46A1.72,1.72,0,0,1,30,6a0.59,0.59,0,0,1,.38-0.28,0.66,0.66,0,0,1,.43,0,0.44,0.44,0,0,1,.24.59,0.34,0.34,0,0,1-.22.18,0.31,0.31,0,0,1-.42-0.24Q30.29,6,30.19,6.07a0.52,0.52,0,0,0-.18.47A4.18,4.18,0,0,1,30,7a0.77,0.77,0,0,1-.11.23,1.1,1.1,0,0,1,.46,0,1.78,1.78,0,0,1,.46.35l0.37,0.34a0.62,0.62,0,0,0,.51.22l0,0.11-1,.29L29.51,7.48l-0.17,0,0.21,0.74a0.73,0.73,0,0,0,.16.33,0.24,0.24,0,0,0,.23,0l0,0.11-1.36.38,0-.11a0.35,0.35,0,0,0,.2-0.13,0.5,0.5,0,0,0,0-.37L28.31,7a0.75,0.75,0,0,0-.17-0.35,0.27,0.27,0,0,0-.26,0Z"></path><path class="v" d="M33.5,8l0-.11q0.26,0,.21-0.43l-0.2-1.34L32.9,7.58Q33,8,33.23,7.93l0,0.11-1.39.21,0-.11A0.28,0.28,0,0,0,32.06,8a0.57,0.57,0,0,0,0-.34L31.83,6q-0.06-.41-0.37-0.36l0-.11,1.39-.21,0,0.11a0.25,0.25,0,0,0-.2.12,0.63,0.63,0,0,0,0,.33l0.2,1.34,0.58-1.48a0.56,0.56,0,0,0-.11-0.29,0.23,0.23,0,0,0-.21-0.06l0-.11,1.39-.21,0,0.11a0.33,0.33,0,0,0-.22.11,0.42,0.42,0,0,0,0,.3L34.5,7.32a0.54,0.54,0,0,0,.12.31,0.31,0.31,0,0,0,.25,0l0,0.11Z"></path><path class="v" d="M36.85,7.73V7.62q0.27,0,.26-0.4l0-1.36L36.32,7.24q0,0.39.28,0.39V7.74l-1.41,0V7.66a0.28,0.28,0,0,0,.24-0.1,0.57,0.57,0,0,0,.06-0.33l0-1.71q0-.41-0.32-0.41V5l1.41,0V5.08a0.25,0.25,0,0,0-.21.09,0.63,0.63,0,0,0-.05.33l0,1.35,0.76-1.39A0.56,0.56,0,0,0,37,5.16a0.23,0.23,0,0,0-.2-0.08V5l1.41,0V5a0.33,0.33,0,0,0-.23.09,0.42,0.42,0,0,0-.07.3l0,1.76a0.54,0.54,0,0,0,.08.33,0.3,0.3,0,0,0,.25.08V7.7ZM36.68,4.54a1.68,1.68,0,0,1-.77-0.13A0.45,0.45,0,0,1,35.61,4a0.28,0.28,0,0,1,.07-0.21,0.25,0.25,0,0,1,.18-0.08,0.41,0.41,0,0,1,.35.36,0.44,0.44,0,0,0,.14.23,0.45,0.45,0,0,0,.27.06,0.49,0.49,0,0,0,.31-0.07,0.51,0.51,0,0,0,.11-0.22,0.43,0.43,0,0,1,.35-0.39,0.26,0.26,0,0,1,.19.07,0.28,0.28,0,0,1,.08.21,0.45,0.45,0,0,1-.26.41,1.54,1.54,0,0,1-.73.16"></path><path class="v" d="M40.48,5.07l1.14,0.19L42,7.07l1-1.58,1.11,0.19,0,0.11a0.3,0.3,0,0,0-.24.06,0.53,0.53,0,0,0-.12.3l-0.29,1.7a0.58,0.58,0,0,0,0,.33,0.29,0.29,0,0,0,.22.14l0,0.11-1.44-.24,0-.11A0.32,0.32,0,0,0,42.5,8a0.54,0.54,0,0,0,.13-0.31L42.93,6,41.59,8.06,41.44,8,40.9,5.64,40.6,7.41a0.47,0.47,0,0,0,0,.29,0.33,0.33,0,0,0,.24.14l0,0.11L40,7.8l0-.11a0.3,0.3,0,0,0,.25-0.05,0.49,0.49,0,0,0,.12-0.28L40.7,5.61a0.48,0.48,0,0,0,0-.3,0.31,0.31,0,0,0-.22-0.13Z"></path><path class="v" d="M46.62,7.78l-1.46-.44a1.43,1.43,0,0,0,0,.92,0.62,0.62,0,0,0,.4.38,0.56,0.56,0,0,0,.34,0,1.25,1.25,0,0,0,.4-0.25l0.08,0.09a1.67,1.67,0,0,1-.66.48,1.07,1.07,0,0,1-.66,0,1.05,1.05,0,0,1-.76-0.72,1.67,1.67,0,0,1,0-1A1.57,1.57,0,0,1,45,6.3a1.15,1.15,0,0,1,1-.14,1,1,0,0,1,.6.54,1.57,1.57,0,0,1,0,1.08M46,7.38a2.73,2.73,0,0,0,.14-0.64A0.54,0.54,0,0,0,46,6.43a0.25,0.25,0,0,0-.14-0.1,0.29,0.29,0,0,0-.28.07,1.3,1.3,0,0,0-.37.64l0,0.1Z"></path><path class="v" d="M49.86,7.7l0,0.1a0.26,0.26,0,0,0-.27,0,0.56,0.56,0,0,0-.15.23L48.71,9.68a0.46,0.46,0,0,0-.05.32,0.34,0.34,0,0,0,.18.16l-0.32.77-0.1,0a0.78,0.78,0,0,0-.57-1l-0.74-.31A0.79,0.79,0,0,0,46,9.88l-0.1,0,0.32-.77A0.79,0.79,0,0,0,47,8.67a4.37,4.37,0,0,0,.71-1.18,1.26,1.26,0,0,0,.1-0.32,0.24,0.24,0,0,0,0-.17,0.5,0.5,0,0,0-.19-0.12l0-.1Zm-1.12-.26-0.68-.28-0.17.4A3.47,3.47,0,0,1,46.72,9.2l0.84,0.35A0.29,0.29,0,0,0,48,9.33Z"></path><path class="v" d="M50.54,11.2l0.05-.1q0.23,0.13.43-.22L51.68,9.7l-1.35.8q-0.19.34,0,.48l-0.05.1-1.23-.69,0.05-.1a0.28,0.28,0,0,0,.26,0,0.57,0.57,0,0,0,.22-0.25l0.83-1.49q0.2-.36-0.07-0.51L50.43,8l1.23,0.69-0.05.1a0.25,0.25,0,0,0-.23,0,0.62,0.62,0,0,0-.21.26l-0.66,1.18,1.36-.81A0.56,0.56,0,0,0,52,9a0.23,0.23,0,0,0-.13-0.17l0.05-.1,1.23,0.69-0.05.1a0.33,0.33,0,0,0-.25,0,0.42,0.42,0,0,0-.21.22l-0.86,1.54a0.54,0.54,0,0,0-.1.32,0.31,0.31,0,0,0,.17.19l-0.05.1Z"></path><path class="v" d="M56.06,11.58L56,11.67a0.33,0.33,0,0,0-.23-0.06,0.54,0.54,0,0,0-.25.23l-1,1.32a0.76,0.76,0,0,0-.18.35,0.38,0.38,0,0,0,.13.22l-0.07.09L53.28,13l0.07-.09a0.36,0.36,0,0,0,.26.06,0.9,0.9,0,0,0,.26-0.28l0.41-.56a3.3,3.3,0,0,1-.86-0.4,0.75,0.75,0,0,1-.27-0.34,0.53,0.53,0,0,1,0-.33,1.11,1.11,0,0,1,.18-0.32l0.22-.3a0.74,0.74,0,0,0,.17-0.32,0.34,0.34,0,0,0-.13-0.22l0.06-.09,1.11,0.82-0.06.09a0.34,0.34,0,0,0-.2,0,0.53,0.53,0,0,0-.26.23L54,11.21a0.79,0.79,0,0,0-.17.32,0.26,0.26,0,0,0,.14.22,1.94,1.94,0,0,0,.45.22l0.43-.59A0.76,0.76,0,0,0,55,11.07a0.3,0.3,0,0,0-.11-0.22l0.06-.09Z"></path><path class="v" d="M54.66,14l0.08-.08A0.29,0.29,0,0,0,55,14a0.56,0.56,0,0,0,.28-0.19l1.17-1.23a0.59,0.59,0,0,0,.19-0.3,0.3,0.3,0,0,0-.12-0.23L56.57,12l1,1-0.08.08a0.28,0.28,0,0,0-.2-0.09,0.56,0.56,0,0,0-.27.19l-0.5.53,0.58,0.55,0.5-.53a0.77,0.77,0,0,0,.18-0.25,0.22,0.22,0,0,0-.09-0.22l0.08-.08,1,1-0.08.08a0.3,0.3,0,0,0-.23-0.1,0.45,0.45,0,0,0-.24.16L57,15.53a0.56,0.56,0,0,0-.18.29A0.33,0.33,0,0,0,57,16l-0.08.08-1-1,0.08-.08a0.28,0.28,0,0,0,.2.09,0.57,0.57,0,0,0,.27-0.2l0.57-.6-0.58-.55-0.56.59a0.63,0.63,0,0,0-.19.29,0.25,0.25,0,0,0,.1.2L55.69,15Z"></path><path class="v" d="M58.16,17.63l0.08-.07q0.17,0.21.48,0l1-.86-1.55.25q-0.3.25-.14,0.46L58,17.43l-0.9-1.09,0.08-.07a0.28,0.28,0,0,0,.23.13,0.57,0.57,0,0,0,.3-0.16L59,15.16q0.32-.26.12-0.5l0.08-.07,0.9,1.09L60,15.74a0.25,0.25,0,0,0-.2-0.11,0.63,0.63,0,0,0-.29.16l-1,.86,1.57-.26a0.56,0.56,0,0,0,.19-0.24,0.23,0.23,0,0,0-.06-0.21l0.08-.07L61.19,17,61.1,17a0.33,0.33,0,0,0-.21-0.13,0.42,0.42,0,0,0-.28.13l-1.36,1.12a0.54,0.54,0,0,0-.21.26,0.3,0.3,0,0,0,.09.24l-0.08.07Z"></path><path class="v" d="M60.11,20.37l0.09-.06q0.14,0.23.48,0l1.15-.72-1.57.05q-0.33.21-.19,0.44L60,20.15,59.22,19l0.09-.06a0.28,0.28,0,0,0,.21.15,0.57,0.57,0,0,0,.32-0.12L61.29,18q0.35-.22.18-0.48l0.09-.06,0.75,1.19-0.09.06A0.25,0.25,0,0,0,62,18.6a0.62,0.62,0,0,0-.31.12l-1.14.72,1.59-.06a0.56,0.56,0,0,0,.22-0.22,0.23,0.23,0,0,0,0-.22l0.09-.06,0.75,1.19-0.09.06A0.33,0.33,0,0,0,62.92,20a0.42,0.42,0,0,0-.29.09L61.14,21a0.54,0.54,0,0,0-.24.23,0.3,0.3,0,0,0,.06.25l-0.09.06Zm2.65-1.8a1.68,1.68,0,0,1-.28-0.72,0.45,0.45,0,0,1,.18-0.46,0.28,0.28,0,0,1,.22,0,0.25,0.25,0,0,1,.16.11,0.41,0.41,0,0,1-.13.49,0.44,0.44,0,0,0-.12.24,0.45,0.45,0,0,0,.09.26,0.49,0.49,0,0,0,.22.23,0.51,0.51,0,0,0,.24,0,0.43,0.43,0,0,1,.51.1,0.26,0.26,0,0,1,0,.2,0.28,0.28,0,0,1-.14.18,0.45,0.45,0,0,1-.48,0,1.54,1.54,0,0,1-.52-0.54"></path><path class="v" d="M64.24,22.1l0.53,1.31-0.1,0a0.25,0.25,0,0,0-.16-0.17,0.73,0.73,0,0,0-.35.08l-0.63.25a0.71,0.71,0,0,0,.27.38,1,1,0,0,0,.47.06,1.72,1.72,0,0,1,.67.07,0.59,0.59,0,0,1,.32.35,0.66,0.66,0,0,1,0,.43,0.44,0.44,0,0,1-.56.3,0.34,0.34,0,0,1-.21-0.2,0.31,0.31,0,0,1,.19-0.44q0.22-.09.18-0.19a0.52,0.52,0,0,0-.49-0.13H63.95a0.78,0.78,0,0,1-.24-0.08,1.1,1.1,0,0,1,0,.46,1.78,1.78,0,0,1-.29.5l-0.29.4a0.62,0.62,0,0,0-.17.54l-0.1,0-0.4-1,0.94-1.27-0.07-.16L62.63,24a0.73,0.73,0,0,0-.31.19,0.24,0.24,0,0,0,0,.23l-0.1,0-0.53-1.31,0.1,0a0.35,0.35,0,0,0,.15.18,0.5,0.5,0,0,0,.37-0.06l1.52-.61a0.75,0.75,0,0,0,.33-0.2,0.27,0.27,0,0,0,0-.26Z"></path><path class="v" d="M66,26.7a1.28,1.28,0,0,1,0,.7,1.19,1.19,0,0,1-.39.6,1.75,1.75,0,0,1-.68.35,1.59,1.59,0,0,1-1,0,1.18,1.18,0,0,1-.73-0.84,1.14,1.14,0,0,1,.17-1,1.62,1.62,0,0,1,.89-0.59,1.64,1.64,0,0,1,1.09.06,1.13,1.13,0,0,1,.68.8m-0.2.07a0.34,0.34,0,0,0-.18-0.22,0.8,0.8,0,0,0-.47,0q-0.33.06-.91,0.21a4,4,0,0,0-.56.2,0.57,0.57,0,0,0-.27.22,0.33,0.33,0,0,0,0,.26,0.33,0.33,0,0,0,.13.19,0.5,0.5,0,0,0,.31.07,6.84,6.84,0,0,0,1.11-.24,2.82,2.82,0,0,0,.65-0.24A0.53,0.53,0,0,0,65.76,27a0.31,0.31,0,0,0,0-.21"></path><path class="v" d="M63.85,30.43l0.11,0a0.42,0.42,0,0,0,.11.23,0.38,0.38,0,0,0,.32,0l2.06-.32-0.12-.77-1.2.19a4.15,4.15,0,0,1-.9.07,0.65,0.65,0,0,1-.42-0.19,0.67,0.67,0,0,1-.19-0.37,0.51,0.51,0,0,1,.08-0.4,0.45,0.45,0,0,1,.3-0.19,0.42,0.42,0,0,1,.31.06,0.35,0.35,0,0,1,.15.25,0.31,0.31,0,0,1-.33.37q-0.17,0-.16.09a0.25,0.25,0,0,0,.24.17,3.43,3.43,0,0,0,.88-0.06l0.8-.12a0.67,0.67,0,0,0,.36-0.13,0.32,0.32,0,0,0,.07-0.27l0.11,0,0.37,2.41-0.11,0a0.3,0.3,0,0,0-.41-0.24l-1.76.27a0.55,0.55,0,0,0-.28.11,0.27,0.27,0,0,0-.06.25l-0.11,0Z"></path><path class="v" d="M65.68,34.47L65.61,33a1.43,1.43,0,0,0-.86.33,0.62,0.62,0,0,0-.22.5,0.56,0.56,0,0,0,.11.32,1.25,1.25,0,0,0,.37.29l-0.06.1A1.67,1.67,0,0,1,64.28,34a1.07,1.07,0,0,1-.22-0.62,1.05,1.05,0,0,1,.43-1,1.67,1.67,0,0,1,.94-0.3,1.57,1.57,0,0,1,1.12.32,1.15,1.15,0,0,1,.45.86,1,1,0,0,1-.31.74,1.57,1.57,0,0,1-1,.38m0.17-.74a2.72,2.72,0,0,0,.65-0.08,0.53,0.53,0,0,0,.26-0.17,0.25,0.25,0,0,0,0-.17,0.29,0.29,0,0,0-.16-0.24,1.29,1.29,0,0,0-.73-0.14h-0.1Z"></path><path class="v" d="M66.82,37.5H66.72a0.26,0.26,0,0,0-.09-0.26,0.56,0.56,0,0,0-.26-0.07l-1.79-.1a0.46,0.46,0,0,0-.32.06,0.34,0.34,0,0,0-.09.23l-0.84,0V37.2a0.78,0.78,0,0,0,.78-0.88l0-.8a0.79,0.79,0,0,0-.68-0.95V34.47l0.84,0a0.79,0.79,0,0,0,.64.61,4.37,4.37,0,0,0,1.35.28,1.25,1.25,0,0,0,.33,0,0.24,0.24,0,0,0,.15-0.09,0.49,0.49,0,0,0,.05-0.22H67ZM66.7,36.36l0-.73-0.43,0A3.47,3.47,0,0,1,64.37,35l0,0.91a0.29,0.29,0,0,0,.34.31Z"></path><path class="v" d="M63.83,38.9l0.11,0a0.29,0.29,0,0,0,0,.25,0.54,0.54,0,0,0,.3.13l0.81,0.15A0.24,0.24,0,0,0,65,39.23l-1.05-.8,0.18-1,0.11,0a0.32,0.32,0,0,0,0,.18,0.49,0.49,0,0,0,.15.16l0.69,0.52a0.73,0.73,0,0,1,.25.28,1,1,0,0,1,0,.39A1.71,1.71,0,0,1,66,38.85a1.61,1.61,0,0,0,.34-0.06,0.13,0.13,0,0,0,.09-0.09s0-.09-0.17-0.12A0.58,0.58,0,0,1,66,38.46a0.24,0.24,0,0,1,0-.22,0.32,0.32,0,0,1,.13-0.2,0.39,0.39,0,0,1,.31,0,0.47,0.47,0,0,1,.37.57,0.45,0.45,0,0,1-.21.32A1.41,1.41,0,0,1,66,39a1.84,1.84,0,0,0-.58.14,0.44,0.44,0,0,0-.17.31L66,39.62a0.47,0.47,0,0,0,.31,0,0.3,0.3,0,0,0,.13-0.21l0.11,0-0.27,1.41-0.11,0a0.33,0.33,0,0,0,0-.25,0.61,0.61,0,0,0-.32-0.12l-0.69-.13a0.5,0.5,0,0,0,0,.26,0.4,0.4,0,0,0,.13.19,4.75,4.75,0,0,0,.44.27,1,1,0,0,1,.4.34,0.5,0.5,0,0,1,.05.33A0.5,0.5,0,0,1,66,42a0.43,0.43,0,0,1-.37.08,0.42,0.42,0,0,1-.26-0.14,0.29,0.29,0,0,1-.06-0.25q0.05-.28.44-0.21,0.16,0,.17,0a0.51,0.51,0,0,0-.36-0.31A1.52,1.52,0,0,1,65,40.75a0.89,0.89,0,0,1-.19.36,0.93,0.93,0,0,1-.38.17l-0.78.22a0.44,0.44,0,0,0-.19.08,0.35,0.35,0,0,0-.08.17l-0.11,0,0.18-1,1.27-.36a0.24,0.24,0,0,0,.2-0.16l-0.87-.16a0.43,0.43,0,0,0-.28,0,0.42,0.42,0,0,0-.13.23l-0.11,0Z"></path><path class="g" d="M30.74,63.48a29.35,29.35,0,0,1-3.89-1.22l-0.36-.14,0.34-.87,0.36,0.14,0.19,0.07a1.6,1.6,0,0,0,.51.14,0.21,0.21,0,0,0,.1,0,2.41,2.41,0,0,0,.21-0.5l1-2.88a2.8,2.8,0,0,0,.1-0.34h0a0.11,0.11,0,0,0-.06,0,1.33,1.33,0,0,0-.43-0.05H28.43l-0.06-.52-0.05-.42h0.43a17.43,17.43,0,0,0,2.43-.2h0.08l0.22,0.06,0.37,0.1-1.4,5a2.32,2.32,0,0,0-.12.54h0l0.05,0.05a1.07,1.07,0,0,0,.42.16l0.17,0,0.38,0.09-0.22.91Z"></path><path class="v" d="M31.36,57l-1.3,4.63a2.35,2.35,0,0,0-.13.68,0.48,0.48,0,0,0,.18.3,1.43,1.43,0,0,0,.58.25l0.17,0,0,0.16A28.9,28.9,0,0,1,27,61.9l0.06-.15,0.19,0.07a1.85,1.85,0,0,0,.68.16,0.5,0.5,0,0,0,.34-0.13,2.07,2.07,0,0,0,.3-0.64l1-2.88a1.77,1.77,0,0,0,.12-0.5,0.38,0.38,0,0,0-.09-0.22,0.5,0.5,0,0,0-.23-0.16,1.73,1.73,0,0,0-.59-0.08l0-.18a17.86,17.86,0,0,0,2.48-.2l0.14,0"></path><path class="g" d="M33.1,64a7.09,7.09,0,0,1-1.15-.1l-0.39-.06L31.72,63h0.42a4.29,4.29,0,0,0,1.39-.2,2.24,2.24,0,0,0,.92-0.57A1.5,1.5,0,0,0,34.61,62H34.53l-0.29,0a2.15,2.15,0,0,1-1.49-.82,2,2,0,0,1-.34-1.7,2.68,2.68,0,0,1,.53-1.16,2.35,2.35,0,0,1,1-.74,2.49,2.49,0,0,1,.91-0.18H35.1a2.38,2.38,0,0,1,1.15.45,2.68,2.68,0,0,1,.85,1,3.17,3.17,0,0,1,.31,1.46,3.55,3.55,0,0,1-.64,2,3.73,3.73,0,0,1-1.92,1.39A5.37,5.37,0,0,1,33.1,64m1.76-5.54,0,0a1.53,1.53,0,0,0-.21.74,2.52,2.52,0,0,0,.06,1.44,0.29,0.29,0,0,0,.25.16h0.19c0-.11,0-0.28,0-0.37s0-.15,0-0.21a5.07,5.07,0,0,0-.07-1.38,0.78,0.78,0,0,0-.17-0.39H34.86"></path><path class="v" d="M32,63.48l0-.12a4.75,4.75,0,0,0,1.62-.22,2.61,2.61,0,0,0,1.08-.67,4.9,4.9,0,0,0,.59-1s-0.41.12-.56,0.14a1.87,1.87,0,0,1-.48,0,1.76,1.76,0,0,1-1.23-.67,1.66,1.66,0,0,1-.26-1.39,2.29,2.29,0,0,1,.45-1,2,2,0,0,1,.83-0.62,2,2,0,0,1,1.95.24,2.29,2.29,0,0,1,.73.89A2.78,2.78,0,0,1,37,60.3a3.16,3.16,0,0,1-.57,1.76,3.36,3.36,0,0,1-1.73,1.25,5.54,5.54,0,0,1-2.72.17m3.42-2.41a2.38,2.38,0,0,0,.12-0.85,5.46,5.46,0,0,0-.08-1.48,1.13,1.13,0,0,0-.27-0.58A0.44,0.44,0,0,0,34.92,58a0.41,0.41,0,0,0-.37.14,1.9,1.9,0,0,0-.31.94,2.92,2.92,0,0,0,.11,1.68,0.67,0.67,0,0,0,.55.36,0.93,0.93,0,0,0,.53-0.09"></path><path class="g" d="M40.06,64.27A2.92,2.92,0,0,1,38.88,64a2.38,2.38,0,0,1-1.11-1,2.85,2.85,0,0,1-.38-1.43,4,4,0,0,1,.56-2A4.69,4.69,0,0,1,39.42,58a5.58,5.58,0,0,1,2.14-.85l0.38-.07,0.15,0.8L41.81,58a5.07,5.07,0,0,0-1.13.65,2.44,2.44,0,0,0-.62.73,2.18,2.18,0,0,0-.12.29l0.32-.05,0.3,0a2.19,2.19,0,0,1,1.26.39,2.15,2.15,0,0,1,.89,1.45,2.35,2.35,0,0,1-.12,1.31,2.24,2.24,0,0,1-.88,1.05,2.94,2.94,0,0,1-1.34.47l-0.31,0m-0.41-3.34c0,0.12,0,.31,0,0.4s0,0.15,0,.2a4.21,4.21,0,0,0,.2,1,1.13,1.13,0,0,0,.32.56,0.22,0.22,0,0,0,.14,0h0a0.19,0.19,0,0,0,.14-0.11,1.23,1.23,0,0,0,0-.7A2.56,2.56,0,0,0,40.12,61a0.31,0.31,0,0,0-.24-0.11h0l-0.19,0"></path><path class="v" d="M41.63,57.52l0,0.12a5.44,5.44,0,0,0-1.21.71,2.84,2.84,0,0,0-.71.84,7.43,7.43,0,0,0-.38,1.15s0.25-.16.34-0.2A2.64,2.64,0,0,1,40.31,60a1.84,1.84,0,0,1,1.3.31,1.76,1.76,0,0,1,.73,1.2,2,2,0,0,1-.1,1.1,1.86,1.86,0,0,1-.73.87,2.65,2.65,0,0,1-2.47.2,2,2,0,0,1-.93-0.84,2.45,2.45,0,0,1-.33-1.24,3.6,3.6,0,0,1,.51-1.85,4.34,4.34,0,0,1,1.36-1.44,5.19,5.19,0,0,1,2-.79M39.3,60.69a2.32,2.32,0,0,0,0,.88,4.59,4.59,0,0,0,.22,1.14,1.51,1.51,0,0,0,.46.75,0.62,0.62,0,0,0,.44.12,0.58,0.58,0,0,0,.42-0.28,1.54,1.54,0,0,0,.08-1,3,3,0,0,0-.54-1.6,0.69,0.69,0,0,0-.6-0.24,1,1,0,0,0-.5.18"></path><path class="g" d="M44.25,63.5a2.18,2.18,0,0,1-.6-0.08,0.87,0.87,0,0,1-.7-0.64,0.8,0.8,0,0,1,.18-0.68,1,1,0,0,1,.58-0.36,1.81,1.81,0,0,1,.41,0h0.13a6.41,6.41,0,0,1,.88.17,2.35,2.35,0,0,0,.53.07,1,1,0,0,0,.28,0,0.76,0.76,0,0,0,.44-0.32,0.38,0.38,0,0,0,.06-0.36,1.06,1.06,0,0,0-1-.63,3.92,3.92,0,0,0-.68-0.06,6.73,6.73,0,0,0-1.47.19l-0.4.09-0.57.13,0.11-.58a30,30,0,0,0,.45-3.12l0-.27,0.26-.07A18.75,18.75,0,0,0,45.85,56l0.54-.21V56.4c0,0.48,0,.74,0,1.23v0.26L46.09,58c-0.51.19-.89,0.32-1.28,0.45h0.25a4.17,4.17,0,0,1,1.22.17,2.15,2.15,0,0,1,1.48,1.27,2.09,2.09,0,0,1,0,1.38,2.67,2.67,0,0,1-.9,1.31,4.21,4.21,0,0,1-1.59.81,4.06,4.06,0,0,1-1.06.16"></path><path class="v" d="M43.28,57.28A19.15,19.15,0,0,0,46,56.39c0,0.48,0,.73,0,1.21a20.08,20.08,0,0,1-2.4.75c0,0.25-.05.38-0.09,0.63a5.48,5.48,0,0,1,2.7,0,1.78,1.78,0,0,1,1.23,1,1.71,1.71,0,0,1,0,1.13,2.29,2.29,0,0,1-.78,1.12,3.83,3.83,0,0,1-1.44.73,2.77,2.77,0,0,1-1.45.08,0.52,0.52,0,0,1-.43-0.35,0.42,0.42,0,0,1,.1-0.36,0.64,0.64,0,0,1,.37-0.23,1.47,1.47,0,0,1,.43,0,6.53,6.53,0,0,1,.82.16,2.73,2.73,0,0,0,.63.08,1.33,1.33,0,0,0,.39-0.06,1.14,1.14,0,0,0,.65-0.49,0.77,0.77,0,0,0,.09-0.69,1.48,1.48,0,0,0-1.28-.88,5.87,5.87,0,0,0-2.31.13l-0.4.09a30.38,30.38,0,0,0,.45-3.15"></path></g></g><text class="w" transform="translate(87.41 18)"> <tspan x="0" y="14.94"> </tspan><tspan x="86.68" y="14.94"></tspan><tspan x="98.83" y="14.94"> </tspan><tspan x="0" y="29.88"></tspan></text></svg> 